G04 #@! TF.GenerationSoftware,KiCad,Pcbnew,6.0.8-1.fc36*
G04 #@! TF.CreationDate,2022-10-16T22:18:09-05:00*
G04 #@! TF.ProjectId,Pomodoro,506f6d6f-646f-4726-9f2e-6b696361645f,rev?*
G04 #@! TF.SameCoordinates,Original*
G04 #@! TF.FileFunction,Legend,Bot*
G04 #@! TF.FilePolarity,Positive*
%FSLAX46Y46*%
G04 Gerber Fmt 4.6, Leading zero omitted, Abs format (unit mm)*
G04 Created by KiCad (PCBNEW 6.0.8-1.fc36) date 2022-10-16 22:18:09*
%MOMM*%
%LPD*%
G01*
G04 APERTURE LIST*
G04 Aperture macros list*
%AMRoundRect*
0 Rectangle with rounded corners*
0 $1 Rounding radius*
0 $2 $3 $4 $5 $6 $7 $8 $9 X,Y pos of 4 corners*
0 Add a 4 corners polygon primitive as box body*
4,1,4,$2,$3,$4,$5,$6,$7,$8,$9,$2,$3,0*
0 Add four circle primitives for the rounded corners*
1,1,$1+$1,$2,$3*
1,1,$1+$1,$4,$5*
1,1,$1+$1,$6,$7*
1,1,$1+$1,$8,$9*
0 Add four rect primitives between the rounded corners*
20,1,$1+$1,$2,$3,$4,$5,0*
20,1,$1+$1,$4,$5,$6,$7,0*
20,1,$1+$1,$6,$7,$8,$9,0*
20,1,$1+$1,$8,$9,$2,$3,0*%
G04 Aperture macros list end*
%ADD10C,0.150000*%
%ADD11C,0.120000*%
%ADD12R,2.000000X2.000000*%
%ADD13C,2.000000*%
%ADD14R,1.600000X1.600000*%
%ADD15C,1.600000*%
%ADD16R,1.800000X1.800000*%
%ADD17C,1.800000*%
%ADD18RoundRect,0.250000X-0.600000X-0.600000X0.600000X-0.600000X0.600000X0.600000X-0.600000X0.600000X0*%
%ADD19C,1.700000*%
%ADD20R,1.700000X1.700000*%
%ADD21O,1.700000X1.700000*%
%ADD22C,1.400000*%
%ADD23O,1.400000X1.400000*%
%ADD24O,1.600000X1.600000*%
%ADD25R,3.000000X3.000000*%
%ADD26C,3.000000*%
G04 APERTURE END LIST*
D10*
X91313571Y-100593205D02*
X91361190Y-100736062D01*
X91408809Y-100783681D01*
X91504047Y-100831300D01*
X91646904Y-100831300D01*
X91742142Y-100783681D01*
X91789761Y-100736062D01*
X91837380Y-100640824D01*
X91837380Y-100259872D01*
X90837380Y-100259872D01*
X90837380Y-100593205D01*
X90885000Y-100688443D01*
X90932619Y-100736062D01*
X91027857Y-100783681D01*
X91123095Y-100783681D01*
X91218333Y-100736062D01*
X91265952Y-100688443D01*
X91313571Y-100593205D01*
X91313571Y-100259872D01*
X90837380Y-101117015D02*
X90837380Y-101688443D01*
X91837380Y-101402729D02*
X90837380Y-101402729D01*
X91837380Y-102545586D02*
X91837380Y-101974158D01*
X91837380Y-102259872D02*
X90837380Y-102259872D01*
X90980238Y-102164634D01*
X91075476Y-102069396D01*
X91123095Y-101974158D01*
X95992142Y-104807491D02*
X95992142Y-105950348D01*
X96563571Y-105378920D02*
X95420714Y-105378920D01*
D11*
X93385000Y-100578920D02*
X98385000Y-100578920D01*
X92835000Y-103578920D02*
X92835000Y-101128920D01*
X98935000Y-101128920D02*
X98935000Y-103578920D01*
X92365000Y-104278920D02*
G75*
G03*
X95900231Y-131828658I3520000J-13550000D01*
G01*
X92341515Y-104283689D02*
G75*
G03*
X92835000Y-103578920I-256515J704769D01*
G01*
X93385000Y-100578920D02*
G75*
G03*
X92835000Y-101128920I-1J-549999D01*
G01*
X98935000Y-103578920D02*
G75*
G03*
X99428485Y-104283689I750000J0D01*
G01*
X95869769Y-131828658D02*
G75*
G03*
X99405000Y-104278920I15231J13999738D01*
G01*
X98935000Y-101128920D02*
G75*
G03*
X98385000Y-100578920I-549999J1D01*
G01*
%LPC*%
D12*
X104140000Y-123200000D03*
D13*
X104140000Y-130800000D03*
D14*
X107950000Y-116840000D03*
D15*
X107950000Y-119340000D03*
D16*
X100330000Y-109215000D03*
D17*
X100330000Y-111755000D03*
D18*
X76717500Y-115565000D03*
D19*
X79257500Y-115565000D03*
X76717500Y-118105000D03*
X79257500Y-118105000D03*
X76717500Y-120645000D03*
X79257500Y-120645000D03*
D20*
X87630000Y-103530000D03*
D21*
X85090000Y-103530000D03*
X82550000Y-103530000D03*
D22*
X103505000Y-118110000D03*
D23*
X95885000Y-118110000D03*
D22*
X83185000Y-108585000D03*
D23*
X90805000Y-108585000D03*
D13*
X92710000Y-125730000D03*
X86210000Y-125730000D03*
X86210000Y-130230000D03*
X92710000Y-130230000D03*
D14*
X85100000Y-113040000D03*
D24*
X85100000Y-115580000D03*
X85100000Y-118120000D03*
X85100000Y-120660000D03*
X92720000Y-120660000D03*
X92720000Y-118120000D03*
X92720000Y-115580000D03*
X92720000Y-113040000D03*
D22*
X95885000Y-115570000D03*
D23*
X103505000Y-115570000D03*
D25*
X95885000Y-102628920D03*
D26*
X95885000Y-123118920D03*
M02*
