G04 #@! TF.GenerationSoftware,KiCad,Pcbnew,6.0.8-1.fc36*
G04 #@! TF.CreationDate,2022-10-16T22:18:08-05:00*
G04 #@! TF.ProjectId,Pomodoro,506f6d6f-646f-4726-9f2e-6b696361645f,rev?*
G04 #@! TF.SameCoordinates,Original*
G04 #@! TF.FileFunction,Copper,L2,Bot*
G04 #@! TF.FilePolarity,Positive*
%FSLAX46Y46*%
G04 Gerber Fmt 4.6, Leading zero omitted, Abs format (unit mm)*
G04 Created by KiCad (PCBNEW 6.0.8-1.fc36) date 2022-10-16 22:18:08*
%MOMM*%
%LPD*%
G01*
G04 APERTURE LIST*
G04 Aperture macros list*
%AMRoundRect*
0 Rectangle with rounded corners*
0 $1 Rounding radius*
0 $2 $3 $4 $5 $6 $7 $8 $9 X,Y pos of 4 corners*
0 Add a 4 corners polygon primitive as box body*
4,1,4,$2,$3,$4,$5,$6,$7,$8,$9,$2,$3,0*
0 Add four circle primitives for the rounded corners*
1,1,$1+$1,$2,$3*
1,1,$1+$1,$4,$5*
1,1,$1+$1,$6,$7*
1,1,$1+$1,$8,$9*
0 Add four rect primitives between the rounded corners*
20,1,$1+$1,$2,$3,$4,$5,0*
20,1,$1+$1,$4,$5,$6,$7,0*
20,1,$1+$1,$6,$7,$8,$9,0*
20,1,$1+$1,$8,$9,$2,$3,0*%
G04 Aperture macros list end*
G04 #@! TA.AperFunction,ComponentPad*
%ADD10R,2.000000X2.000000*%
G04 #@! TD*
G04 #@! TA.AperFunction,ComponentPad*
%ADD11C,2.000000*%
G04 #@! TD*
G04 #@! TA.AperFunction,ComponentPad*
%ADD12R,1.600000X1.600000*%
G04 #@! TD*
G04 #@! TA.AperFunction,ComponentPad*
%ADD13C,1.600000*%
G04 #@! TD*
G04 #@! TA.AperFunction,ComponentPad*
%ADD14R,1.800000X1.800000*%
G04 #@! TD*
G04 #@! TA.AperFunction,ComponentPad*
%ADD15C,1.800000*%
G04 #@! TD*
G04 #@! TA.AperFunction,ComponentPad*
%ADD16RoundRect,0.250000X-0.600000X-0.600000X0.600000X-0.600000X0.600000X0.600000X-0.600000X0.600000X0*%
G04 #@! TD*
G04 #@! TA.AperFunction,ComponentPad*
%ADD17C,1.700000*%
G04 #@! TD*
G04 #@! TA.AperFunction,ComponentPad*
%ADD18R,1.700000X1.700000*%
G04 #@! TD*
G04 #@! TA.AperFunction,ComponentPad*
%ADD19O,1.700000X1.700000*%
G04 #@! TD*
G04 #@! TA.AperFunction,ComponentPad*
%ADD20C,1.400000*%
G04 #@! TD*
G04 #@! TA.AperFunction,ComponentPad*
%ADD21O,1.400000X1.400000*%
G04 #@! TD*
G04 #@! TA.AperFunction,ComponentPad*
%ADD22O,1.600000X1.600000*%
G04 #@! TD*
G04 #@! TA.AperFunction,ComponentPad*
%ADD23R,3.000000X3.000000*%
G04 #@! TD*
G04 #@! TA.AperFunction,ComponentPad*
%ADD24C,3.000000*%
G04 #@! TD*
G04 #@! TA.AperFunction,Conductor*
%ADD25C,0.250000*%
G04 #@! TD*
G04 APERTURE END LIST*
D10*
X104140000Y-123200000D03*
D11*
X104140000Y-130800000D03*
D12*
X107950000Y-116840000D03*
D13*
X107950000Y-119340000D03*
D14*
X100330000Y-109215000D03*
D15*
X100330000Y-111755000D03*
D16*
X76717500Y-115565000D03*
D17*
X79257500Y-115565000D03*
X76717500Y-118105000D03*
X79257500Y-118105000D03*
X76717500Y-120645000D03*
X79257500Y-120645000D03*
D18*
X87630000Y-103530000D03*
D19*
X85090000Y-103530000D03*
X82550000Y-103530000D03*
D20*
X103505000Y-118110000D03*
D21*
X95885000Y-118110000D03*
D20*
X83185000Y-108585000D03*
D21*
X90805000Y-108585000D03*
D11*
X92710000Y-125730000D03*
X86210000Y-125730000D03*
X86210000Y-130230000D03*
X92710000Y-130230000D03*
D12*
X85100000Y-113040000D03*
D22*
X85100000Y-115580000D03*
X85100000Y-118120000D03*
X85100000Y-120660000D03*
X92720000Y-120660000D03*
X92720000Y-118120000D03*
X92720000Y-115580000D03*
X92720000Y-113040000D03*
D20*
X95885000Y-115570000D03*
D21*
X103505000Y-115570000D03*
D23*
X95885000Y-102628920D03*
D24*
X95885000Y-123118920D03*
D25*
X103505000Y-118110000D02*
X101600000Y-118110000D01*
X101600000Y-118110000D02*
X100330000Y-116840000D01*
X100330000Y-116840000D02*
X100330000Y-111755000D01*
X82550000Y-121920000D02*
X82550000Y-114935000D01*
X81915000Y-122555000D02*
X82550000Y-121920000D01*
X84445000Y-113040000D02*
X85100000Y-113040000D01*
X76717500Y-120645000D02*
X78627500Y-122555000D01*
X82550000Y-114935000D02*
X84445000Y-113040000D01*
X78627500Y-122555000D02*
X81915000Y-122555000D01*
X82550000Y-103530000D02*
X82550000Y-103505000D01*
X95885000Y-112395000D02*
X95885000Y-115570000D01*
X81280000Y-113030000D02*
X83820000Y-110490000D01*
X76717500Y-118105000D02*
X78082500Y-116740000D01*
X93980000Y-110490000D02*
X95885000Y-112395000D01*
X81280000Y-115570000D02*
X81280000Y-113030000D01*
X78082500Y-116740000D02*
X80110000Y-116740000D01*
X83820000Y-110490000D02*
X93980000Y-110490000D01*
X80110000Y-116740000D02*
X81280000Y-115570000D01*
X76717500Y-115565000D02*
X75542500Y-116740000D01*
X87630000Y-123190000D02*
X90170000Y-120650000D01*
X90170000Y-120650000D02*
X90170000Y-118745000D01*
X73660000Y-118110000D02*
X73660000Y-121920000D01*
X74930000Y-123190000D02*
X87630000Y-123190000D01*
X90795000Y-118120000D02*
X92720000Y-118120000D01*
X90170000Y-118745000D02*
X90795000Y-118120000D01*
X73660000Y-121920000D02*
X74930000Y-123190000D01*
X75030000Y-116740000D02*
X73660000Y-118110000D01*
X75542500Y-116740000D02*
X75030000Y-116740000D01*
G04 #@! TA.AperFunction,Conductor*
G36*
X113733621Y-99588502D02*
G01*
X113780114Y-99642158D01*
X113791500Y-99694500D01*
X113791500Y-133350500D01*
X113771498Y-133418621D01*
X113717842Y-133465114D01*
X113665500Y-133476500D01*
X70484500Y-133476500D01*
X70416379Y-133456498D01*
X70369886Y-133402842D01*
X70358500Y-133350500D01*
X70358500Y-132032670D01*
X103272160Y-132032670D01*
X103277887Y-132040320D01*
X103449042Y-132145205D01*
X103457837Y-132149687D01*
X103667988Y-132236734D01*
X103677373Y-132239783D01*
X103898554Y-132292885D01*
X103908301Y-132294428D01*
X104135070Y-132312275D01*
X104144930Y-132312275D01*
X104371699Y-132294428D01*
X104381446Y-132292885D01*
X104602627Y-132239783D01*
X104612012Y-132236734D01*
X104822163Y-132149687D01*
X104830958Y-132145205D01*
X104998445Y-132042568D01*
X105007907Y-132032110D01*
X105004124Y-132023334D01*
X104152812Y-131172022D01*
X104138868Y-131164408D01*
X104137035Y-131164539D01*
X104130420Y-131168790D01*
X103278920Y-132020290D01*
X103272160Y-132032670D01*
X70358500Y-132032670D01*
X70358500Y-131462670D01*
X85342160Y-131462670D01*
X85347887Y-131470320D01*
X85519042Y-131575205D01*
X85527837Y-131579687D01*
X85737988Y-131666734D01*
X85747373Y-131669783D01*
X85968554Y-131722885D01*
X85978301Y-131724428D01*
X86205070Y-131742275D01*
X86214930Y-131742275D01*
X86441699Y-131724428D01*
X86451446Y-131722885D01*
X86672627Y-131669783D01*
X86682012Y-131666734D01*
X86892163Y-131579687D01*
X86900958Y-131575205D01*
X87068445Y-131472568D01*
X87077400Y-131462670D01*
X91842160Y-131462670D01*
X91847887Y-131470320D01*
X92019042Y-131575205D01*
X92027837Y-131579687D01*
X92237988Y-131666734D01*
X92247373Y-131669783D01*
X92468554Y-131722885D01*
X92478301Y-131724428D01*
X92705070Y-131742275D01*
X92714930Y-131742275D01*
X92941699Y-131724428D01*
X92951446Y-131722885D01*
X93172627Y-131669783D01*
X93182012Y-131666734D01*
X93392163Y-131579687D01*
X93400958Y-131575205D01*
X93568445Y-131472568D01*
X93577907Y-131462110D01*
X93574124Y-131453334D01*
X92722812Y-130602022D01*
X92708868Y-130594408D01*
X92707035Y-130594539D01*
X92700420Y-130598790D01*
X91848920Y-131450290D01*
X91842160Y-131462670D01*
X87077400Y-131462670D01*
X87077907Y-131462110D01*
X87074124Y-131453334D01*
X86222812Y-130602022D01*
X86208868Y-130594408D01*
X86207035Y-130594539D01*
X86200420Y-130598790D01*
X85348920Y-131450290D01*
X85342160Y-131462670D01*
X70358500Y-131462670D01*
X70358500Y-130234930D01*
X84697725Y-130234930D01*
X84715572Y-130461699D01*
X84717115Y-130471446D01*
X84770217Y-130692627D01*
X84773266Y-130702012D01*
X84860313Y-130912163D01*
X84864795Y-130920958D01*
X84967432Y-131088445D01*
X84977890Y-131097907D01*
X84986666Y-131094124D01*
X85837978Y-130242812D01*
X85844356Y-130231132D01*
X86574408Y-130231132D01*
X86574539Y-130232965D01*
X86578790Y-130239580D01*
X87430290Y-131091080D01*
X87442670Y-131097840D01*
X87450320Y-131092113D01*
X87555205Y-130920958D01*
X87559687Y-130912163D01*
X87646734Y-130702012D01*
X87649783Y-130692627D01*
X87702885Y-130471446D01*
X87704428Y-130461699D01*
X87722275Y-130234930D01*
X91197725Y-130234930D01*
X91215572Y-130461699D01*
X91217115Y-130471446D01*
X91270217Y-130692627D01*
X91273266Y-130702012D01*
X91360313Y-130912163D01*
X91364795Y-130920958D01*
X91467432Y-131088445D01*
X91477890Y-131097907D01*
X91486666Y-131094124D01*
X92337978Y-130242812D01*
X92344356Y-130231132D01*
X93074408Y-130231132D01*
X93074539Y-130232965D01*
X93078790Y-130239580D01*
X93930290Y-131091080D01*
X93942670Y-131097840D01*
X93950320Y-131092113D01*
X94055205Y-130920958D01*
X94059687Y-130912163D01*
X94104104Y-130804930D01*
X102627725Y-130804930D01*
X102645572Y-131031699D01*
X102647115Y-131041446D01*
X102700217Y-131262627D01*
X102703266Y-131272012D01*
X102790313Y-131482163D01*
X102794795Y-131490958D01*
X102897432Y-131658445D01*
X102907890Y-131667907D01*
X102916666Y-131664124D01*
X103767978Y-130812812D01*
X103774356Y-130801132D01*
X104504408Y-130801132D01*
X104504539Y-130802965D01*
X104508790Y-130809580D01*
X105360290Y-131661080D01*
X105372670Y-131667840D01*
X105380320Y-131662113D01*
X105485205Y-131490958D01*
X105489687Y-131482163D01*
X105576734Y-131272012D01*
X105579783Y-131262627D01*
X105632885Y-131041446D01*
X105634428Y-131031699D01*
X105652275Y-130804930D01*
X105652275Y-130795070D01*
X105634428Y-130568301D01*
X105632885Y-130558554D01*
X105579783Y-130337373D01*
X105576734Y-130327988D01*
X105489687Y-130117837D01*
X105485205Y-130109042D01*
X105382568Y-129941555D01*
X105372110Y-129932093D01*
X105363334Y-129935876D01*
X104512022Y-130787188D01*
X104504408Y-130801132D01*
X103774356Y-130801132D01*
X103775592Y-130798868D01*
X103775461Y-130797035D01*
X103771210Y-130790420D01*
X102919710Y-129938920D01*
X102907330Y-129932160D01*
X102899680Y-129937887D01*
X102794795Y-130109042D01*
X102790313Y-130117837D01*
X102703266Y-130327988D01*
X102700217Y-130337373D01*
X102647115Y-130558554D01*
X102645572Y-130568301D01*
X102627725Y-130795070D01*
X102627725Y-130804930D01*
X94104104Y-130804930D01*
X94146734Y-130702012D01*
X94149783Y-130692627D01*
X94202885Y-130471446D01*
X94204428Y-130461699D01*
X94222275Y-130234930D01*
X94222275Y-130225070D01*
X94204428Y-129998301D01*
X94202885Y-129988554D01*
X94149783Y-129767373D01*
X94146734Y-129757988D01*
X94067993Y-129567890D01*
X103272093Y-129567890D01*
X103275876Y-129576666D01*
X104127188Y-130427978D01*
X104141132Y-130435592D01*
X104142965Y-130435461D01*
X104149580Y-130431210D01*
X105001080Y-129579710D01*
X105007840Y-129567330D01*
X105002113Y-129559680D01*
X104830958Y-129454795D01*
X104822163Y-129450313D01*
X104612012Y-129363266D01*
X104602627Y-129360217D01*
X104381446Y-129307115D01*
X104371699Y-129305572D01*
X104144930Y-129287725D01*
X104135070Y-129287725D01*
X103908301Y-129305572D01*
X103898554Y-129307115D01*
X103677373Y-129360217D01*
X103667988Y-129363266D01*
X103457837Y-129450313D01*
X103449042Y-129454795D01*
X103281555Y-129557432D01*
X103272093Y-129567890D01*
X94067993Y-129567890D01*
X94059687Y-129547837D01*
X94055205Y-129539042D01*
X93952568Y-129371555D01*
X93942110Y-129362093D01*
X93933334Y-129365876D01*
X93082022Y-130217188D01*
X93074408Y-130231132D01*
X92344356Y-130231132D01*
X92345592Y-130228868D01*
X92345461Y-130227035D01*
X92341210Y-130220420D01*
X91489710Y-129368920D01*
X91477330Y-129362160D01*
X91469680Y-129367887D01*
X91364795Y-129539042D01*
X91360313Y-129547837D01*
X91273266Y-129757988D01*
X91270217Y-129767373D01*
X91217115Y-129988554D01*
X91215572Y-129998301D01*
X91197725Y-130225070D01*
X91197725Y-130234930D01*
X87722275Y-130234930D01*
X87722275Y-130225070D01*
X87704428Y-129998301D01*
X87702885Y-129988554D01*
X87649783Y-129767373D01*
X87646734Y-129757988D01*
X87559687Y-129547837D01*
X87555205Y-129539042D01*
X87452568Y-129371555D01*
X87442110Y-129362093D01*
X87433334Y-129365876D01*
X86582022Y-130217188D01*
X86574408Y-130231132D01*
X85844356Y-130231132D01*
X85845592Y-130228868D01*
X85845461Y-130227035D01*
X85841210Y-130220420D01*
X84989710Y-129368920D01*
X84977330Y-129362160D01*
X84969680Y-129367887D01*
X84864795Y-129539042D01*
X84860313Y-129547837D01*
X84773266Y-129757988D01*
X84770217Y-129767373D01*
X84717115Y-129988554D01*
X84715572Y-129998301D01*
X84697725Y-130225070D01*
X84697725Y-130234930D01*
X70358500Y-130234930D01*
X70358500Y-128997890D01*
X85342093Y-128997890D01*
X85345876Y-129006666D01*
X86197188Y-129857978D01*
X86211132Y-129865592D01*
X86212965Y-129865461D01*
X86219580Y-129861210D01*
X87071080Y-129009710D01*
X87077534Y-128997890D01*
X91842093Y-128997890D01*
X91845876Y-129006666D01*
X92697188Y-129857978D01*
X92711132Y-129865592D01*
X92712965Y-129865461D01*
X92719580Y-129861210D01*
X93571080Y-129009710D01*
X93577840Y-128997330D01*
X93572113Y-128989680D01*
X93400958Y-128884795D01*
X93392163Y-128880313D01*
X93182012Y-128793266D01*
X93172627Y-128790217D01*
X92951446Y-128737115D01*
X92941699Y-128735572D01*
X92714930Y-128717725D01*
X92705070Y-128717725D01*
X92478301Y-128735572D01*
X92468554Y-128737115D01*
X92247373Y-128790217D01*
X92237988Y-128793266D01*
X92027837Y-128880313D01*
X92019042Y-128884795D01*
X91851555Y-128987432D01*
X91842093Y-128997890D01*
X87077534Y-128997890D01*
X87077840Y-128997330D01*
X87072113Y-128989680D01*
X86900958Y-128884795D01*
X86892163Y-128880313D01*
X86682012Y-128793266D01*
X86672627Y-128790217D01*
X86451446Y-128737115D01*
X86441699Y-128735572D01*
X86214930Y-128717725D01*
X86205070Y-128717725D01*
X85978301Y-128735572D01*
X85968554Y-128737115D01*
X85747373Y-128790217D01*
X85737988Y-128793266D01*
X85527837Y-128880313D01*
X85519042Y-128884795D01*
X85351555Y-128987432D01*
X85342093Y-128997890D01*
X70358500Y-128997890D01*
X70358500Y-125730000D01*
X84696835Y-125730000D01*
X84715465Y-125966711D01*
X84770895Y-126197594D01*
X84861760Y-126416963D01*
X84864346Y-126421183D01*
X84983241Y-126615202D01*
X84983245Y-126615208D01*
X84985824Y-126619416D01*
X85140031Y-126799969D01*
X85320584Y-126954176D01*
X85324792Y-126956755D01*
X85324798Y-126956759D01*
X85518817Y-127075654D01*
X85523037Y-127078240D01*
X85527607Y-127080133D01*
X85527611Y-127080135D01*
X85737833Y-127167211D01*
X85742406Y-127169105D01*
X85822609Y-127188360D01*
X85968476Y-127223380D01*
X85968482Y-127223381D01*
X85973289Y-127224535D01*
X86210000Y-127243165D01*
X86446711Y-127224535D01*
X86451518Y-127223381D01*
X86451524Y-127223380D01*
X86597391Y-127188360D01*
X86677594Y-127169105D01*
X86682167Y-127167211D01*
X86892389Y-127080135D01*
X86892393Y-127080133D01*
X86896963Y-127078240D01*
X86901183Y-127075654D01*
X87095202Y-126956759D01*
X87095208Y-126956755D01*
X87099416Y-126954176D01*
X87279969Y-126799969D01*
X87434176Y-126619416D01*
X87436755Y-126615208D01*
X87436759Y-126615202D01*
X87555654Y-126421183D01*
X87558240Y-126416963D01*
X87649105Y-126197594D01*
X87704535Y-125966711D01*
X87723165Y-125730000D01*
X91196835Y-125730000D01*
X91215465Y-125966711D01*
X91270895Y-126197594D01*
X91361760Y-126416963D01*
X91364346Y-126421183D01*
X91483241Y-126615202D01*
X91483245Y-126615208D01*
X91485824Y-126619416D01*
X91640031Y-126799969D01*
X91820584Y-126954176D01*
X91824792Y-126956755D01*
X91824798Y-126956759D01*
X92018817Y-127075654D01*
X92023037Y-127078240D01*
X92027607Y-127080133D01*
X92027611Y-127080135D01*
X92237833Y-127167211D01*
X92242406Y-127169105D01*
X92322609Y-127188360D01*
X92468476Y-127223380D01*
X92468482Y-127223381D01*
X92473289Y-127224535D01*
X92710000Y-127243165D01*
X92946711Y-127224535D01*
X92951518Y-127223381D01*
X92951524Y-127223380D01*
X93097391Y-127188360D01*
X93177594Y-127169105D01*
X93182167Y-127167211D01*
X93392389Y-127080135D01*
X93392393Y-127080133D01*
X93396963Y-127078240D01*
X93401183Y-127075654D01*
X93595202Y-126956759D01*
X93595208Y-126956755D01*
X93599416Y-126954176D01*
X93779969Y-126799969D01*
X93934176Y-126619416D01*
X93936755Y-126615208D01*
X93936759Y-126615202D01*
X94055654Y-126421183D01*
X94058240Y-126416963D01*
X94149105Y-126197594D01*
X94204535Y-125966711D01*
X94223165Y-125730000D01*
X94204535Y-125493289D01*
X94149105Y-125262406D01*
X94091736Y-125123904D01*
X94060135Y-125047611D01*
X94060133Y-125047607D01*
X94058240Y-125043037D01*
X94048764Y-125027573D01*
X93936759Y-124844798D01*
X93936755Y-124844792D01*
X93934176Y-124840584D01*
X93821429Y-124708574D01*
X94660618Y-124708574D01*
X94667673Y-124718547D01*
X94698679Y-124744471D01*
X94705598Y-124749499D01*
X94930272Y-124890435D01*
X94937807Y-124894476D01*
X95179520Y-125003614D01*
X95187551Y-125006600D01*
X95441832Y-125081922D01*
X95450184Y-125083789D01*
X95712340Y-125123904D01*
X95720874Y-125124620D01*
X95986045Y-125128787D01*
X95994596Y-125128338D01*
X96257883Y-125096477D01*
X96266284Y-125094875D01*
X96522824Y-125027573D01*
X96530926Y-125024846D01*
X96775949Y-124923354D01*
X96783617Y-124919548D01*
X97012598Y-124785742D01*
X97019679Y-124780929D01*
X97099655Y-124718221D01*
X97108125Y-124706362D01*
X97101608Y-124694738D01*
X95897812Y-123490942D01*
X95883868Y-123483328D01*
X95882035Y-123483459D01*
X95875420Y-123487710D01*
X94667910Y-124695220D01*
X94660618Y-124708574D01*
X93821429Y-124708574D01*
X93779969Y-124660031D01*
X93599416Y-124505824D01*
X93595208Y-124503245D01*
X93595202Y-124503241D01*
X93401183Y-124384346D01*
X93396963Y-124381760D01*
X93392393Y-124379867D01*
X93392389Y-124379865D01*
X93182167Y-124292789D01*
X93182165Y-124292788D01*
X93177594Y-124290895D01*
X93097391Y-124271640D01*
X92951524Y-124236620D01*
X92951518Y-124236619D01*
X92946711Y-124235465D01*
X92710000Y-124216835D01*
X92473289Y-124235465D01*
X92468482Y-124236619D01*
X92468476Y-124236620D01*
X92322609Y-124271640D01*
X92242406Y-124290895D01*
X92237835Y-124292788D01*
X92237833Y-124292789D01*
X92027611Y-124379865D01*
X92027607Y-124379867D01*
X92023037Y-124381760D01*
X92018817Y-124384346D01*
X91824798Y-124503241D01*
X91824792Y-124503245D01*
X91820584Y-124505824D01*
X91640031Y-124660031D01*
X91485824Y-124840584D01*
X91483245Y-124844792D01*
X91483241Y-124844798D01*
X91371236Y-125027573D01*
X91361760Y-125043037D01*
X91359867Y-125047607D01*
X91359865Y-125047611D01*
X91328264Y-125123904D01*
X91270895Y-125262406D01*
X91215465Y-125493289D01*
X91196835Y-125730000D01*
X87723165Y-125730000D01*
X87704535Y-125493289D01*
X87649105Y-125262406D01*
X87591736Y-125123904D01*
X87560135Y-125047611D01*
X87560133Y-125047607D01*
X87558240Y-125043037D01*
X87548764Y-125027573D01*
X87436759Y-124844798D01*
X87436755Y-124844792D01*
X87434176Y-124840584D01*
X87279969Y-124660031D01*
X87099416Y-124505824D01*
X87095208Y-124503245D01*
X87095202Y-124503241D01*
X86901183Y-124384346D01*
X86896963Y-124381760D01*
X86892393Y-124379867D01*
X86892389Y-124379865D01*
X86682167Y-124292789D01*
X86682165Y-124292788D01*
X86677594Y-124290895D01*
X86597391Y-124271640D01*
X86451524Y-124236620D01*
X86451518Y-124236619D01*
X86446711Y-124235465D01*
X86210000Y-124216835D01*
X85973289Y-124235465D01*
X85968482Y-124236619D01*
X85968476Y-124236620D01*
X85822609Y-124271640D01*
X85742406Y-124290895D01*
X85737835Y-124292788D01*
X85737833Y-124292789D01*
X85527611Y-124379865D01*
X85527607Y-124379867D01*
X85523037Y-124381760D01*
X85518817Y-124384346D01*
X85324798Y-124503241D01*
X85324792Y-124503245D01*
X85320584Y-124505824D01*
X85140031Y-124660031D01*
X84985824Y-124840584D01*
X84983245Y-124844792D01*
X84983241Y-124844798D01*
X84871236Y-125027573D01*
X84861760Y-125043037D01*
X84859867Y-125047607D01*
X84859865Y-125047611D01*
X84828264Y-125123904D01*
X84770895Y-125262406D01*
X84715465Y-125493289D01*
X84696835Y-125730000D01*
X70358500Y-125730000D01*
X70358500Y-118089943D01*
X73021780Y-118089943D01*
X73022526Y-118097835D01*
X73025941Y-118133961D01*
X73026500Y-118145819D01*
X73026500Y-121841233D01*
X73025973Y-121852416D01*
X73024298Y-121859909D01*
X73024547Y-121867835D01*
X73024547Y-121867836D01*
X73026438Y-121927986D01*
X73026500Y-121931945D01*
X73026500Y-121959856D01*
X73026997Y-121963790D01*
X73026997Y-121963791D01*
X73027005Y-121963856D01*
X73027938Y-121975693D01*
X73029327Y-122019889D01*
X73034978Y-122039339D01*
X73038987Y-122058700D01*
X73041526Y-122078797D01*
X73044445Y-122086168D01*
X73044445Y-122086170D01*
X73057804Y-122119912D01*
X73061649Y-122131142D01*
X73071771Y-122165983D01*
X73073982Y-122173593D01*
X73078015Y-122180412D01*
X73078017Y-122180417D01*
X73084293Y-122191028D01*
X73092988Y-122208776D01*
X73100448Y-122227617D01*
X73105110Y-122234033D01*
X73105110Y-122234034D01*
X73126436Y-122263387D01*
X73132952Y-122273307D01*
X73146661Y-122296487D01*
X73155458Y-122311362D01*
X73169779Y-122325683D01*
X73182619Y-122340716D01*
X73194528Y-122357107D01*
X73200634Y-122362158D01*
X73228605Y-122385298D01*
X73237384Y-122393288D01*
X74426343Y-123582247D01*
X74433887Y-123590537D01*
X74438000Y-123597018D01*
X74443777Y-123602443D01*
X74487667Y-123643658D01*
X74490509Y-123646413D01*
X74510230Y-123666134D01*
X74513425Y-123668612D01*
X74522447Y-123676318D01*
X74554679Y-123706586D01*
X74561628Y-123710406D01*
X74572432Y-123716346D01*
X74588956Y-123727199D01*
X74604959Y-123739613D01*
X74645543Y-123757176D01*
X74656173Y-123762383D01*
X74694940Y-123783695D01*
X74702617Y-123785666D01*
X74702622Y-123785668D01*
X74714558Y-123788732D01*
X74733266Y-123795137D01*
X74751855Y-123803181D01*
X74759683Y-123804421D01*
X74759690Y-123804423D01*
X74795524Y-123810099D01*
X74807144Y-123812505D01*
X74838959Y-123820673D01*
X74849970Y-123823500D01*
X74870224Y-123823500D01*
X74889934Y-123825051D01*
X74909943Y-123828220D01*
X74917835Y-123827474D01*
X74936580Y-123825702D01*
X74953962Y-123824059D01*
X74965819Y-123823500D01*
X87551233Y-123823500D01*
X87562416Y-123824027D01*
X87569909Y-123825702D01*
X87577835Y-123825453D01*
X87577836Y-123825453D01*
X87637986Y-123823562D01*
X87641945Y-123823500D01*
X87669856Y-123823500D01*
X87673791Y-123823003D01*
X87673856Y-123822995D01*
X87685693Y-123822062D01*
X87717951Y-123821048D01*
X87721970Y-123820922D01*
X87729889Y-123820673D01*
X87749343Y-123815021D01*
X87768700Y-123811013D01*
X87780930Y-123809468D01*
X87780931Y-123809468D01*
X87788797Y-123808474D01*
X87796168Y-123805555D01*
X87796170Y-123805555D01*
X87829912Y-123792196D01*
X87841142Y-123788351D01*
X87875983Y-123778229D01*
X87875984Y-123778229D01*
X87883593Y-123776018D01*
X87890412Y-123771985D01*
X87890417Y-123771983D01*
X87901028Y-123765707D01*
X87918776Y-123757012D01*
X87937617Y-123749552D01*
X87957987Y-123734753D01*
X87973387Y-123723564D01*
X87983307Y-123717048D01*
X88014535Y-123698580D01*
X88014538Y-123698578D01*
X88021362Y-123694542D01*
X88035683Y-123680221D01*
X88050717Y-123667380D01*
X88052432Y-123666134D01*
X88067107Y-123655472D01*
X88095298Y-123621395D01*
X88103288Y-123612616D01*
X88613780Y-123102124D01*
X93872665Y-123102124D01*
X93887932Y-123366889D01*
X93889005Y-123375390D01*
X93940065Y-123635642D01*
X93942276Y-123643894D01*
X94028184Y-123894814D01*
X94031499Y-123902699D01*
X94150664Y-124139633D01*
X94155020Y-124146999D01*
X94284347Y-124335170D01*
X94294601Y-124343514D01*
X94308342Y-124336368D01*
X95512978Y-123131732D01*
X95519356Y-123120052D01*
X96249408Y-123120052D01*
X96249539Y-123121885D01*
X96253790Y-123128500D01*
X97460730Y-124335440D01*
X97472939Y-124342107D01*
X97484439Y-124333417D01*
X97547085Y-124248134D01*
X102631500Y-124248134D01*
X102638255Y-124310316D01*
X102689385Y-124446705D01*
X102776739Y-124563261D01*
X102893295Y-124650615D01*
X103029684Y-124701745D01*
X103091866Y-124708500D01*
X105188134Y-124708500D01*
X105250316Y-124701745D01*
X105386705Y-124650615D01*
X105503261Y-124563261D01*
X105590615Y-124446705D01*
X105641745Y-124310316D01*
X105648500Y-124248134D01*
X105648500Y-122151866D01*
X105641745Y-122089684D01*
X105590615Y-121953295D01*
X105503261Y-121836739D01*
X105386705Y-121749385D01*
X105250316Y-121698255D01*
X105188134Y-121691500D01*
X103091866Y-121691500D01*
X103029684Y-121698255D01*
X102893295Y-121749385D01*
X102776739Y-121836739D01*
X102689385Y-121953295D01*
X102638255Y-122089684D01*
X102631500Y-122151866D01*
X102631500Y-124248134D01*
X97547085Y-124248134D01*
X97581831Y-124200833D01*
X97586418Y-124193605D01*
X97712962Y-123960541D01*
X97716530Y-123952747D01*
X97810271Y-123704670D01*
X97812748Y-123696464D01*
X97871954Y-123437958D01*
X97873294Y-123429497D01*
X97897031Y-123163536D01*
X97897277Y-123158597D01*
X97897666Y-123121405D01*
X97897523Y-123116439D01*
X97879362Y-122850043D01*
X97878201Y-122841569D01*
X97824419Y-122581864D01*
X97822120Y-122573629D01*
X97733588Y-122323625D01*
X97730191Y-122315774D01*
X97608550Y-122080098D01*
X97604122Y-122072786D01*
X97485031Y-121903337D01*
X97474509Y-121894957D01*
X97461121Y-121902009D01*
X96257022Y-123106108D01*
X96249408Y-123120052D01*
X95519356Y-123120052D01*
X95520592Y-123117788D01*
X95520461Y-123115955D01*
X95516210Y-123109340D01*
X94308814Y-121901944D01*
X94296804Y-121895386D01*
X94285064Y-121904354D01*
X94176935Y-122054831D01*
X94172418Y-122062116D01*
X94048325Y-122296487D01*
X94044839Y-122304315D01*
X93953700Y-122553366D01*
X93951311Y-122561590D01*
X93894812Y-122820715D01*
X93893563Y-122829170D01*
X93872754Y-123093573D01*
X93872665Y-123102124D01*
X88613780Y-123102124D01*
X90562247Y-121153657D01*
X90570537Y-121146113D01*
X90577018Y-121142000D01*
X90623659Y-121092332D01*
X90626413Y-121089491D01*
X90646134Y-121069770D01*
X90648612Y-121066575D01*
X90656318Y-121057553D01*
X90681158Y-121031101D01*
X90686586Y-121025321D01*
X90696346Y-121007568D01*
X90707199Y-120991045D01*
X90714753Y-120981306D01*
X90719613Y-120975041D01*
X90737176Y-120934457D01*
X90742383Y-120923827D01*
X90763695Y-120885060D01*
X90765666Y-120877383D01*
X90765668Y-120877378D01*
X90768732Y-120865442D01*
X90775138Y-120846730D01*
X90778152Y-120839767D01*
X90783181Y-120828145D01*
X90790097Y-120784481D01*
X90792504Y-120772860D01*
X90801528Y-120737711D01*
X90801528Y-120737710D01*
X90803500Y-120730030D01*
X90803500Y-120709769D01*
X90805051Y-120690058D01*
X90806979Y-120677885D01*
X90808219Y-120670057D01*
X90804059Y-120626046D01*
X90803500Y-120614189D01*
X90803500Y-119059594D01*
X90823502Y-118991473D01*
X90840405Y-118970499D01*
X91020499Y-118790405D01*
X91082811Y-118756379D01*
X91109594Y-118753500D01*
X91500606Y-118753500D01*
X91568727Y-118773502D01*
X91603819Y-118807229D01*
X91664347Y-118893671D01*
X91713802Y-118964300D01*
X91875700Y-119126198D01*
X91880208Y-119129355D01*
X91880211Y-119129357D01*
X91924815Y-119160589D01*
X92063251Y-119257523D01*
X92068233Y-119259846D01*
X92068238Y-119259849D01*
X92102457Y-119275805D01*
X92155742Y-119322722D01*
X92175203Y-119390999D01*
X92154661Y-119458959D01*
X92102457Y-119504195D01*
X92068238Y-119520151D01*
X92068233Y-119520154D01*
X92063251Y-119522477D01*
X91958389Y-119595902D01*
X91880211Y-119650643D01*
X91880208Y-119650645D01*
X91875700Y-119653802D01*
X91713802Y-119815700D01*
X91582477Y-120003251D01*
X91580154Y-120008233D01*
X91580151Y-120008238D01*
X91555312Y-120061507D01*
X91485716Y-120210757D01*
X91484294Y-120216065D01*
X91484293Y-120216067D01*
X91452316Y-120335405D01*
X91426457Y-120431913D01*
X91406502Y-120660000D01*
X91426457Y-120888087D01*
X91427881Y-120893400D01*
X91427881Y-120893402D01*
X91474285Y-121066581D01*
X91485716Y-121109243D01*
X91488039Y-121114224D01*
X91488039Y-121114225D01*
X91580151Y-121311762D01*
X91580154Y-121311767D01*
X91582477Y-121316749D01*
X91636467Y-121393855D01*
X91697512Y-121481035D01*
X91713802Y-121504300D01*
X91875700Y-121666198D01*
X91880208Y-121669355D01*
X91880211Y-121669357D01*
X91958389Y-121724098D01*
X92063251Y-121797523D01*
X92068233Y-121799846D01*
X92068238Y-121799849D01*
X92249091Y-121884181D01*
X92270757Y-121894284D01*
X92276065Y-121895706D01*
X92276067Y-121895707D01*
X92486598Y-121952119D01*
X92486600Y-121952119D01*
X92491913Y-121953543D01*
X92720000Y-121973498D01*
X92948087Y-121953543D01*
X92953400Y-121952119D01*
X92953402Y-121952119D01*
X93163933Y-121895707D01*
X93163935Y-121895706D01*
X93169243Y-121894284D01*
X93190909Y-121884181D01*
X93371762Y-121799849D01*
X93371767Y-121799846D01*
X93376749Y-121797523D01*
X93481611Y-121724098D01*
X93559789Y-121669357D01*
X93559792Y-121669355D01*
X93564300Y-121666198D01*
X93699078Y-121531420D01*
X94661584Y-121531420D01*
X94667980Y-121542690D01*
X95872188Y-122746898D01*
X95886132Y-122754512D01*
X95887965Y-122754381D01*
X95894580Y-122750130D01*
X97101604Y-121543106D01*
X97108795Y-121529937D01*
X97101473Y-121519700D01*
X97054233Y-121481035D01*
X97047261Y-121476080D01*
X96821122Y-121337502D01*
X96813552Y-121333544D01*
X96570704Y-121226942D01*
X96562644Y-121224040D01*
X96307592Y-121151387D01*
X96299214Y-121149605D01*
X96036656Y-121112238D01*
X96028111Y-121111611D01*
X95762908Y-121110222D01*
X95754374Y-121110759D01*
X95491433Y-121145376D01*
X95483035Y-121147069D01*
X95227238Y-121217047D01*
X95219143Y-121219866D01*
X94975199Y-121323917D01*
X94967577Y-121327801D01*
X94740013Y-121463995D01*
X94732981Y-121468882D01*
X94670053Y-121519297D01*
X94661584Y-121531420D01*
X93699078Y-121531420D01*
X93726198Y-121504300D01*
X93742489Y-121481035D01*
X93803533Y-121393855D01*
X93857523Y-121316749D01*
X93859846Y-121311767D01*
X93859849Y-121311762D01*
X93951961Y-121114225D01*
X93951961Y-121114224D01*
X93954284Y-121109243D01*
X93965716Y-121066581D01*
X94012119Y-120893402D01*
X94012119Y-120893400D01*
X94013543Y-120888087D01*
X94033498Y-120660000D01*
X94013543Y-120431913D01*
X94011975Y-120426062D01*
X107228493Y-120426062D01*
X107237789Y-120438077D01*
X107288994Y-120473931D01*
X107298489Y-120479414D01*
X107495947Y-120571490D01*
X107506239Y-120575236D01*
X107716688Y-120631625D01*
X107727481Y-120633528D01*
X107944525Y-120652517D01*
X107955475Y-120652517D01*
X108172519Y-120633528D01*
X108183312Y-120631625D01*
X108393761Y-120575236D01*
X108404053Y-120571490D01*
X108601511Y-120479414D01*
X108611006Y-120473931D01*
X108663048Y-120437491D01*
X108671424Y-120427012D01*
X108664356Y-120413566D01*
X107962812Y-119712022D01*
X107948868Y-119704408D01*
X107947035Y-119704539D01*
X107940420Y-119708790D01*
X107234923Y-120414287D01*
X107228493Y-120426062D01*
X94011975Y-120426062D01*
X93987684Y-120335405D01*
X93955707Y-120216067D01*
X93955706Y-120216065D01*
X93954284Y-120210757D01*
X93884688Y-120061507D01*
X93859849Y-120008238D01*
X93859846Y-120008233D01*
X93857523Y-120003251D01*
X93726198Y-119815700D01*
X93564300Y-119653802D01*
X93559792Y-119650645D01*
X93559789Y-119650643D01*
X93481611Y-119595902D01*
X93376749Y-119522477D01*
X93371767Y-119520154D01*
X93371762Y-119520151D01*
X93337543Y-119504195D01*
X93284258Y-119457278D01*
X93264797Y-119389001D01*
X93277953Y-119345475D01*
X106637483Y-119345475D01*
X106656472Y-119562519D01*
X106658375Y-119573312D01*
X106714764Y-119783761D01*
X106718510Y-119794053D01*
X106810586Y-119991511D01*
X106816069Y-120001006D01*
X106852509Y-120053048D01*
X106862988Y-120061424D01*
X106876434Y-120054356D01*
X107577978Y-119352812D01*
X107584356Y-119341132D01*
X108314408Y-119341132D01*
X108314539Y-119342965D01*
X108318790Y-119349580D01*
X109024287Y-120055077D01*
X109036062Y-120061507D01*
X109048077Y-120052211D01*
X109083931Y-120001006D01*
X109089414Y-119991511D01*
X109181490Y-119794053D01*
X109185236Y-119783761D01*
X109241625Y-119573312D01*
X109243528Y-119562519D01*
X109262517Y-119345475D01*
X109262517Y-119334525D01*
X109243528Y-119117481D01*
X109241625Y-119106688D01*
X109185236Y-118896239D01*
X109181490Y-118885947D01*
X109089414Y-118688489D01*
X109083931Y-118678994D01*
X109047491Y-118626952D01*
X109037012Y-118618576D01*
X109023566Y-118625644D01*
X108322022Y-119327188D01*
X108314408Y-119341132D01*
X107584356Y-119341132D01*
X107585592Y-119338868D01*
X107585461Y-119337035D01*
X107581210Y-119330420D01*
X106875713Y-118624923D01*
X106863938Y-118618493D01*
X106851923Y-118627789D01*
X106816069Y-118678994D01*
X106810586Y-118688489D01*
X106718510Y-118885947D01*
X106714764Y-118896239D01*
X106658375Y-119106688D01*
X106656472Y-119117481D01*
X106637483Y-119334525D01*
X106637483Y-119345475D01*
X93277953Y-119345475D01*
X93285339Y-119321041D01*
X93337543Y-119275805D01*
X93371762Y-119259849D01*
X93371767Y-119259846D01*
X93376749Y-119257523D01*
X93515185Y-119160589D01*
X93559789Y-119129357D01*
X93559792Y-119129355D01*
X93564300Y-119126198D01*
X93726198Y-118964300D01*
X93857523Y-118776749D01*
X93859846Y-118771767D01*
X93859849Y-118771762D01*
X93951961Y-118574225D01*
X93951961Y-118574224D01*
X93954284Y-118569243D01*
X93970562Y-118508495D01*
X94012119Y-118353402D01*
X94012119Y-118353400D01*
X94013543Y-118348087D01*
X94033498Y-118120000D01*
X94013543Y-117891913D01*
X93998614Y-117836198D01*
X93955707Y-117676067D01*
X93955706Y-117676065D01*
X93954284Y-117670757D01*
X93944544Y-117649870D01*
X93859849Y-117468238D01*
X93859846Y-117468233D01*
X93857523Y-117463251D01*
X93759023Y-117322579D01*
X93729357Y-117280211D01*
X93729355Y-117280208D01*
X93726198Y-117275700D01*
X93564300Y-117113802D01*
X93559792Y-117110645D01*
X93559789Y-117110643D01*
X93481611Y-117055902D01*
X93376749Y-116982477D01*
X93371767Y-116980154D01*
X93371762Y-116980151D01*
X93337543Y-116964195D01*
X93284258Y-116917278D01*
X93264797Y-116849001D01*
X93285339Y-116781041D01*
X93337543Y-116735805D01*
X93371762Y-116719849D01*
X93371767Y-116719846D01*
X93376749Y-116717523D01*
X93515185Y-116620589D01*
X93559789Y-116589357D01*
X93559792Y-116589355D01*
X93564300Y-116586198D01*
X93726198Y-116424300D01*
X93857523Y-116236749D01*
X93859846Y-116231767D01*
X93859849Y-116231762D01*
X93951961Y-116034225D01*
X93951961Y-116034224D01*
X93954284Y-116029243D01*
X93959194Y-116010921D01*
X94012119Y-115813402D01*
X94012119Y-115813400D01*
X94013543Y-115808087D01*
X94033498Y-115580000D01*
X94013543Y-115351913D01*
X93972142Y-115197404D01*
X93955707Y-115136067D01*
X93955706Y-115136065D01*
X93954284Y-115130757D01*
X93878587Y-114968423D01*
X93859849Y-114928238D01*
X93859846Y-114928233D01*
X93857523Y-114923251D01*
X93726198Y-114735700D01*
X93564300Y-114573802D01*
X93559792Y-114570645D01*
X93559789Y-114570643D01*
X93480651Y-114515230D01*
X93376749Y-114442477D01*
X93371767Y-114440154D01*
X93371762Y-114440151D01*
X93337543Y-114424195D01*
X93284258Y-114377278D01*
X93264797Y-114309001D01*
X93285339Y-114241041D01*
X93337543Y-114195805D01*
X93371762Y-114179849D01*
X93371767Y-114179846D01*
X93376749Y-114177523D01*
X93518458Y-114078297D01*
X93559789Y-114049357D01*
X93559792Y-114049355D01*
X93564300Y-114046198D01*
X93726198Y-113884300D01*
X93857523Y-113696749D01*
X93859846Y-113691767D01*
X93859849Y-113691762D01*
X93951961Y-113494225D01*
X93951961Y-113494224D01*
X93954284Y-113489243D01*
X94013543Y-113268087D01*
X94033498Y-113040000D01*
X94013543Y-112811913D01*
X93998614Y-112756198D01*
X93955707Y-112596067D01*
X93955706Y-112596065D01*
X93954284Y-112590757D01*
X93894201Y-112461907D01*
X93859849Y-112388238D01*
X93859846Y-112388233D01*
X93857523Y-112383251D01*
X93726198Y-112195700D01*
X93564300Y-112033802D01*
X93559792Y-112030645D01*
X93559789Y-112030643D01*
X93447042Y-111951697D01*
X93376749Y-111902477D01*
X93371767Y-111900154D01*
X93371762Y-111900151D01*
X93174225Y-111808039D01*
X93174224Y-111808039D01*
X93169243Y-111805716D01*
X93163935Y-111804294D01*
X93163933Y-111804293D01*
X92953402Y-111747881D01*
X92953400Y-111747881D01*
X92948087Y-111746457D01*
X92720000Y-111726502D01*
X92491913Y-111746457D01*
X92486600Y-111747881D01*
X92486598Y-111747881D01*
X92276067Y-111804293D01*
X92276065Y-111804294D01*
X92270757Y-111805716D01*
X92265776Y-111808039D01*
X92265775Y-111808039D01*
X92068238Y-111900151D01*
X92068233Y-111900154D01*
X92063251Y-111902477D01*
X91992958Y-111951697D01*
X91880211Y-112030643D01*
X91880208Y-112030645D01*
X91875700Y-112033802D01*
X91713802Y-112195700D01*
X91582477Y-112383251D01*
X91580154Y-112388233D01*
X91580151Y-112388238D01*
X91545799Y-112461907D01*
X91485716Y-112590757D01*
X91484294Y-112596065D01*
X91484293Y-112596067D01*
X91441386Y-112756198D01*
X91426457Y-112811913D01*
X91406502Y-113040000D01*
X91426457Y-113268087D01*
X91485716Y-113489243D01*
X91488039Y-113494224D01*
X91488039Y-113494225D01*
X91580151Y-113691762D01*
X91580154Y-113691767D01*
X91582477Y-113696749D01*
X91713802Y-113884300D01*
X91875700Y-114046198D01*
X91880208Y-114049355D01*
X91880211Y-114049357D01*
X91921542Y-114078297D01*
X92063251Y-114177523D01*
X92068233Y-114179846D01*
X92068238Y-114179849D01*
X92102457Y-114195805D01*
X92155742Y-114242722D01*
X92175203Y-114310999D01*
X92154661Y-114378959D01*
X92102457Y-114424195D01*
X92068238Y-114440151D01*
X92068233Y-114440154D01*
X92063251Y-114442477D01*
X91959349Y-114515230D01*
X91880211Y-114570643D01*
X91880208Y-114570645D01*
X91875700Y-114573802D01*
X91713802Y-114735700D01*
X91582477Y-114923251D01*
X91580154Y-114928233D01*
X91580151Y-114928238D01*
X91561413Y-114968423D01*
X91485716Y-115130757D01*
X91484294Y-115136065D01*
X91484293Y-115136067D01*
X91467858Y-115197404D01*
X91426457Y-115351913D01*
X91406502Y-115580000D01*
X91426457Y-115808087D01*
X91427881Y-115813400D01*
X91427881Y-115813402D01*
X91480807Y-116010921D01*
X91485716Y-116029243D01*
X91488039Y-116034224D01*
X91488039Y-116034225D01*
X91580151Y-116231762D01*
X91580154Y-116231767D01*
X91582477Y-116236749D01*
X91713802Y-116424300D01*
X91875700Y-116586198D01*
X91880208Y-116589355D01*
X91880211Y-116589357D01*
X91924815Y-116620589D01*
X92063251Y-116717523D01*
X92068233Y-116719846D01*
X92068238Y-116719849D01*
X92102457Y-116735805D01*
X92155742Y-116782722D01*
X92175203Y-116850999D01*
X92154661Y-116918959D01*
X92102457Y-116964195D01*
X92068238Y-116980151D01*
X92068233Y-116980154D01*
X92063251Y-116982477D01*
X91958389Y-117055902D01*
X91880211Y-117110643D01*
X91880208Y-117110645D01*
X91875700Y-117113802D01*
X91713802Y-117275700D01*
X91710645Y-117280208D01*
X91710643Y-117280211D01*
X91603819Y-117432771D01*
X91548362Y-117477099D01*
X91500606Y-117486500D01*
X90873763Y-117486500D01*
X90862579Y-117485973D01*
X90855091Y-117484299D01*
X90847168Y-117484548D01*
X90787033Y-117486438D01*
X90783075Y-117486500D01*
X90755144Y-117486500D01*
X90751229Y-117486995D01*
X90751225Y-117486995D01*
X90751167Y-117487003D01*
X90751138Y-117487006D01*
X90739296Y-117487939D01*
X90695110Y-117489327D01*
X90677744Y-117494372D01*
X90675658Y-117494978D01*
X90656306Y-117498986D01*
X90644068Y-117500532D01*
X90644066Y-117500533D01*
X90636203Y-117501526D01*
X90595086Y-117517806D01*
X90583885Y-117521641D01*
X90541406Y-117533982D01*
X90534587Y-117538015D01*
X90534582Y-117538017D01*
X90523971Y-117544293D01*
X90506221Y-117552990D01*
X90487383Y-117560448D01*
X90480967Y-117565109D01*
X90480966Y-117565110D01*
X90451625Y-117586428D01*
X90441701Y-117592947D01*
X90410460Y-117611422D01*
X90410455Y-117611426D01*
X90403637Y-117615458D01*
X90389313Y-117629782D01*
X90374281Y-117642621D01*
X90357893Y-117654528D01*
X90330677Y-117687426D01*
X90329712Y-117688593D01*
X90321722Y-117697373D01*
X89777747Y-118241348D01*
X89769461Y-118248888D01*
X89762982Y-118253000D01*
X89757557Y-118258777D01*
X89716357Y-118302651D01*
X89713602Y-118305493D01*
X89693865Y-118325230D01*
X89691385Y-118328427D01*
X89683682Y-118337447D01*
X89653414Y-118369679D01*
X89649595Y-118376625D01*
X89649593Y-118376628D01*
X89643652Y-118387434D01*
X89632801Y-118403953D01*
X89620386Y-118419959D01*
X89617241Y-118427228D01*
X89617238Y-118427232D01*
X89602826Y-118460537D01*
X89597609Y-118471187D01*
X89576305Y-118509940D01*
X89574334Y-118517615D01*
X89574334Y-118517616D01*
X89571267Y-118529562D01*
X89564863Y-118548266D01*
X89556819Y-118566855D01*
X89555580Y-118574678D01*
X89555577Y-118574688D01*
X89549901Y-118610524D01*
X89547495Y-118622144D01*
X89539123Y-118654753D01*
X89536500Y-118664970D01*
X89536500Y-118685224D01*
X89534949Y-118704934D01*
X89531780Y-118724943D01*
X89532526Y-118732835D01*
X89535941Y-118768961D01*
X89536500Y-118780819D01*
X89536500Y-120335405D01*
X89516498Y-120403526D01*
X89499595Y-120424500D01*
X87404500Y-122519595D01*
X87342188Y-122553621D01*
X87315405Y-122556500D01*
X83113594Y-122556500D01*
X83045473Y-122536498D01*
X82998980Y-122482842D01*
X82988876Y-122412568D01*
X83018370Y-122347988D01*
X83021892Y-122344206D01*
X83023338Y-122342566D01*
X83026135Y-122339769D01*
X83028612Y-122336576D01*
X83036317Y-122327555D01*
X83051523Y-122311362D01*
X83066586Y-122295321D01*
X83070407Y-122288371D01*
X83076346Y-122277568D01*
X83087202Y-122261041D01*
X83094757Y-122251302D01*
X83094758Y-122251300D01*
X83099614Y-122245040D01*
X83117174Y-122204460D01*
X83122391Y-122193812D01*
X83139875Y-122162009D01*
X83139876Y-122162007D01*
X83143695Y-122155060D01*
X83148733Y-122135437D01*
X83155137Y-122116734D01*
X83160033Y-122105420D01*
X83160033Y-122105419D01*
X83163181Y-122098145D01*
X83164420Y-122090322D01*
X83164423Y-122090312D01*
X83170099Y-122054476D01*
X83172505Y-122042856D01*
X83181528Y-122007711D01*
X83181528Y-122007710D01*
X83183500Y-122000030D01*
X83183500Y-121979776D01*
X83185051Y-121960065D01*
X83186980Y-121947886D01*
X83188220Y-121940057D01*
X83184059Y-121896038D01*
X83183500Y-121884181D01*
X83183500Y-120926522D01*
X83817273Y-120926522D01*
X83864764Y-121103761D01*
X83868510Y-121114053D01*
X83960586Y-121311511D01*
X83966069Y-121321007D01*
X84091028Y-121499467D01*
X84098084Y-121507875D01*
X84252125Y-121661916D01*
X84260533Y-121668972D01*
X84438993Y-121793931D01*
X84448489Y-121799414D01*
X84645947Y-121891490D01*
X84656239Y-121895236D01*
X84828503Y-121941394D01*
X84842599Y-121941058D01*
X84846000Y-121933116D01*
X84846000Y-121927967D01*
X85354000Y-121927967D01*
X85357973Y-121941498D01*
X85366522Y-121942727D01*
X85543761Y-121895236D01*
X85554053Y-121891490D01*
X85751511Y-121799414D01*
X85761007Y-121793931D01*
X85939467Y-121668972D01*
X85947875Y-121661916D01*
X86101916Y-121507875D01*
X86108972Y-121499467D01*
X86233931Y-121321007D01*
X86239414Y-121311511D01*
X86331490Y-121114053D01*
X86335236Y-121103761D01*
X86381394Y-120931497D01*
X86381058Y-120917401D01*
X86373116Y-120914000D01*
X85372115Y-120914000D01*
X85356876Y-120918475D01*
X85355671Y-120919865D01*
X85354000Y-120927548D01*
X85354000Y-121927967D01*
X84846000Y-121927967D01*
X84846000Y-120932115D01*
X84841525Y-120916876D01*
X84840135Y-120915671D01*
X84832452Y-120914000D01*
X83832033Y-120914000D01*
X83818502Y-120917973D01*
X83817273Y-120926522D01*
X83183500Y-120926522D01*
X83183500Y-115249594D01*
X83203502Y-115181473D01*
X83220405Y-115160499D01*
X84022838Y-114358066D01*
X84085150Y-114324040D01*
X84156161Y-114329178D01*
X84182286Y-114338972D01*
X84182289Y-114338973D01*
X84189684Y-114341745D01*
X84200474Y-114342917D01*
X84202606Y-114343803D01*
X84205222Y-114344425D01*
X84205121Y-114344848D01*
X84266035Y-114370155D01*
X84306463Y-114428517D01*
X84308922Y-114499471D01*
X84272629Y-114560490D01*
X84263969Y-114567489D01*
X84260207Y-114570646D01*
X84255700Y-114573802D01*
X84093802Y-114735700D01*
X83962477Y-114923251D01*
X83960154Y-114928233D01*
X83960151Y-114928238D01*
X83941413Y-114968423D01*
X83865716Y-115130757D01*
X83864294Y-115136065D01*
X83864293Y-115136067D01*
X83847858Y-115197404D01*
X83806457Y-115351913D01*
X83786502Y-115580000D01*
X83806457Y-115808087D01*
X83807881Y-115813400D01*
X83807881Y-115813402D01*
X83860807Y-116010921D01*
X83865716Y-116029243D01*
X83868039Y-116034224D01*
X83868039Y-116034225D01*
X83960151Y-116231762D01*
X83960154Y-116231767D01*
X83962477Y-116236749D01*
X84093802Y-116424300D01*
X84255700Y-116586198D01*
X84260208Y-116589355D01*
X84260211Y-116589357D01*
X84304815Y-116620589D01*
X84443251Y-116717523D01*
X84448233Y-116719846D01*
X84448238Y-116719849D01*
X84482457Y-116735805D01*
X84535742Y-116782722D01*
X84555203Y-116850999D01*
X84534661Y-116918959D01*
X84482457Y-116964195D01*
X84448238Y-116980151D01*
X84448233Y-116980154D01*
X84443251Y-116982477D01*
X84338389Y-117055902D01*
X84260211Y-117110643D01*
X84260208Y-117110645D01*
X84255700Y-117113802D01*
X84093802Y-117275700D01*
X84090645Y-117280208D01*
X84090643Y-117280211D01*
X84060977Y-117322579D01*
X83962477Y-117463251D01*
X83960154Y-117468233D01*
X83960151Y-117468238D01*
X83875456Y-117649870D01*
X83865716Y-117670757D01*
X83864294Y-117676065D01*
X83864293Y-117676067D01*
X83821386Y-117836198D01*
X83806457Y-117891913D01*
X83786502Y-118120000D01*
X83806457Y-118348087D01*
X83807881Y-118353400D01*
X83807881Y-118353402D01*
X83849439Y-118508495D01*
X83865716Y-118569243D01*
X83868039Y-118574224D01*
X83868039Y-118574225D01*
X83960151Y-118771762D01*
X83960154Y-118771767D01*
X83962477Y-118776749D01*
X84093802Y-118964300D01*
X84255700Y-119126198D01*
X84260208Y-119129355D01*
X84260211Y-119129357D01*
X84304815Y-119160589D01*
X84443251Y-119257523D01*
X84448233Y-119259846D01*
X84448238Y-119259849D01*
X84483049Y-119276081D01*
X84536334Y-119322998D01*
X84555795Y-119391275D01*
X84535253Y-119459235D01*
X84483049Y-119504471D01*
X84448489Y-119520586D01*
X84438993Y-119526069D01*
X84260533Y-119651028D01*
X84252125Y-119658084D01*
X84098084Y-119812125D01*
X84091028Y-119820533D01*
X83966069Y-119998993D01*
X83960586Y-120008489D01*
X83868510Y-120205947D01*
X83864764Y-120216239D01*
X83818606Y-120388503D01*
X83818942Y-120402599D01*
X83826884Y-120406000D01*
X86367967Y-120406000D01*
X86381498Y-120402027D01*
X86382727Y-120393478D01*
X86335236Y-120216239D01*
X86331490Y-120205947D01*
X86239414Y-120008489D01*
X86233931Y-119998993D01*
X86108972Y-119820533D01*
X86101916Y-119812125D01*
X85947875Y-119658084D01*
X85939467Y-119651028D01*
X85761007Y-119526069D01*
X85751511Y-119520586D01*
X85716951Y-119504471D01*
X85663666Y-119457554D01*
X85644205Y-119389277D01*
X85664747Y-119321317D01*
X85716951Y-119276081D01*
X85751762Y-119259849D01*
X85751767Y-119259846D01*
X85756749Y-119257523D01*
X85895185Y-119160589D01*
X85939789Y-119129357D01*
X85939792Y-119129355D01*
X85944300Y-119126198D01*
X86106198Y-118964300D01*
X86237523Y-118776749D01*
X86239846Y-118771767D01*
X86239849Y-118771762D01*
X86331961Y-118574225D01*
X86331961Y-118574224D01*
X86334284Y-118569243D01*
X86350562Y-118508495D01*
X86392119Y-118353402D01*
X86392119Y-118353400D01*
X86393543Y-118348087D01*
X86413498Y-118120000D01*
X86393543Y-117891913D01*
X86378614Y-117836198D01*
X86335707Y-117676067D01*
X86335706Y-117676065D01*
X86334284Y-117670757D01*
X86324544Y-117649870D01*
X86239849Y-117468238D01*
X86239846Y-117468233D01*
X86237523Y-117463251D01*
X86139023Y-117322579D01*
X86109357Y-117280211D01*
X86109355Y-117280208D01*
X86106198Y-117275700D01*
X85944300Y-117113802D01*
X85939792Y-117110645D01*
X85939789Y-117110643D01*
X85861611Y-117055902D01*
X85756749Y-116982477D01*
X85751767Y-116980154D01*
X85751762Y-116980151D01*
X85717543Y-116964195D01*
X85664258Y-116917278D01*
X85644797Y-116849001D01*
X85665339Y-116781041D01*
X85717543Y-116735805D01*
X85751762Y-116719849D01*
X85751767Y-116719846D01*
X85756749Y-116717523D01*
X85895185Y-116620589D01*
X85939789Y-116589357D01*
X85939792Y-116589355D01*
X85944300Y-116586198D01*
X86106198Y-116424300D01*
X86237523Y-116236749D01*
X86239846Y-116231767D01*
X86239849Y-116231762D01*
X86331961Y-116034225D01*
X86331961Y-116034224D01*
X86334284Y-116029243D01*
X86339194Y-116010921D01*
X86392119Y-115813402D01*
X86392119Y-115813400D01*
X86393543Y-115808087D01*
X86413498Y-115580000D01*
X86393543Y-115351913D01*
X86352142Y-115197404D01*
X86335707Y-115136067D01*
X86335706Y-115136065D01*
X86334284Y-115130757D01*
X86258587Y-114968423D01*
X86239849Y-114928238D01*
X86239846Y-114928233D01*
X86237523Y-114923251D01*
X86106198Y-114735700D01*
X85944300Y-114573802D01*
X85939789Y-114570643D01*
X85935576Y-114567108D01*
X85936527Y-114565974D01*
X85896529Y-114515929D01*
X85889224Y-114445310D01*
X85921258Y-114381951D01*
X85982462Y-114345970D01*
X85999517Y-114342918D01*
X86010316Y-114341745D01*
X86146705Y-114290615D01*
X86263261Y-114203261D01*
X86350615Y-114086705D01*
X86401745Y-113950316D01*
X86408500Y-113888134D01*
X86408500Y-112191866D01*
X86401745Y-112129684D01*
X86350615Y-111993295D01*
X86263261Y-111876739D01*
X86146705Y-111789385D01*
X86010316Y-111738255D01*
X85948134Y-111731500D01*
X84251866Y-111731500D01*
X84189684Y-111738255D01*
X84053295Y-111789385D01*
X83936739Y-111876739D01*
X83849385Y-111993295D01*
X83798255Y-112129684D01*
X83791500Y-112191866D01*
X83791500Y-112745406D01*
X83771498Y-112813527D01*
X83754595Y-112834501D01*
X82157747Y-114431348D01*
X82149461Y-114438888D01*
X82142982Y-114443000D01*
X82137557Y-114448777D01*
X82131351Y-114455386D01*
X82070138Y-114491352D01*
X81999198Y-114488515D01*
X81941054Y-114447775D01*
X81914165Y-114382067D01*
X81913500Y-114369134D01*
X81913500Y-113344594D01*
X81933502Y-113276473D01*
X81950405Y-113255499D01*
X84045499Y-111160405D01*
X84107811Y-111126379D01*
X84134594Y-111123500D01*
X93665406Y-111123500D01*
X93733527Y-111143502D01*
X93754501Y-111160405D01*
X95214595Y-112620500D01*
X95248621Y-112682812D01*
X95251500Y-112709595D01*
X95251500Y-114472685D01*
X95231498Y-114540806D01*
X95197770Y-114575898D01*
X95105224Y-114640699D01*
X94955699Y-114790224D01*
X94834411Y-114963442D01*
X94832090Y-114968420D01*
X94832088Y-114968423D01*
X94747367Y-115150108D01*
X94745044Y-115155090D01*
X94743622Y-115160398D01*
X94743621Y-115160400D01*
X94692542Y-115351031D01*
X94690314Y-115359345D01*
X94671884Y-115570000D01*
X94690314Y-115780655D01*
X94691738Y-115785968D01*
X94691738Y-115785970D01*
X94728264Y-115922285D01*
X94745044Y-115984910D01*
X94747366Y-115989891D01*
X94747367Y-115989892D01*
X94828693Y-116164295D01*
X94834411Y-116176558D01*
X94955699Y-116349776D01*
X95105224Y-116499301D01*
X95278442Y-116620589D01*
X95283420Y-116622910D01*
X95283423Y-116622912D01*
X95465108Y-116707633D01*
X95470090Y-116709956D01*
X95475398Y-116711378D01*
X95475400Y-116711379D01*
X95501204Y-116718293D01*
X95561827Y-116755245D01*
X95592848Y-116819106D01*
X95584420Y-116889600D01*
X95539217Y-116944347D01*
X95501204Y-116961707D01*
X95475400Y-116968621D01*
X95475398Y-116968622D01*
X95470090Y-116970044D01*
X95465109Y-116972366D01*
X95465108Y-116972367D01*
X95283423Y-117057088D01*
X95283420Y-117057090D01*
X95278442Y-117059411D01*
X95105224Y-117180699D01*
X94955699Y-117330224D01*
X94834411Y-117503442D01*
X94832090Y-117508420D01*
X94832088Y-117508423D01*
X94747367Y-117690108D01*
X94745044Y-117695090D01*
X94743622Y-117700398D01*
X94743621Y-117700400D01*
X94693701Y-117886705D01*
X94690314Y-117899345D01*
X94671884Y-118110000D01*
X94690314Y-118320655D01*
X94691738Y-118325968D01*
X94691738Y-118325970D01*
X94743090Y-118517616D01*
X94745044Y-118524910D01*
X94747366Y-118529891D01*
X94747367Y-118529892D01*
X94830762Y-118708732D01*
X94834411Y-118716558D01*
X94955699Y-118889776D01*
X95105224Y-119039301D01*
X95278442Y-119160589D01*
X95283420Y-119162910D01*
X95283423Y-119162912D01*
X95402261Y-119218327D01*
X95470090Y-119249956D01*
X95475398Y-119251378D01*
X95475400Y-119251379D01*
X95669030Y-119303262D01*
X95669032Y-119303262D01*
X95674345Y-119304686D01*
X95885000Y-119323116D01*
X96095655Y-119304686D01*
X96100968Y-119303262D01*
X96100970Y-119303262D01*
X96294600Y-119251379D01*
X96294602Y-119251378D01*
X96299910Y-119249956D01*
X96367739Y-119218327D01*
X96486577Y-119162912D01*
X96486580Y-119162910D01*
X96491558Y-119160589D01*
X96664776Y-119039301D01*
X96814301Y-118889776D01*
X96935589Y-118716558D01*
X96939239Y-118708732D01*
X97022633Y-118529892D01*
X97022634Y-118529891D01*
X97024956Y-118524910D01*
X97026911Y-118517616D01*
X97078262Y-118325970D01*
X97078262Y-118325968D01*
X97079686Y-118320655D01*
X97098116Y-118110000D01*
X97079686Y-117899345D01*
X97076299Y-117886705D01*
X97026379Y-117700400D01*
X97026378Y-117700398D01*
X97024956Y-117695090D01*
X97022633Y-117690108D01*
X96937912Y-117508423D01*
X96937910Y-117508420D01*
X96935589Y-117503442D01*
X96814301Y-117330224D01*
X96664776Y-117180699D01*
X96491558Y-117059411D01*
X96486580Y-117057090D01*
X96486577Y-117057088D01*
X96304892Y-116972367D01*
X96304891Y-116972366D01*
X96299910Y-116970044D01*
X96294602Y-116968622D01*
X96294600Y-116968621D01*
X96268796Y-116961707D01*
X96208173Y-116924755D01*
X96177152Y-116860894D01*
X96185580Y-116790400D01*
X96230783Y-116735653D01*
X96268796Y-116718293D01*
X96294600Y-116711379D01*
X96294602Y-116711378D01*
X96299910Y-116709956D01*
X96304892Y-116707633D01*
X96486577Y-116622912D01*
X96486580Y-116622910D01*
X96491558Y-116620589D01*
X96664776Y-116499301D01*
X96814301Y-116349776D01*
X96935589Y-116176558D01*
X96941308Y-116164295D01*
X97022633Y-115989892D01*
X97022634Y-115989891D01*
X97024956Y-115984910D01*
X97041737Y-115922285D01*
X97078262Y-115785970D01*
X97078262Y-115785968D01*
X97079686Y-115780655D01*
X97098116Y-115570000D01*
X97079686Y-115359345D01*
X97077458Y-115351031D01*
X97026379Y-115160400D01*
X97026378Y-115160398D01*
X97024956Y-115155090D01*
X97022633Y-115150108D01*
X96937912Y-114968423D01*
X96937910Y-114968420D01*
X96935589Y-114963442D01*
X96814301Y-114790224D01*
X96664776Y-114640699D01*
X96572230Y-114575898D01*
X96527901Y-114520441D01*
X96518500Y-114472685D01*
X96518500Y-112473767D01*
X96519027Y-112462584D01*
X96520702Y-112455091D01*
X96518562Y-112387000D01*
X96518500Y-112383043D01*
X96518500Y-112355144D01*
X96517996Y-112351153D01*
X96517063Y-112339311D01*
X96515923Y-112303036D01*
X96515674Y-112295111D01*
X96513462Y-112287497D01*
X96513461Y-112287492D01*
X96510023Y-112275659D01*
X96506012Y-112256295D01*
X96504467Y-112244064D01*
X96503474Y-112236203D01*
X96500557Y-112228836D01*
X96500556Y-112228831D01*
X96487198Y-112195092D01*
X96483354Y-112183865D01*
X96473230Y-112149022D01*
X96471018Y-112141407D01*
X96460707Y-112123972D01*
X96452012Y-112106224D01*
X96444552Y-112087383D01*
X96418564Y-112051613D01*
X96412048Y-112041693D01*
X96393580Y-112010465D01*
X96393578Y-112010462D01*
X96389542Y-112003638D01*
X96375221Y-111989317D01*
X96362380Y-111974283D01*
X96355131Y-111964306D01*
X96350472Y-111957893D01*
X96316395Y-111929702D01*
X96307616Y-111921712D01*
X96106373Y-111720469D01*
X98917095Y-111720469D01*
X98917392Y-111725622D01*
X98917392Y-111725625D01*
X98923067Y-111824041D01*
X98930427Y-111951697D01*
X98931564Y-111956743D01*
X98931565Y-111956749D01*
X98959559Y-112080966D01*
X98981346Y-112177642D01*
X98983288Y-112182424D01*
X98983289Y-112182428D01*
X99064835Y-112383251D01*
X99068484Y-112392237D01*
X99189501Y-112589719D01*
X99341147Y-112764784D01*
X99519349Y-112912730D01*
X99632073Y-112978600D01*
X99634070Y-112979767D01*
X99682794Y-113031405D01*
X99696500Y-113088555D01*
X99696500Y-116761233D01*
X99695973Y-116772416D01*
X99694298Y-116779909D01*
X99694547Y-116787835D01*
X99694547Y-116787836D01*
X99696438Y-116847986D01*
X99696500Y-116851945D01*
X99696500Y-116879856D01*
X99696997Y-116883790D01*
X99696997Y-116883791D01*
X99697005Y-116883856D01*
X99697938Y-116895693D01*
X99699327Y-116939889D01*
X99704978Y-116959339D01*
X99708987Y-116978700D01*
X99711526Y-116998797D01*
X99714445Y-117006168D01*
X99714445Y-117006170D01*
X99727804Y-117039912D01*
X99731649Y-117051142D01*
X99734051Y-117059411D01*
X99743982Y-117093593D01*
X99748015Y-117100412D01*
X99748017Y-117100417D01*
X99754293Y-117111028D01*
X99762988Y-117128776D01*
X99770448Y-117147617D01*
X99775110Y-117154033D01*
X99775110Y-117154034D01*
X99796436Y-117183387D01*
X99802952Y-117193307D01*
X99825458Y-117231362D01*
X99839779Y-117245683D01*
X99852619Y-117260716D01*
X99864528Y-117277107D01*
X99870634Y-117282158D01*
X99898605Y-117305298D01*
X99907384Y-117313288D01*
X101096343Y-118502247D01*
X101103887Y-118510537D01*
X101108000Y-118517018D01*
X101113777Y-118522443D01*
X101157667Y-118563658D01*
X101160509Y-118566413D01*
X101180230Y-118586134D01*
X101183425Y-118588612D01*
X101192447Y-118596318D01*
X101224679Y-118626586D01*
X101231628Y-118630406D01*
X101242432Y-118636346D01*
X101258956Y-118647199D01*
X101274959Y-118659613D01*
X101315543Y-118677176D01*
X101326173Y-118682383D01*
X101364940Y-118703695D01*
X101372617Y-118705666D01*
X101372622Y-118705668D01*
X101384558Y-118708732D01*
X101403266Y-118715137D01*
X101421855Y-118723181D01*
X101429683Y-118724421D01*
X101429690Y-118724423D01*
X101465524Y-118730099D01*
X101477144Y-118732505D01*
X101512289Y-118741528D01*
X101519970Y-118743500D01*
X101540224Y-118743500D01*
X101559934Y-118745051D01*
X101579943Y-118748220D01*
X101587835Y-118747474D01*
X101623961Y-118744059D01*
X101635819Y-118743500D01*
X102407685Y-118743500D01*
X102475806Y-118763502D01*
X102510898Y-118797230D01*
X102575699Y-118889776D01*
X102725224Y-119039301D01*
X102898442Y-119160589D01*
X102903420Y-119162910D01*
X102903423Y-119162912D01*
X103022261Y-119218327D01*
X103090090Y-119249956D01*
X103095398Y-119251378D01*
X103095400Y-119251379D01*
X103289030Y-119303262D01*
X103289032Y-119303262D01*
X103294345Y-119304686D01*
X103505000Y-119323116D01*
X103715655Y-119304686D01*
X103720968Y-119303262D01*
X103720970Y-119303262D01*
X103914600Y-119251379D01*
X103914602Y-119251378D01*
X103919910Y-119249956D01*
X103987739Y-119218327D01*
X104106577Y-119162912D01*
X104106580Y-119162910D01*
X104111558Y-119160589D01*
X104284776Y-119039301D01*
X104434301Y-118889776D01*
X104555589Y-118716558D01*
X104559239Y-118708732D01*
X104642633Y-118529892D01*
X104642634Y-118529891D01*
X104644956Y-118524910D01*
X104646911Y-118517616D01*
X104698262Y-118325970D01*
X104698262Y-118325968D01*
X104699686Y-118320655D01*
X104718116Y-118110000D01*
X104699686Y-117899345D01*
X104696299Y-117886705D01*
X104646379Y-117700400D01*
X104646378Y-117700398D01*
X104644956Y-117695090D01*
X104642633Y-117690108D01*
X104641713Y-117688134D01*
X106641500Y-117688134D01*
X106648255Y-117750316D01*
X106699385Y-117886705D01*
X106786739Y-118003261D01*
X106903295Y-118090615D01*
X107039684Y-118141745D01*
X107077187Y-118145819D01*
X107098486Y-118148133D01*
X107098489Y-118148133D01*
X107101866Y-118148500D01*
X107105185Y-118148500D01*
X107172110Y-118172153D01*
X107207804Y-118218156D01*
X107209734Y-118217141D01*
X107215442Y-118228000D01*
X107215632Y-118228245D01*
X107215653Y-118228403D01*
X107235644Y-118266434D01*
X107937188Y-118967978D01*
X107951132Y-118975592D01*
X107952965Y-118975461D01*
X107959580Y-118971210D01*
X108665077Y-118265713D01*
X108687871Y-118223971D01*
X108690047Y-118213971D01*
X108740253Y-118163773D01*
X108793814Y-118148549D01*
X108794719Y-118148500D01*
X108798134Y-118148500D01*
X108801530Y-118148131D01*
X108801532Y-118148131D01*
X108822813Y-118145819D01*
X108860316Y-118141745D01*
X108996705Y-118090615D01*
X109113261Y-118003261D01*
X109200615Y-117886705D01*
X109251745Y-117750316D01*
X109258500Y-117688134D01*
X109258500Y-115991866D01*
X109251745Y-115929684D01*
X109200615Y-115793295D01*
X109113261Y-115676739D01*
X108996705Y-115589385D01*
X108860316Y-115538255D01*
X108798134Y-115531500D01*
X107101866Y-115531500D01*
X107039684Y-115538255D01*
X106903295Y-115589385D01*
X106786739Y-115676739D01*
X106699385Y-115793295D01*
X106648255Y-115929684D01*
X106641500Y-115991866D01*
X106641500Y-117688134D01*
X104641713Y-117688134D01*
X104557912Y-117508423D01*
X104557910Y-117508420D01*
X104555589Y-117503442D01*
X104434301Y-117330224D01*
X104284776Y-117180699D01*
X104111558Y-117059411D01*
X104106580Y-117057090D01*
X104106577Y-117057088D01*
X103924892Y-116972367D01*
X103924891Y-116972366D01*
X103919910Y-116970044D01*
X103914602Y-116968622D01*
X103914600Y-116968621D01*
X103888796Y-116961707D01*
X103828173Y-116924755D01*
X103797152Y-116860894D01*
X103805580Y-116790400D01*
X103850783Y-116735653D01*
X103888796Y-116718293D01*
X103914600Y-116711379D01*
X103914602Y-116711378D01*
X103919910Y-116709956D01*
X103924892Y-116707633D01*
X104106577Y-116622912D01*
X104106580Y-116622910D01*
X104111558Y-116620589D01*
X104284776Y-116499301D01*
X104434301Y-116349776D01*
X104555589Y-116176558D01*
X104561308Y-116164295D01*
X104642633Y-115989892D01*
X104642634Y-115989891D01*
X104644956Y-115984910D01*
X104661737Y-115922285D01*
X104698262Y-115785970D01*
X104698262Y-115785968D01*
X104699686Y-115780655D01*
X104718116Y-115570000D01*
X104699686Y-115359345D01*
X104697458Y-115351031D01*
X104646379Y-115160400D01*
X104646378Y-115160398D01*
X104644956Y-115155090D01*
X104642633Y-115150108D01*
X104557912Y-114968423D01*
X104557910Y-114968420D01*
X104555589Y-114963442D01*
X104434301Y-114790224D01*
X104284776Y-114640699D01*
X104111558Y-114519411D01*
X104106580Y-114517090D01*
X104106577Y-114517088D01*
X103924892Y-114432367D01*
X103924891Y-114432366D01*
X103919910Y-114430044D01*
X103914602Y-114428622D01*
X103914600Y-114428621D01*
X103720970Y-114376738D01*
X103720968Y-114376738D01*
X103715655Y-114375314D01*
X103505000Y-114356884D01*
X103294345Y-114375314D01*
X103289032Y-114376738D01*
X103289030Y-114376738D01*
X103095400Y-114428621D01*
X103095398Y-114428622D01*
X103090090Y-114430044D01*
X103085109Y-114432366D01*
X103085108Y-114432367D01*
X102903423Y-114517088D01*
X102903420Y-114517090D01*
X102898442Y-114519411D01*
X102725224Y-114640699D01*
X102575699Y-114790224D01*
X102454411Y-114963442D01*
X102452090Y-114968420D01*
X102452088Y-114968423D01*
X102367367Y-115150108D01*
X102365044Y-115155090D01*
X102363622Y-115160398D01*
X102363621Y-115160400D01*
X102312542Y-115351031D01*
X102310314Y-115359345D01*
X102291884Y-115570000D01*
X102310314Y-115780655D01*
X102311738Y-115785968D01*
X102311738Y-115785970D01*
X102348264Y-115922285D01*
X102365044Y-115984910D01*
X102367366Y-115989891D01*
X102367367Y-115989892D01*
X102448693Y-116164295D01*
X102454411Y-116176558D01*
X102575699Y-116349776D01*
X102725224Y-116499301D01*
X102898442Y-116620589D01*
X102903420Y-116622910D01*
X102903423Y-116622912D01*
X103085108Y-116707633D01*
X103090090Y-116709956D01*
X103095398Y-116711378D01*
X103095400Y-116711379D01*
X103121204Y-116718293D01*
X103181827Y-116755245D01*
X103212848Y-116819106D01*
X103204420Y-116889600D01*
X103159217Y-116944347D01*
X103121204Y-116961707D01*
X103095400Y-116968621D01*
X103095398Y-116968622D01*
X103090090Y-116970044D01*
X103085109Y-116972366D01*
X103085108Y-116972367D01*
X102903423Y-117057088D01*
X102903420Y-117057090D01*
X102898442Y-117059411D01*
X102725224Y-117180699D01*
X102575699Y-117330224D01*
X102572540Y-117334736D01*
X102510898Y-117422770D01*
X102455441Y-117467099D01*
X102407685Y-117476500D01*
X101914595Y-117476500D01*
X101846474Y-117456498D01*
X101825500Y-117439595D01*
X101000405Y-116614500D01*
X100966379Y-116552188D01*
X100963500Y-116525405D01*
X100963500Y-113091752D01*
X100983502Y-113023631D01*
X101034068Y-112978601D01*
X101041316Y-112975050D01*
X101049043Y-112971265D01*
X101049047Y-112971263D01*
X101053684Y-112968991D01*
X101057888Y-112965993D01*
X101057892Y-112965990D01*
X101148459Y-112901389D01*
X101242243Y-112834494D01*
X101406303Y-112671005D01*
X101418035Y-112654679D01*
X101441194Y-112622449D01*
X101541458Y-112482917D01*
X101555211Y-112455091D01*
X101641784Y-112279922D01*
X101641785Y-112279920D01*
X101644078Y-112275280D01*
X101711408Y-112053671D01*
X101741640Y-111824041D01*
X101743327Y-111755000D01*
X101737032Y-111678434D01*
X101724773Y-111529318D01*
X101724772Y-111529312D01*
X101724349Y-111524167D01*
X101667925Y-111299533D01*
X101665866Y-111294797D01*
X101577630Y-111091868D01*
X101577628Y-111091865D01*
X101575570Y-111087131D01*
X101449764Y-110892665D01*
X101359486Y-110793450D01*
X101328434Y-110729605D01*
X101336829Y-110659106D01*
X101382005Y-110604338D01*
X101408449Y-110590669D01*
X101468054Y-110568324D01*
X101483649Y-110559786D01*
X101585724Y-110483285D01*
X101598285Y-110470724D01*
X101674786Y-110368649D01*
X101683324Y-110353054D01*
X101728478Y-110232606D01*
X101732105Y-110217351D01*
X101737631Y-110166486D01*
X101738000Y-110159672D01*
X101738000Y-109487115D01*
X101733525Y-109471876D01*
X101732135Y-109470671D01*
X101724452Y-109469000D01*
X98940116Y-109469000D01*
X98924877Y-109473475D01*
X98923672Y-109474865D01*
X98922001Y-109482548D01*
X98922001Y-110159669D01*
X98922371Y-110166490D01*
X98927895Y-110217352D01*
X98931521Y-110232604D01*
X98976676Y-110353054D01*
X98985214Y-110368649D01*
X99061715Y-110470724D01*
X99074276Y-110483285D01*
X99176351Y-110559786D01*
X99191946Y-110568324D01*
X99251540Y-110590665D01*
X99308304Y-110633307D01*
X99333004Y-110699868D01*
X99317796Y-110769217D01*
X99298404Y-110795698D01*
X99231639Y-110865564D01*
X99228725Y-110869836D01*
X99228724Y-110869837D01*
X99213152Y-110892665D01*
X99101119Y-111056899D01*
X99003602Y-111266981D01*
X98941707Y-111490169D01*
X98917095Y-111720469D01*
X96106373Y-111720469D01*
X94483652Y-110097747D01*
X94476112Y-110089461D01*
X94472000Y-110082982D01*
X94422348Y-110036356D01*
X94419507Y-110033602D01*
X94399770Y-110013865D01*
X94396573Y-110011385D01*
X94387551Y-110003680D01*
X94369207Y-109986454D01*
X94355321Y-109973414D01*
X94348375Y-109969595D01*
X94348372Y-109969593D01*
X94337566Y-109963652D01*
X94321047Y-109952801D01*
X94320583Y-109952441D01*
X94305041Y-109940386D01*
X94297772Y-109937241D01*
X94297768Y-109937238D01*
X94264463Y-109922826D01*
X94253813Y-109917609D01*
X94215060Y-109896305D01*
X94195437Y-109891267D01*
X94176734Y-109884863D01*
X94165420Y-109879967D01*
X94165419Y-109879967D01*
X94158145Y-109876819D01*
X94150322Y-109875580D01*
X94150312Y-109875577D01*
X94114476Y-109869901D01*
X94102856Y-109867495D01*
X94067711Y-109858472D01*
X94067710Y-109858472D01*
X94060030Y-109856500D01*
X94039776Y-109856500D01*
X94020065Y-109854949D01*
X94014194Y-109854019D01*
X94000057Y-109851780D01*
X93992165Y-109852526D01*
X93956039Y-109855941D01*
X93944181Y-109856500D01*
X91495685Y-109856500D01*
X91427564Y-109836498D01*
X91381071Y-109782842D01*
X91370967Y-109712568D01*
X91400461Y-109647988D01*
X91423412Y-109627289D01*
X91584776Y-109514301D01*
X91734301Y-109364776D01*
X91855589Y-109191558D01*
X91944956Y-108999910D01*
X91956954Y-108955135D01*
X91960236Y-108942885D01*
X98922000Y-108942885D01*
X98926475Y-108958124D01*
X98927865Y-108959329D01*
X98935548Y-108961000D01*
X100057885Y-108961000D01*
X100073124Y-108956525D01*
X100074329Y-108955135D01*
X100076000Y-108947452D01*
X100076000Y-108942885D01*
X100584000Y-108942885D01*
X100588475Y-108958124D01*
X100589865Y-108959329D01*
X100597548Y-108961000D01*
X101719884Y-108961000D01*
X101735123Y-108956525D01*
X101736328Y-108955135D01*
X101737999Y-108947452D01*
X101737999Y-108270331D01*
X101737629Y-108263510D01*
X101732105Y-108212648D01*
X101728479Y-108197396D01*
X101683324Y-108076946D01*
X101674786Y-108061351D01*
X101598285Y-107959276D01*
X101585724Y-107946715D01*
X101483649Y-107870214D01*
X101468054Y-107861676D01*
X101347606Y-107816522D01*
X101332351Y-107812895D01*
X101281486Y-107807369D01*
X101274672Y-107807000D01*
X100602115Y-107807000D01*
X100586876Y-107811475D01*
X100585671Y-107812865D01*
X100584000Y-107820548D01*
X100584000Y-108942885D01*
X100076000Y-108942885D01*
X100076000Y-107825116D01*
X100071525Y-107809877D01*
X100070135Y-107808672D01*
X100062452Y-107807001D01*
X99385331Y-107807001D01*
X99378510Y-107807371D01*
X99327648Y-107812895D01*
X99312396Y-107816521D01*
X99191946Y-107861676D01*
X99176351Y-107870214D01*
X99074276Y-107946715D01*
X99061715Y-107959276D01*
X98985214Y-108061351D01*
X98976676Y-108076946D01*
X98931522Y-108197394D01*
X98927895Y-108212649D01*
X98922369Y-108263514D01*
X98922000Y-108270328D01*
X98922000Y-108942885D01*
X91960236Y-108942885D01*
X91998262Y-108800970D01*
X91998262Y-108800968D01*
X91999686Y-108795655D01*
X92018116Y-108585000D01*
X91999686Y-108374345D01*
X91956360Y-108212649D01*
X91946379Y-108175400D01*
X91946378Y-108175398D01*
X91944956Y-108170090D01*
X91855589Y-107978442D01*
X91734301Y-107805224D01*
X91584776Y-107655699D01*
X91411558Y-107534411D01*
X91406580Y-107532090D01*
X91406577Y-107532088D01*
X91224892Y-107447367D01*
X91224891Y-107447366D01*
X91219910Y-107445044D01*
X91214602Y-107443622D01*
X91214600Y-107443621D01*
X91020970Y-107391738D01*
X91020968Y-107391738D01*
X91015655Y-107390314D01*
X90805000Y-107371884D01*
X90594345Y-107390314D01*
X90589032Y-107391738D01*
X90589030Y-107391738D01*
X90395400Y-107443621D01*
X90395398Y-107443622D01*
X90390090Y-107445044D01*
X90385109Y-107447366D01*
X90385108Y-107447367D01*
X90203423Y-107532088D01*
X90203420Y-107532090D01*
X90198442Y-107534411D01*
X90025224Y-107655699D01*
X89875699Y-107805224D01*
X89754411Y-107978442D01*
X89665044Y-108170090D01*
X89663622Y-108175398D01*
X89663621Y-108175400D01*
X89653640Y-108212649D01*
X89610314Y-108374345D01*
X89591884Y-108585000D01*
X89610314Y-108795655D01*
X89611738Y-108800968D01*
X89611738Y-108800970D01*
X89653047Y-108955135D01*
X89665044Y-108999910D01*
X89754411Y-109191558D01*
X89875699Y-109364776D01*
X90025224Y-109514301D01*
X90186587Y-109627288D01*
X90230914Y-109682744D01*
X90238223Y-109753363D01*
X90206192Y-109816724D01*
X90144991Y-109852709D01*
X90114315Y-109856500D01*
X83898763Y-109856500D01*
X83887579Y-109855973D01*
X83880091Y-109854299D01*
X83872169Y-109854548D01*
X83866572Y-109854019D01*
X83800636Y-109827695D01*
X83759398Y-109769903D01*
X83755952Y-109698990D01*
X83791392Y-109637471D01*
X83806159Y-109625365D01*
X83960264Y-109517460D01*
X83964776Y-109514301D01*
X84114301Y-109364776D01*
X84235589Y-109191558D01*
X84324956Y-108999910D01*
X84336954Y-108955135D01*
X84378262Y-108800970D01*
X84378262Y-108800968D01*
X84379686Y-108795655D01*
X84398116Y-108585000D01*
X84379686Y-108374345D01*
X84336360Y-108212649D01*
X84326379Y-108175400D01*
X84326378Y-108175398D01*
X84324956Y-108170090D01*
X84235589Y-107978442D01*
X84114301Y-107805224D01*
X83964776Y-107655699D01*
X83791558Y-107534411D01*
X83786580Y-107532090D01*
X83786577Y-107532088D01*
X83604892Y-107447367D01*
X83604891Y-107447366D01*
X83599910Y-107445044D01*
X83594602Y-107443622D01*
X83594600Y-107443621D01*
X83400970Y-107391738D01*
X83400968Y-107391738D01*
X83395655Y-107390314D01*
X83185000Y-107371884D01*
X82974345Y-107390314D01*
X82969032Y-107391738D01*
X82969030Y-107391738D01*
X82775400Y-107443621D01*
X82775398Y-107443622D01*
X82770090Y-107445044D01*
X82765109Y-107447366D01*
X82765108Y-107447367D01*
X82583423Y-107532088D01*
X82583420Y-107532090D01*
X82578442Y-107534411D01*
X82405224Y-107655699D01*
X82255699Y-107805224D01*
X82134411Y-107978442D01*
X82045044Y-108170090D01*
X82043622Y-108175398D01*
X82043621Y-108175400D01*
X82033640Y-108212649D01*
X81990314Y-108374345D01*
X81971884Y-108585000D01*
X81990314Y-108795655D01*
X81991738Y-108800968D01*
X81991738Y-108800970D01*
X82033047Y-108955135D01*
X82045044Y-108999910D01*
X82134411Y-109191558D01*
X82255699Y-109364776D01*
X82405224Y-109514301D01*
X82578442Y-109635589D01*
X82583420Y-109637910D01*
X82583423Y-109637912D01*
X82743524Y-109712568D01*
X82770090Y-109724956D01*
X82775398Y-109726378D01*
X82775400Y-109726379D01*
X82969030Y-109778262D01*
X82969032Y-109778262D01*
X82974345Y-109779686D01*
X83185000Y-109798116D01*
X83311665Y-109787034D01*
X83381269Y-109801023D01*
X83432261Y-109850422D01*
X83448452Y-109919548D01*
X83424700Y-109986454D01*
X83396710Y-110014489D01*
X83382893Y-110024528D01*
X83354712Y-110058593D01*
X83346722Y-110067373D01*
X80887747Y-112526348D01*
X80879461Y-112533888D01*
X80872982Y-112538000D01*
X80867557Y-112543777D01*
X80826357Y-112587651D01*
X80823602Y-112590493D01*
X80803865Y-112610230D01*
X80801385Y-112613427D01*
X80793682Y-112622447D01*
X80763414Y-112654679D01*
X80759595Y-112661625D01*
X80759593Y-112661628D01*
X80753652Y-112672434D01*
X80742801Y-112688953D01*
X80730386Y-112704959D01*
X80727241Y-112712228D01*
X80727238Y-112712232D01*
X80712826Y-112745537D01*
X80707609Y-112756187D01*
X80686305Y-112794940D01*
X80684334Y-112802615D01*
X80684334Y-112802616D01*
X80681267Y-112814562D01*
X80674863Y-112833266D01*
X80666819Y-112851855D01*
X80665580Y-112859678D01*
X80665577Y-112859688D01*
X80659901Y-112895524D01*
X80657495Y-112907144D01*
X80656061Y-112912730D01*
X80646500Y-112949970D01*
X80646500Y-112970224D01*
X80644949Y-112989934D01*
X80641780Y-113009943D01*
X80642526Y-113017835D01*
X80645941Y-113053961D01*
X80646500Y-113065819D01*
X80646500Y-114784161D01*
X80626498Y-114852282D01*
X80572842Y-114898775D01*
X80502568Y-114908879D01*
X80437988Y-114879385D01*
X80414708Y-114852601D01*
X80340322Y-114737617D01*
X80340320Y-114737614D01*
X80337514Y-114733277D01*
X80187170Y-114568051D01*
X80183119Y-114564852D01*
X80183115Y-114564848D01*
X80015914Y-114432800D01*
X80015910Y-114432798D01*
X80011859Y-114429598D01*
X80002072Y-114424195D01*
X79913523Y-114375314D01*
X79816289Y-114321638D01*
X79811420Y-114319914D01*
X79811416Y-114319912D01*
X79610587Y-114248795D01*
X79610583Y-114248794D01*
X79605712Y-114247069D01*
X79600619Y-114246162D01*
X79600616Y-114246161D01*
X79390873Y-114208800D01*
X79390867Y-114208799D01*
X79385784Y-114207894D01*
X79311952Y-114206992D01*
X79167581Y-114205228D01*
X79167579Y-114205228D01*
X79162411Y-114205165D01*
X78941591Y-114238955D01*
X78729256Y-114308357D01*
X78699129Y-114324040D01*
X78597898Y-114376738D01*
X78531107Y-114411507D01*
X78526974Y-114414610D01*
X78526971Y-114414612D01*
X78356600Y-114542530D01*
X78352465Y-114545635D01*
X78257898Y-114644594D01*
X78218527Y-114685793D01*
X78157003Y-114721223D01*
X78086090Y-114717766D01*
X78028304Y-114676520D01*
X78013333Y-114652194D01*
X78011365Y-114647994D01*
X78009050Y-114641054D01*
X77915978Y-114490652D01*
X77790803Y-114365695D01*
X77762908Y-114348500D01*
X77646468Y-114276725D01*
X77646466Y-114276724D01*
X77640238Y-114272885D01*
X77479754Y-114219655D01*
X77478889Y-114219368D01*
X77478887Y-114219368D01*
X77472361Y-114217203D01*
X77465525Y-114216503D01*
X77465522Y-114216502D01*
X77422469Y-114212091D01*
X77367900Y-114206500D01*
X76067100Y-114206500D01*
X76063854Y-114206837D01*
X76063850Y-114206837D01*
X75968192Y-114216762D01*
X75968188Y-114216763D01*
X75961334Y-114217474D01*
X75954798Y-114219655D01*
X75954796Y-114219655D01*
X75875349Y-114246161D01*
X75793554Y-114273450D01*
X75643152Y-114366522D01*
X75637979Y-114371704D01*
X75581265Y-114428517D01*
X75518195Y-114491697D01*
X75514355Y-114497927D01*
X75514354Y-114497928D01*
X75429966Y-114634831D01*
X75425385Y-114642262D01*
X75369703Y-114810139D01*
X75359000Y-114914600D01*
X75359000Y-115975405D01*
X75338998Y-116043526D01*
X75322095Y-116064500D01*
X75317000Y-116069595D01*
X75254688Y-116103621D01*
X75227905Y-116106500D01*
X75108768Y-116106500D01*
X75097585Y-116105973D01*
X75090092Y-116104298D01*
X75082166Y-116104547D01*
X75082165Y-116104547D01*
X75022002Y-116106438D01*
X75018044Y-116106500D01*
X74990144Y-116106500D01*
X74986154Y-116107004D01*
X74974320Y-116107936D01*
X74930111Y-116109326D01*
X74922495Y-116111539D01*
X74922493Y-116111539D01*
X74910652Y-116114979D01*
X74891293Y-116118988D01*
X74889983Y-116119154D01*
X74871203Y-116121526D01*
X74863837Y-116124442D01*
X74863831Y-116124444D01*
X74830098Y-116137800D01*
X74818868Y-116141645D01*
X74784017Y-116151770D01*
X74776407Y-116153981D01*
X74769584Y-116158016D01*
X74758966Y-116164295D01*
X74741213Y-116172992D01*
X74733568Y-116176019D01*
X74722383Y-116180448D01*
X74715968Y-116185109D01*
X74686612Y-116206437D01*
X74676695Y-116212951D01*
X74638638Y-116235458D01*
X74624317Y-116249779D01*
X74609284Y-116262619D01*
X74592893Y-116274528D01*
X74587842Y-116280634D01*
X74564702Y-116308605D01*
X74556712Y-116317384D01*
X73267747Y-117606348D01*
X73259461Y-117613888D01*
X73252982Y-117618000D01*
X73247557Y-117623777D01*
X73206357Y-117667651D01*
X73203602Y-117670493D01*
X73183865Y-117690230D01*
X73181385Y-117693427D01*
X73173682Y-117702447D01*
X73143414Y-117734679D01*
X73139595Y-117741625D01*
X73139593Y-117741628D01*
X73133652Y-117752434D01*
X73122801Y-117768953D01*
X73110386Y-117784959D01*
X73107241Y-117792228D01*
X73107238Y-117792232D01*
X73092826Y-117825537D01*
X73087609Y-117836187D01*
X73066305Y-117874940D01*
X73061404Y-117894030D01*
X73061267Y-117894562D01*
X73054863Y-117913266D01*
X73046819Y-117931855D01*
X73045580Y-117939678D01*
X73045577Y-117939688D01*
X73039901Y-117975524D01*
X73037495Y-117987144D01*
X73026500Y-118029970D01*
X73026500Y-118050224D01*
X73024949Y-118069934D01*
X73021780Y-118089943D01*
X70358500Y-118089943D01*
X70358500Y-103496695D01*
X81187251Y-103496695D01*
X81200110Y-103719715D01*
X81201247Y-103724761D01*
X81201248Y-103724767D01*
X81225304Y-103831508D01*
X81249222Y-103937639D01*
X81333266Y-104144616D01*
X81370685Y-104205678D01*
X81447291Y-104330688D01*
X81449987Y-104335088D01*
X81596250Y-104503938D01*
X81768126Y-104646632D01*
X81961000Y-104759338D01*
X82169692Y-104839030D01*
X82174760Y-104840061D01*
X82174763Y-104840062D01*
X82282017Y-104861883D01*
X82388597Y-104883567D01*
X82393772Y-104883757D01*
X82393774Y-104883757D01*
X82606673Y-104891564D01*
X82606677Y-104891564D01*
X82611837Y-104891753D01*
X82616957Y-104891097D01*
X82616959Y-104891097D01*
X82828288Y-104864025D01*
X82828289Y-104864025D01*
X82833416Y-104863368D01*
X82838366Y-104861883D01*
X83042429Y-104800661D01*
X83042434Y-104800659D01*
X83047384Y-104799174D01*
X83247994Y-104700896D01*
X83429860Y-104571173D01*
X83588096Y-104413489D01*
X83647594Y-104330689D01*
X83718453Y-104232077D01*
X83719776Y-104233028D01*
X83766645Y-104189857D01*
X83836580Y-104177625D01*
X83902026Y-104205144D01*
X83929875Y-104236994D01*
X83989987Y-104335088D01*
X84136250Y-104503938D01*
X84308126Y-104646632D01*
X84501000Y-104759338D01*
X84709692Y-104839030D01*
X84714760Y-104840061D01*
X84714763Y-104840062D01*
X84822017Y-104861883D01*
X84928597Y-104883567D01*
X84933772Y-104883757D01*
X84933774Y-104883757D01*
X85146673Y-104891564D01*
X85146677Y-104891564D01*
X85151837Y-104891753D01*
X85156957Y-104891097D01*
X85156959Y-104891097D01*
X85368288Y-104864025D01*
X85368289Y-104864025D01*
X85373416Y-104863368D01*
X85378366Y-104861883D01*
X85582429Y-104800661D01*
X85582434Y-104800659D01*
X85587384Y-104799174D01*
X85787994Y-104700896D01*
X85969860Y-104571173D01*
X86078091Y-104463319D01*
X86140462Y-104429404D01*
X86211268Y-104434592D01*
X86268030Y-104477238D01*
X86285012Y-104508341D01*
X86329385Y-104626705D01*
X86416739Y-104743261D01*
X86533295Y-104830615D01*
X86669684Y-104881745D01*
X86731866Y-104888500D01*
X88528134Y-104888500D01*
X88590316Y-104881745D01*
X88726705Y-104830615D01*
X88843261Y-104743261D01*
X88930615Y-104626705D01*
X88981745Y-104490316D01*
X88988500Y-104428134D01*
X88988500Y-104177054D01*
X93876500Y-104177054D01*
X93883255Y-104239236D01*
X93934385Y-104375625D01*
X94021739Y-104492181D01*
X94138295Y-104579535D01*
X94274684Y-104630665D01*
X94336866Y-104637420D01*
X97433134Y-104637420D01*
X97495316Y-104630665D01*
X97631705Y-104579535D01*
X97748261Y-104492181D01*
X97835615Y-104375625D01*
X97886745Y-104239236D01*
X97893500Y-104177054D01*
X97893500Y-101080786D01*
X97886745Y-101018604D01*
X97835615Y-100882215D01*
X97748261Y-100765659D01*
X97631705Y-100678305D01*
X97495316Y-100627175D01*
X97433134Y-100620420D01*
X94336866Y-100620420D01*
X94274684Y-100627175D01*
X94138295Y-100678305D01*
X94021739Y-100765659D01*
X93934385Y-100882215D01*
X93883255Y-101018604D01*
X93876500Y-101080786D01*
X93876500Y-104177054D01*
X88988500Y-104177054D01*
X88988500Y-102631866D01*
X88981745Y-102569684D01*
X88930615Y-102433295D01*
X88843261Y-102316739D01*
X88726705Y-102229385D01*
X88590316Y-102178255D01*
X88528134Y-102171500D01*
X86731866Y-102171500D01*
X86669684Y-102178255D01*
X86533295Y-102229385D01*
X86416739Y-102316739D01*
X86329385Y-102433295D01*
X86326233Y-102441703D01*
X86284919Y-102551907D01*
X86242277Y-102608671D01*
X86175716Y-102633371D01*
X86106367Y-102618163D01*
X86073743Y-102592476D01*
X86023151Y-102536875D01*
X86023142Y-102536866D01*
X86019670Y-102533051D01*
X86015619Y-102529852D01*
X86015615Y-102529848D01*
X85848414Y-102397800D01*
X85848410Y-102397798D01*
X85844359Y-102394598D01*
X85648789Y-102286638D01*
X85643920Y-102284914D01*
X85643916Y-102284912D01*
X85443087Y-102213795D01*
X85443083Y-102213794D01*
X85438212Y-102212069D01*
X85433119Y-102211162D01*
X85433116Y-102211161D01*
X85223373Y-102173800D01*
X85223367Y-102173799D01*
X85218284Y-102172894D01*
X85144452Y-102171992D01*
X85000081Y-102170228D01*
X85000079Y-102170228D01*
X84994911Y-102170165D01*
X84774091Y-102203955D01*
X84561756Y-102273357D01*
X84363607Y-102376507D01*
X84359474Y-102379610D01*
X84359471Y-102379612D01*
X84189100Y-102507530D01*
X84184965Y-102510635D01*
X84145525Y-102551907D01*
X84091280Y-102608671D01*
X84030629Y-102672138D01*
X83923201Y-102829621D01*
X83868293Y-102874621D01*
X83797768Y-102882792D01*
X83734021Y-102851538D01*
X83713324Y-102827054D01*
X83632822Y-102702617D01*
X83632820Y-102702614D01*
X83630014Y-102698277D01*
X83479670Y-102533051D01*
X83475619Y-102529852D01*
X83475615Y-102529848D01*
X83308414Y-102397800D01*
X83308410Y-102397798D01*
X83304359Y-102394598D01*
X83108789Y-102286638D01*
X83103920Y-102284914D01*
X83103916Y-102284912D01*
X82903087Y-102213795D01*
X82903083Y-102213794D01*
X82898212Y-102212069D01*
X82893119Y-102211162D01*
X82893116Y-102211161D01*
X82683373Y-102173800D01*
X82683367Y-102173799D01*
X82678284Y-102172894D01*
X82604452Y-102171992D01*
X82460081Y-102170228D01*
X82460079Y-102170228D01*
X82454911Y-102170165D01*
X82234091Y-102203955D01*
X82021756Y-102273357D01*
X81823607Y-102376507D01*
X81819474Y-102379610D01*
X81819471Y-102379612D01*
X81649100Y-102507530D01*
X81644965Y-102510635D01*
X81605525Y-102551907D01*
X81551280Y-102608671D01*
X81490629Y-102672138D01*
X81364743Y-102856680D01*
X81270688Y-103059305D01*
X81210989Y-103274570D01*
X81187251Y-103496695D01*
X70358500Y-103496695D01*
X70358500Y-99694500D01*
X70378502Y-99626379D01*
X70432158Y-99579886D01*
X70484500Y-99568500D01*
X113665500Y-99568500D01*
X113733621Y-99588502D01*
G37*
G04 #@! TD.AperFunction*
G04 #@! TA.AperFunction,Conductor*
G36*
X81830802Y-116016485D02*
G01*
X81888946Y-116057225D01*
X81915835Y-116122933D01*
X81916500Y-116135866D01*
X81916500Y-121605405D01*
X81896498Y-121673526D01*
X81879595Y-121694501D01*
X81689499Y-121884596D01*
X81627187Y-121918621D01*
X81600404Y-121921500D01*
X80140347Y-121921500D01*
X80072226Y-121901498D01*
X80025733Y-121847842D01*
X80014908Y-121783624D01*
X80016198Y-121770001D01*
X80008160Y-121754870D01*
X78899422Y-120646132D01*
X79621908Y-120646132D01*
X79622039Y-120647965D01*
X79626290Y-120654580D01*
X80367974Y-121396264D01*
X80379984Y-121402823D01*
X80391723Y-121393855D01*
X80422504Y-121351019D01*
X80427815Y-121342180D01*
X80522170Y-121151267D01*
X80525969Y-121141672D01*
X80587876Y-120937915D01*
X80590055Y-120927834D01*
X80618090Y-120714887D01*
X80618609Y-120708212D01*
X80620072Y-120648364D01*
X80619878Y-120641646D01*
X80602281Y-120427604D01*
X80600596Y-120417424D01*
X80548714Y-120210875D01*
X80545394Y-120201124D01*
X80460472Y-120005814D01*
X80455605Y-119996739D01*
X80390563Y-119896197D01*
X80379877Y-119886995D01*
X80370312Y-119891398D01*
X79629522Y-120632188D01*
X79621908Y-120646132D01*
X78899422Y-120646132D01*
X78147349Y-119894059D01*
X78135813Y-119887759D01*
X78123531Y-119897382D01*
X78090999Y-119945072D01*
X78036087Y-119990075D01*
X77965563Y-119998246D01*
X77901816Y-119966992D01*
X77881118Y-119942508D01*
X77800322Y-119817617D01*
X77800320Y-119817614D01*
X77797514Y-119813277D01*
X77647170Y-119648051D01*
X77643119Y-119644852D01*
X77643115Y-119644848D01*
X77475914Y-119512800D01*
X77475910Y-119512798D01*
X77471859Y-119509598D01*
X77430553Y-119486796D01*
X77380584Y-119436364D01*
X77365812Y-119366921D01*
X77390928Y-119300516D01*
X77418280Y-119273909D01*
X77462103Y-119242650D01*
X77597360Y-119146173D01*
X77626153Y-119117481D01*
X77751935Y-118992137D01*
X77755596Y-118988489D01*
X77764864Y-118975592D01*
X77885953Y-118807077D01*
X77887276Y-118808028D01*
X77934145Y-118764857D01*
X78004080Y-118752625D01*
X78069526Y-118780144D01*
X78097375Y-118811994D01*
X78157487Y-118910088D01*
X78303750Y-119078938D01*
X78475626Y-119221632D01*
X78520122Y-119247633D01*
X78549455Y-119264774D01*
X78598179Y-119316412D01*
X78611250Y-119386195D01*
X78584519Y-119451967D01*
X78544062Y-119485327D01*
X78535960Y-119489544D01*
X78527234Y-119495039D01*
X78507177Y-119510099D01*
X78498723Y-119521427D01*
X78505468Y-119533758D01*
X79244688Y-120272978D01*
X79258632Y-120280592D01*
X79260465Y-120280461D01*
X79267080Y-120276210D01*
X80010889Y-119532401D01*
X80017910Y-119519544D01*
X80011111Y-119510213D01*
X80007059Y-119507521D01*
X79970102Y-119487120D01*
X79920131Y-119436687D01*
X79905359Y-119367245D01*
X79930475Y-119300839D01*
X79957827Y-119274232D01*
X79995117Y-119247633D01*
X80137360Y-119146173D01*
X80166153Y-119117481D01*
X80291935Y-118992137D01*
X80295596Y-118988489D01*
X80304864Y-118975592D01*
X80422935Y-118811277D01*
X80425953Y-118807077D01*
X80438931Y-118780819D01*
X80522636Y-118611453D01*
X80522637Y-118611451D01*
X80524930Y-118606811D01*
X80569372Y-118460537D01*
X80588365Y-118398023D01*
X80588365Y-118398021D01*
X80589870Y-118393069D01*
X80619029Y-118171590D01*
X80619659Y-118145819D01*
X80620574Y-118108365D01*
X80620574Y-118108361D01*
X80620656Y-118105000D01*
X80602352Y-117882361D01*
X80547931Y-117665702D01*
X80458854Y-117460840D01*
X80440652Y-117432704D01*
X80420446Y-117364644D01*
X80440243Y-117296463D01*
X80482307Y-117255811D01*
X80494534Y-117248580D01*
X80501362Y-117244542D01*
X80515683Y-117230221D01*
X80530717Y-117217380D01*
X80540694Y-117210131D01*
X80547107Y-117205472D01*
X80575298Y-117171395D01*
X80583288Y-117162616D01*
X81672253Y-116073652D01*
X81680539Y-116066112D01*
X81687018Y-116062000D01*
X81698649Y-116049614D01*
X81759862Y-116013648D01*
X81830802Y-116016485D01*
G37*
G04 #@! TD.AperFunction*
M02*
