%TF.GenerationSoftware,KiCad,Pcbnew,6.0.8-1.fc36*%
%TF.CreationDate,2022-10-16T22:19:36-05:00*%
%TF.ProjectId,Pomodoro,506f6d6f-646f-4726-9f2e-6b696361645f,rev?*%
%TF.SameCoordinates,Original*%
%TF.FileFunction,Drillmap*%
%TF.FilePolarity,Positive*%
%FSLAX45Y45*%
G04 Gerber Fmt 4.5, Leading zero omitted, Abs format (unit mm)*
G04 Created by KiCad (PCBNEW 6.0.8-1.fc36) date 2022-10-16 22:19:36*
%MOMM*%
%LPD*%
G01*
G04 APERTURE LIST*
%ADD10C,0.100000*%
%ADD11C,0.200000*%
%ADD12C,0.070000*%
%ADD13C,0.080000*%
%ADD14C,0.090000*%
%ADD15C,0.110000*%
%ADD16C,0.150000*%
G04 APERTURE END LIST*
D10*
X11430000Y-13398500D02*
X6985000Y-13398500D01*
X6985000Y-13398500D02*
X6985000Y-9906000D01*
X6985000Y-9906000D02*
X11430000Y-9906000D01*
X11430000Y-9906000D02*
X11430000Y-13398500D01*
D11*
D12*
X8283500Y-10823500D02*
X8353500Y-10893500D01*
X8353500Y-10823500D02*
X8283500Y-10893500D01*
X9045500Y-10823500D02*
X9115500Y-10893500D01*
X9115500Y-10823500D02*
X9045500Y-10893500D01*
X9553500Y-11522000D02*
X9623500Y-11592000D01*
X9623500Y-11522000D02*
X9553500Y-11592000D01*
X9553500Y-11776000D02*
X9623500Y-11846000D01*
X9623500Y-11776000D02*
X9553500Y-11846000D01*
X10315500Y-11522000D02*
X10385500Y-11592000D01*
X10385500Y-11522000D02*
X10315500Y-11592000D01*
X10315500Y-11776000D02*
X10385500Y-11846000D01*
X10385500Y-11776000D02*
X10315500Y-11846000D01*
D13*
X8550000Y-11304000D02*
G75*
G03*
X8550000Y-11304000I-40000J0D01*
G01*
X8550000Y-11558000D02*
G75*
G03*
X8550000Y-11558000I-40000J0D01*
G01*
X8550000Y-11812000D02*
G75*
G03*
X8550000Y-11812000I-40000J0D01*
G01*
X8550000Y-12066000D02*
G75*
G03*
X8550000Y-12066000I-40000J0D01*
G01*
X9312000Y-11304000D02*
G75*
G03*
X9312000Y-11304000I-40000J0D01*
G01*
X9312000Y-11558000D02*
G75*
G03*
X9312000Y-11558000I-40000J0D01*
G01*
X9312000Y-11812000D02*
G75*
G03*
X9312000Y-11812000I-40000J0D01*
G01*
X9312000Y-12066000D02*
G75*
G03*
X9312000Y-12066000I-40000J0D01*
G01*
X10835000Y-11684000D02*
G75*
G03*
X10835000Y-11684000I-40000J0D01*
G01*
X10835000Y-11934000D02*
G75*
G03*
X10835000Y-11934000I-40000J0D01*
G01*
D14*
X10033000Y-10876500D02*
X10033000Y-10966500D01*
X9988000Y-10921500D02*
X10078000Y-10921500D01*
X10033000Y-11130500D02*
X10033000Y-11220500D01*
X9988000Y-11175500D02*
X10078000Y-11175500D01*
D10*
X7707106Y-11591856D02*
X7707106Y-11521144D01*
X7636394Y-11521144D01*
X7636394Y-11591856D01*
X7707106Y-11591856D01*
X7707106Y-11845856D02*
X7707106Y-11775144D01*
X7636394Y-11775144D01*
X7636394Y-11845856D01*
X7707106Y-11845856D01*
X7707106Y-12099856D02*
X7707106Y-12029144D01*
X7636394Y-12029144D01*
X7636394Y-12099856D01*
X7707106Y-12099856D01*
X7961106Y-11591856D02*
X7961106Y-11521144D01*
X7890394Y-11521144D01*
X7890394Y-11591856D01*
X7961106Y-11591856D01*
X7961106Y-11845856D02*
X7961106Y-11775144D01*
X7890394Y-11775144D01*
X7890394Y-11845856D01*
X7961106Y-11845856D01*
X7961106Y-12099856D02*
X7961106Y-12029144D01*
X7890394Y-12029144D01*
X7890394Y-12099856D01*
X7961106Y-12099856D01*
X8290356Y-10388356D02*
X8290356Y-10317644D01*
X8219644Y-10317644D01*
X8219644Y-10388356D01*
X8290356Y-10388356D01*
X8544356Y-10388356D02*
X8544356Y-10317644D01*
X8473644Y-10317644D01*
X8473644Y-10388356D01*
X8544356Y-10388356D01*
X8798356Y-10388356D02*
X8798356Y-10317644D01*
X8727644Y-10317644D01*
X8727644Y-10388356D01*
X8798356Y-10388356D01*
X10449356Y-12355356D02*
X10449356Y-12284644D01*
X10378644Y-12284644D01*
X10378644Y-12355356D01*
X10449356Y-12355356D01*
X10449356Y-13115356D02*
X10449356Y-13044644D01*
X10378644Y-13044644D01*
X10378644Y-13115356D01*
X10449356Y-13115356D01*
D15*
X8621000Y-12628000D02*
X8676000Y-12573000D01*
X8621000Y-12518000D01*
X8566000Y-12573000D01*
X8621000Y-12628000D01*
X8621000Y-13078000D02*
X8676000Y-13023000D01*
X8621000Y-12968000D01*
X8566000Y-13023000D01*
X8621000Y-13078000D01*
X9271000Y-12628000D02*
X9326000Y-12573000D01*
X9271000Y-12518000D01*
X9216000Y-12573000D01*
X9271000Y-12628000D01*
X9271000Y-13078000D02*
X9326000Y-13023000D01*
X9271000Y-12968000D01*
X9216000Y-13023000D01*
X9271000Y-13078000D01*
D16*
X9513500Y-10187892D02*
X9663500Y-10337892D01*
X9663500Y-10187892D02*
X9513500Y-10337892D01*
X9663500Y-10262892D02*
G75*
G03*
X9663500Y-10262892I-75000J0D01*
G01*
X9513500Y-12236892D02*
X9663500Y-12386892D01*
X9663500Y-12236892D02*
X9513500Y-12386892D01*
X9663500Y-12311892D02*
G75*
G03*
X9663500Y-12311892I-75000J0D01*
G01*
D11*
X7237619Y-13713976D02*
X7237619Y-13513976D01*
X7285238Y-13513976D01*
X7313809Y-13523500D01*
X7332857Y-13542548D01*
X7342381Y-13561595D01*
X7351905Y-13599690D01*
X7351905Y-13628262D01*
X7342381Y-13666357D01*
X7332857Y-13685405D01*
X7313809Y-13704452D01*
X7285238Y-13713976D01*
X7237619Y-13713976D01*
X7437619Y-13713976D02*
X7437619Y-13580643D01*
X7437619Y-13618738D02*
X7447143Y-13599690D01*
X7456667Y-13590167D01*
X7475714Y-13580643D01*
X7494762Y-13580643D01*
X7561428Y-13713976D02*
X7561428Y-13580643D01*
X7561428Y-13513976D02*
X7551905Y-13523500D01*
X7561428Y-13533024D01*
X7570952Y-13523500D01*
X7561428Y-13513976D01*
X7561428Y-13533024D01*
X7685238Y-13713976D02*
X7666190Y-13704452D01*
X7656667Y-13685405D01*
X7656667Y-13513976D01*
X7790000Y-13713976D02*
X7770952Y-13704452D01*
X7761428Y-13685405D01*
X7761428Y-13513976D01*
X8018571Y-13713976D02*
X8018571Y-13513976D01*
X8085238Y-13656833D01*
X8151905Y-13513976D01*
X8151905Y-13713976D01*
X8332857Y-13713976D02*
X8332857Y-13609214D01*
X8323333Y-13590167D01*
X8304286Y-13580643D01*
X8266190Y-13580643D01*
X8247143Y-13590167D01*
X8332857Y-13704452D02*
X8313809Y-13713976D01*
X8266190Y-13713976D01*
X8247143Y-13704452D01*
X8237619Y-13685405D01*
X8237619Y-13666357D01*
X8247143Y-13647309D01*
X8266190Y-13637786D01*
X8313809Y-13637786D01*
X8332857Y-13628262D01*
X8428095Y-13580643D02*
X8428095Y-13780643D01*
X8428095Y-13590167D02*
X8447143Y-13580643D01*
X8485238Y-13580643D01*
X8504286Y-13590167D01*
X8513810Y-13599690D01*
X8523333Y-13618738D01*
X8523333Y-13675881D01*
X8513810Y-13694928D01*
X8504286Y-13704452D01*
X8485238Y-13713976D01*
X8447143Y-13713976D01*
X8428095Y-13704452D01*
X8609048Y-13694928D02*
X8618571Y-13704452D01*
X8609048Y-13713976D01*
X8599524Y-13704452D01*
X8609048Y-13694928D01*
X8609048Y-13713976D01*
X8609048Y-13590167D02*
X8618571Y-13599690D01*
X8609048Y-13609214D01*
X8599524Y-13599690D01*
X8609048Y-13590167D01*
X8609048Y-13609214D01*
D12*
X6910000Y-14008500D02*
X6980000Y-14078500D01*
X6980000Y-14008500D02*
X6910000Y-14078500D01*
D11*
X7275714Y-13933976D02*
X7294762Y-13933976D01*
X7313809Y-13943500D01*
X7323333Y-13953024D01*
X7332857Y-13972071D01*
X7342381Y-14010167D01*
X7342381Y-14057786D01*
X7332857Y-14095881D01*
X7323333Y-14114928D01*
X7313809Y-14124452D01*
X7294762Y-14133976D01*
X7275714Y-14133976D01*
X7256667Y-14124452D01*
X7247143Y-14114928D01*
X7237619Y-14095881D01*
X7228095Y-14057786D01*
X7228095Y-14010167D01*
X7237619Y-13972071D01*
X7247143Y-13953024D01*
X7256667Y-13943500D01*
X7275714Y-13933976D01*
X7428095Y-14114928D02*
X7437619Y-14124452D01*
X7428095Y-14133976D01*
X7418571Y-14124452D01*
X7428095Y-14114928D01*
X7428095Y-14133976D01*
X7504286Y-13933976D02*
X7637619Y-13933976D01*
X7551905Y-14133976D01*
X7751905Y-13933976D02*
X7770952Y-13933976D01*
X7790000Y-13943500D01*
X7799524Y-13953024D01*
X7809048Y-13972071D01*
X7818571Y-14010167D01*
X7818571Y-14057786D01*
X7809048Y-14095881D01*
X7799524Y-14114928D01*
X7790000Y-14124452D01*
X7770952Y-14133976D01*
X7751905Y-14133976D01*
X7732857Y-14124452D01*
X7723333Y-14114928D01*
X7713809Y-14095881D01*
X7704286Y-14057786D01*
X7704286Y-14010167D01*
X7713809Y-13972071D01*
X7723333Y-13953024D01*
X7732857Y-13943500D01*
X7751905Y-13933976D01*
X7942381Y-13933976D02*
X7961428Y-13933976D01*
X7980476Y-13943500D01*
X7990000Y-13953024D01*
X7999524Y-13972071D01*
X8009048Y-14010167D01*
X8009048Y-14057786D01*
X7999524Y-14095881D01*
X7990000Y-14114928D01*
X7980476Y-14124452D01*
X7961428Y-14133976D01*
X7942381Y-14133976D01*
X7923333Y-14124452D01*
X7913809Y-14114928D01*
X7904286Y-14095881D01*
X7894762Y-14057786D01*
X7894762Y-14010167D01*
X7904286Y-13972071D01*
X7913809Y-13953024D01*
X7923333Y-13943500D01*
X7942381Y-13933976D01*
X8094762Y-14133976D02*
X8094762Y-14000643D01*
X8094762Y-14019690D02*
X8104286Y-14010167D01*
X8123333Y-14000643D01*
X8151905Y-14000643D01*
X8170952Y-14010167D01*
X8180476Y-14029214D01*
X8180476Y-14133976D01*
X8180476Y-14029214D02*
X8190000Y-14010167D01*
X8209048Y-14000643D01*
X8237619Y-14000643D01*
X8256667Y-14010167D01*
X8266190Y-14029214D01*
X8266190Y-14133976D01*
X8361428Y-14133976D02*
X8361428Y-14000643D01*
X8361428Y-14019690D02*
X8370952Y-14010167D01*
X8390000Y-14000643D01*
X8418571Y-14000643D01*
X8437619Y-14010167D01*
X8447143Y-14029214D01*
X8447143Y-14133976D01*
X8447143Y-14029214D02*
X8456667Y-14010167D01*
X8475714Y-14000643D01*
X8504286Y-14000643D01*
X8523333Y-14010167D01*
X8532857Y-14029214D01*
X8532857Y-14133976D01*
X8923333Y-13924452D02*
X8751905Y-14181595D01*
X9180476Y-13933976D02*
X9199524Y-13933976D01*
X9218571Y-13943500D01*
X9228095Y-13953024D01*
X9237619Y-13972071D01*
X9247143Y-14010167D01*
X9247143Y-14057786D01*
X9237619Y-14095881D01*
X9228095Y-14114928D01*
X9218571Y-14124452D01*
X9199524Y-14133976D01*
X9180476Y-14133976D01*
X9161429Y-14124452D01*
X9151905Y-14114928D01*
X9142381Y-14095881D01*
X9132857Y-14057786D01*
X9132857Y-14010167D01*
X9142381Y-13972071D01*
X9151905Y-13953024D01*
X9161429Y-13943500D01*
X9180476Y-13933976D01*
X9332857Y-14114928D02*
X9342381Y-14124452D01*
X9332857Y-14133976D01*
X9323333Y-14124452D01*
X9332857Y-14114928D01*
X9332857Y-14133976D01*
X9466190Y-13933976D02*
X9485238Y-13933976D01*
X9504286Y-13943500D01*
X9513810Y-13953024D01*
X9523333Y-13972071D01*
X9532857Y-14010167D01*
X9532857Y-14057786D01*
X9523333Y-14095881D01*
X9513810Y-14114928D01*
X9504286Y-14124452D01*
X9485238Y-14133976D01*
X9466190Y-14133976D01*
X9447143Y-14124452D01*
X9437619Y-14114928D01*
X9428095Y-14095881D01*
X9418571Y-14057786D01*
X9418571Y-14010167D01*
X9428095Y-13972071D01*
X9437619Y-13953024D01*
X9447143Y-13943500D01*
X9466190Y-13933976D01*
X9609048Y-13953024D02*
X9618571Y-13943500D01*
X9637619Y-13933976D01*
X9685238Y-13933976D01*
X9704286Y-13943500D01*
X9713810Y-13953024D01*
X9723333Y-13972071D01*
X9723333Y-13991119D01*
X9713810Y-14019690D01*
X9599524Y-14133976D01*
X9723333Y-14133976D01*
X9790000Y-13933976D02*
X9923333Y-13933976D01*
X9837619Y-14133976D01*
X10085238Y-13933976D02*
X10047143Y-13933976D01*
X10028095Y-13943500D01*
X10018571Y-13953024D01*
X9999524Y-13981595D01*
X9990000Y-14019690D01*
X9990000Y-14095881D01*
X9999524Y-14114928D01*
X10009048Y-14124452D01*
X10028095Y-14133976D01*
X10066190Y-14133976D01*
X10085238Y-14124452D01*
X10094762Y-14114928D01*
X10104286Y-14095881D01*
X10104286Y-14048262D01*
X10094762Y-14029214D01*
X10085238Y-14019690D01*
X10066190Y-14010167D01*
X10028095Y-14010167D01*
X10009048Y-14019690D01*
X9999524Y-14029214D01*
X9990000Y-14048262D01*
X10180476Y-13933976D02*
X10180476Y-13972071D01*
X10256667Y-13933976D02*
X10256667Y-13972071D01*
X10551905Y-14210167D02*
X10542381Y-14200643D01*
X10523333Y-14172071D01*
X10513810Y-14153024D01*
X10504286Y-14124452D01*
X10494762Y-14076833D01*
X10494762Y-14038738D01*
X10504286Y-13991119D01*
X10513810Y-13962548D01*
X10523333Y-13943500D01*
X10542381Y-13914928D01*
X10551905Y-13905405D01*
X10713810Y-13933976D02*
X10675714Y-13933976D01*
X10656667Y-13943500D01*
X10647143Y-13953024D01*
X10628095Y-13981595D01*
X10618571Y-14019690D01*
X10618571Y-14095881D01*
X10628095Y-14114928D01*
X10637619Y-14124452D01*
X10656667Y-14133976D01*
X10694762Y-14133976D01*
X10713810Y-14124452D01*
X10723333Y-14114928D01*
X10732857Y-14095881D01*
X10732857Y-14048262D01*
X10723333Y-14029214D01*
X10713810Y-14019690D01*
X10694762Y-14010167D01*
X10656667Y-14010167D01*
X10637619Y-14019690D01*
X10628095Y-14029214D01*
X10618571Y-14048262D01*
X10970952Y-14133976D02*
X10970952Y-13933976D01*
X11056667Y-14133976D02*
X11056667Y-14029214D01*
X11047143Y-14010167D01*
X11028095Y-14000643D01*
X10999524Y-14000643D01*
X10980476Y-14010167D01*
X10970952Y-14019690D01*
X11180476Y-14133976D02*
X11161429Y-14124452D01*
X11151905Y-14114928D01*
X11142381Y-14095881D01*
X11142381Y-14038738D01*
X11151905Y-14019690D01*
X11161429Y-14010167D01*
X11180476Y-14000643D01*
X11209048Y-14000643D01*
X11228095Y-14010167D01*
X11237619Y-14019690D01*
X11247143Y-14038738D01*
X11247143Y-14095881D01*
X11237619Y-14114928D01*
X11228095Y-14124452D01*
X11209048Y-14133976D01*
X11180476Y-14133976D01*
X11361428Y-14133976D02*
X11342381Y-14124452D01*
X11332857Y-14105405D01*
X11332857Y-13933976D01*
X11513809Y-14124452D02*
X11494762Y-14133976D01*
X11456667Y-14133976D01*
X11437619Y-14124452D01*
X11428095Y-14105405D01*
X11428095Y-14029214D01*
X11437619Y-14010167D01*
X11456667Y-14000643D01*
X11494762Y-14000643D01*
X11513809Y-14010167D01*
X11523333Y-14029214D01*
X11523333Y-14048262D01*
X11428095Y-14067309D01*
X11599524Y-14124452D02*
X11618571Y-14133976D01*
X11656667Y-14133976D01*
X11675714Y-14124452D01*
X11685238Y-14105405D01*
X11685238Y-14095881D01*
X11675714Y-14076833D01*
X11656667Y-14067309D01*
X11628095Y-14067309D01*
X11609048Y-14057786D01*
X11599524Y-14038738D01*
X11599524Y-14029214D01*
X11609048Y-14010167D01*
X11628095Y-14000643D01*
X11656667Y-14000643D01*
X11675714Y-14010167D01*
X11751905Y-14210167D02*
X11761428Y-14200643D01*
X11780476Y-14172071D01*
X11790000Y-14153024D01*
X11799524Y-14124452D01*
X11809048Y-14076833D01*
X11809048Y-14038738D01*
X11799524Y-13991119D01*
X11790000Y-13962548D01*
X11780476Y-13943500D01*
X11761428Y-13914928D01*
X11751905Y-13905405D01*
D13*
X6980000Y-14307500D02*
G75*
G03*
X6980000Y-14307500I-40000J0D01*
G01*
D11*
X7275714Y-14197976D02*
X7294762Y-14197976D01*
X7313809Y-14207500D01*
X7323333Y-14217024D01*
X7332857Y-14236071D01*
X7342381Y-14274167D01*
X7342381Y-14321786D01*
X7332857Y-14359881D01*
X7323333Y-14378928D01*
X7313809Y-14388452D01*
X7294762Y-14397976D01*
X7275714Y-14397976D01*
X7256667Y-14388452D01*
X7247143Y-14378928D01*
X7237619Y-14359881D01*
X7228095Y-14321786D01*
X7228095Y-14274167D01*
X7237619Y-14236071D01*
X7247143Y-14217024D01*
X7256667Y-14207500D01*
X7275714Y-14197976D01*
X7428095Y-14378928D02*
X7437619Y-14388452D01*
X7428095Y-14397976D01*
X7418571Y-14388452D01*
X7428095Y-14378928D01*
X7428095Y-14397976D01*
X7551905Y-14283690D02*
X7532857Y-14274167D01*
X7523333Y-14264643D01*
X7513809Y-14245595D01*
X7513809Y-14236071D01*
X7523333Y-14217024D01*
X7532857Y-14207500D01*
X7551905Y-14197976D01*
X7590000Y-14197976D01*
X7609048Y-14207500D01*
X7618571Y-14217024D01*
X7628095Y-14236071D01*
X7628095Y-14245595D01*
X7618571Y-14264643D01*
X7609048Y-14274167D01*
X7590000Y-14283690D01*
X7551905Y-14283690D01*
X7532857Y-14293214D01*
X7523333Y-14302738D01*
X7513809Y-14321786D01*
X7513809Y-14359881D01*
X7523333Y-14378928D01*
X7532857Y-14388452D01*
X7551905Y-14397976D01*
X7590000Y-14397976D01*
X7609048Y-14388452D01*
X7618571Y-14378928D01*
X7628095Y-14359881D01*
X7628095Y-14321786D01*
X7618571Y-14302738D01*
X7609048Y-14293214D01*
X7590000Y-14283690D01*
X7751905Y-14197976D02*
X7770952Y-14197976D01*
X7790000Y-14207500D01*
X7799524Y-14217024D01*
X7809048Y-14236071D01*
X7818571Y-14274167D01*
X7818571Y-14321786D01*
X7809048Y-14359881D01*
X7799524Y-14378928D01*
X7790000Y-14388452D01*
X7770952Y-14397976D01*
X7751905Y-14397976D01*
X7732857Y-14388452D01*
X7723333Y-14378928D01*
X7713809Y-14359881D01*
X7704286Y-14321786D01*
X7704286Y-14274167D01*
X7713809Y-14236071D01*
X7723333Y-14217024D01*
X7732857Y-14207500D01*
X7751905Y-14197976D01*
X7942381Y-14197976D02*
X7961428Y-14197976D01*
X7980476Y-14207500D01*
X7990000Y-14217024D01*
X7999524Y-14236071D01*
X8009048Y-14274167D01*
X8009048Y-14321786D01*
X7999524Y-14359881D01*
X7990000Y-14378928D01*
X7980476Y-14388452D01*
X7961428Y-14397976D01*
X7942381Y-14397976D01*
X7923333Y-14388452D01*
X7913809Y-14378928D01*
X7904286Y-14359881D01*
X7894762Y-14321786D01*
X7894762Y-14274167D01*
X7904286Y-14236071D01*
X7913809Y-14217024D01*
X7923333Y-14207500D01*
X7942381Y-14197976D01*
X8094762Y-14397976D02*
X8094762Y-14264643D01*
X8094762Y-14283690D02*
X8104286Y-14274167D01*
X8123333Y-14264643D01*
X8151905Y-14264643D01*
X8170952Y-14274167D01*
X8180476Y-14293214D01*
X8180476Y-14397976D01*
X8180476Y-14293214D02*
X8190000Y-14274167D01*
X8209048Y-14264643D01*
X8237619Y-14264643D01*
X8256667Y-14274167D01*
X8266190Y-14293214D01*
X8266190Y-14397976D01*
X8361428Y-14397976D02*
X8361428Y-14264643D01*
X8361428Y-14283690D02*
X8370952Y-14274167D01*
X8390000Y-14264643D01*
X8418571Y-14264643D01*
X8437619Y-14274167D01*
X8447143Y-14293214D01*
X8447143Y-14397976D01*
X8447143Y-14293214D02*
X8456667Y-14274167D01*
X8475714Y-14264643D01*
X8504286Y-14264643D01*
X8523333Y-14274167D01*
X8532857Y-14293214D01*
X8532857Y-14397976D01*
X8923333Y-14188452D02*
X8751905Y-14445595D01*
X9180476Y-14197976D02*
X9199524Y-14197976D01*
X9218571Y-14207500D01*
X9228095Y-14217024D01*
X9237619Y-14236071D01*
X9247143Y-14274167D01*
X9247143Y-14321786D01*
X9237619Y-14359881D01*
X9228095Y-14378928D01*
X9218571Y-14388452D01*
X9199524Y-14397976D01*
X9180476Y-14397976D01*
X9161429Y-14388452D01*
X9151905Y-14378928D01*
X9142381Y-14359881D01*
X9132857Y-14321786D01*
X9132857Y-14274167D01*
X9142381Y-14236071D01*
X9151905Y-14217024D01*
X9161429Y-14207500D01*
X9180476Y-14197976D01*
X9332857Y-14378928D02*
X9342381Y-14388452D01*
X9332857Y-14397976D01*
X9323333Y-14388452D01*
X9332857Y-14378928D01*
X9332857Y-14397976D01*
X9466190Y-14197976D02*
X9485238Y-14197976D01*
X9504286Y-14207500D01*
X9513810Y-14217024D01*
X9523333Y-14236071D01*
X9532857Y-14274167D01*
X9532857Y-14321786D01*
X9523333Y-14359881D01*
X9513810Y-14378928D01*
X9504286Y-14388452D01*
X9485238Y-14397976D01*
X9466190Y-14397976D01*
X9447143Y-14388452D01*
X9437619Y-14378928D01*
X9428095Y-14359881D01*
X9418571Y-14321786D01*
X9418571Y-14274167D01*
X9428095Y-14236071D01*
X9437619Y-14217024D01*
X9447143Y-14207500D01*
X9466190Y-14197976D01*
X9599524Y-14197976D02*
X9723333Y-14197976D01*
X9656667Y-14274167D01*
X9685238Y-14274167D01*
X9704286Y-14283690D01*
X9713810Y-14293214D01*
X9723333Y-14312262D01*
X9723333Y-14359881D01*
X9713810Y-14378928D01*
X9704286Y-14388452D01*
X9685238Y-14397976D01*
X9628095Y-14397976D01*
X9609048Y-14388452D01*
X9599524Y-14378928D01*
X9913810Y-14397976D02*
X9799524Y-14397976D01*
X9856667Y-14397976D02*
X9856667Y-14197976D01*
X9837619Y-14226548D01*
X9818571Y-14245595D01*
X9799524Y-14255119D01*
X10094762Y-14197976D02*
X9999524Y-14197976D01*
X9990000Y-14293214D01*
X9999524Y-14283690D01*
X10018571Y-14274167D01*
X10066190Y-14274167D01*
X10085238Y-14283690D01*
X10094762Y-14293214D01*
X10104286Y-14312262D01*
X10104286Y-14359881D01*
X10094762Y-14378928D01*
X10085238Y-14388452D01*
X10066190Y-14397976D01*
X10018571Y-14397976D01*
X9999524Y-14388452D01*
X9990000Y-14378928D01*
X10180476Y-14197976D02*
X10180476Y-14236071D01*
X10256667Y-14197976D02*
X10256667Y-14236071D01*
X10551905Y-14474167D02*
X10542381Y-14464643D01*
X10523333Y-14436071D01*
X10513810Y-14417024D01*
X10504286Y-14388452D01*
X10494762Y-14340833D01*
X10494762Y-14302738D01*
X10504286Y-14255119D01*
X10513810Y-14226548D01*
X10523333Y-14207500D01*
X10542381Y-14178928D01*
X10551905Y-14169405D01*
X10732857Y-14397976D02*
X10618571Y-14397976D01*
X10675714Y-14397976D02*
X10675714Y-14197976D01*
X10656667Y-14226548D01*
X10637619Y-14245595D01*
X10618571Y-14255119D01*
X10856667Y-14197976D02*
X10875714Y-14197976D01*
X10894762Y-14207500D01*
X10904286Y-14217024D01*
X10913810Y-14236071D01*
X10923333Y-14274167D01*
X10923333Y-14321786D01*
X10913810Y-14359881D01*
X10904286Y-14378928D01*
X10894762Y-14388452D01*
X10875714Y-14397976D01*
X10856667Y-14397976D01*
X10837619Y-14388452D01*
X10828095Y-14378928D01*
X10818571Y-14359881D01*
X10809048Y-14321786D01*
X10809048Y-14274167D01*
X10818571Y-14236071D01*
X10828095Y-14217024D01*
X10837619Y-14207500D01*
X10856667Y-14197976D01*
X11161429Y-14397976D02*
X11161429Y-14197976D01*
X11247143Y-14397976D02*
X11247143Y-14293214D01*
X11237619Y-14274167D01*
X11218571Y-14264643D01*
X11190000Y-14264643D01*
X11170952Y-14274167D01*
X11161429Y-14283690D01*
X11370952Y-14397976D02*
X11351905Y-14388452D01*
X11342381Y-14378928D01*
X11332857Y-14359881D01*
X11332857Y-14302738D01*
X11342381Y-14283690D01*
X11351905Y-14274167D01*
X11370952Y-14264643D01*
X11399524Y-14264643D01*
X11418571Y-14274167D01*
X11428095Y-14283690D01*
X11437619Y-14302738D01*
X11437619Y-14359881D01*
X11428095Y-14378928D01*
X11418571Y-14388452D01*
X11399524Y-14397976D01*
X11370952Y-14397976D01*
X11551905Y-14397976D02*
X11532857Y-14388452D01*
X11523333Y-14369405D01*
X11523333Y-14197976D01*
X11704286Y-14388452D02*
X11685238Y-14397976D01*
X11647143Y-14397976D01*
X11628095Y-14388452D01*
X11618571Y-14369405D01*
X11618571Y-14293214D01*
X11628095Y-14274167D01*
X11647143Y-14264643D01*
X11685238Y-14264643D01*
X11704286Y-14274167D01*
X11713809Y-14293214D01*
X11713809Y-14312262D01*
X11618571Y-14331309D01*
X11790000Y-14388452D02*
X11809048Y-14397976D01*
X11847143Y-14397976D01*
X11866190Y-14388452D01*
X11875714Y-14369405D01*
X11875714Y-14359881D01*
X11866190Y-14340833D01*
X11847143Y-14331309D01*
X11818571Y-14331309D01*
X11799524Y-14321786D01*
X11790000Y-14302738D01*
X11790000Y-14293214D01*
X11799524Y-14274167D01*
X11818571Y-14264643D01*
X11847143Y-14264643D01*
X11866190Y-14274167D01*
X11942381Y-14474167D02*
X11951905Y-14464643D01*
X11970952Y-14436071D01*
X11980476Y-14417024D01*
X11990000Y-14388452D01*
X11999524Y-14340833D01*
X11999524Y-14302738D01*
X11990000Y-14255119D01*
X11980476Y-14226548D01*
X11970952Y-14207500D01*
X11951905Y-14178928D01*
X11942381Y-14169405D01*
D14*
X6935000Y-14526500D02*
X6935000Y-14616500D01*
X6890000Y-14571500D02*
X6980000Y-14571500D01*
D11*
X7275714Y-14461976D02*
X7294762Y-14461976D01*
X7313809Y-14471500D01*
X7323333Y-14481024D01*
X7332857Y-14500071D01*
X7342381Y-14538167D01*
X7342381Y-14585786D01*
X7332857Y-14623881D01*
X7323333Y-14642928D01*
X7313809Y-14652452D01*
X7294762Y-14661976D01*
X7275714Y-14661976D01*
X7256667Y-14652452D01*
X7247143Y-14642928D01*
X7237619Y-14623881D01*
X7228095Y-14585786D01*
X7228095Y-14538167D01*
X7237619Y-14500071D01*
X7247143Y-14481024D01*
X7256667Y-14471500D01*
X7275714Y-14461976D01*
X7428095Y-14642928D02*
X7437619Y-14652452D01*
X7428095Y-14661976D01*
X7418571Y-14652452D01*
X7428095Y-14642928D01*
X7428095Y-14661976D01*
X7532857Y-14661976D02*
X7570952Y-14661976D01*
X7590000Y-14652452D01*
X7599524Y-14642928D01*
X7618571Y-14614357D01*
X7628095Y-14576262D01*
X7628095Y-14500071D01*
X7618571Y-14481024D01*
X7609048Y-14471500D01*
X7590000Y-14461976D01*
X7551905Y-14461976D01*
X7532857Y-14471500D01*
X7523333Y-14481024D01*
X7513809Y-14500071D01*
X7513809Y-14547690D01*
X7523333Y-14566738D01*
X7532857Y-14576262D01*
X7551905Y-14585786D01*
X7590000Y-14585786D01*
X7609048Y-14576262D01*
X7618571Y-14566738D01*
X7628095Y-14547690D01*
X7751905Y-14461976D02*
X7770952Y-14461976D01*
X7790000Y-14471500D01*
X7799524Y-14481024D01*
X7809048Y-14500071D01*
X7818571Y-14538167D01*
X7818571Y-14585786D01*
X7809048Y-14623881D01*
X7799524Y-14642928D01*
X7790000Y-14652452D01*
X7770952Y-14661976D01*
X7751905Y-14661976D01*
X7732857Y-14652452D01*
X7723333Y-14642928D01*
X7713809Y-14623881D01*
X7704286Y-14585786D01*
X7704286Y-14538167D01*
X7713809Y-14500071D01*
X7723333Y-14481024D01*
X7732857Y-14471500D01*
X7751905Y-14461976D01*
X7942381Y-14461976D02*
X7961428Y-14461976D01*
X7980476Y-14471500D01*
X7990000Y-14481024D01*
X7999524Y-14500071D01*
X8009048Y-14538167D01*
X8009048Y-14585786D01*
X7999524Y-14623881D01*
X7990000Y-14642928D01*
X7980476Y-14652452D01*
X7961428Y-14661976D01*
X7942381Y-14661976D01*
X7923333Y-14652452D01*
X7913809Y-14642928D01*
X7904286Y-14623881D01*
X7894762Y-14585786D01*
X7894762Y-14538167D01*
X7904286Y-14500071D01*
X7913809Y-14481024D01*
X7923333Y-14471500D01*
X7942381Y-14461976D01*
X8094762Y-14661976D02*
X8094762Y-14528643D01*
X8094762Y-14547690D02*
X8104286Y-14538167D01*
X8123333Y-14528643D01*
X8151905Y-14528643D01*
X8170952Y-14538167D01*
X8180476Y-14557214D01*
X8180476Y-14661976D01*
X8180476Y-14557214D02*
X8190000Y-14538167D01*
X8209048Y-14528643D01*
X8237619Y-14528643D01*
X8256667Y-14538167D01*
X8266190Y-14557214D01*
X8266190Y-14661976D01*
X8361428Y-14661976D02*
X8361428Y-14528643D01*
X8361428Y-14547690D02*
X8370952Y-14538167D01*
X8390000Y-14528643D01*
X8418571Y-14528643D01*
X8437619Y-14538167D01*
X8447143Y-14557214D01*
X8447143Y-14661976D01*
X8447143Y-14557214D02*
X8456667Y-14538167D01*
X8475714Y-14528643D01*
X8504286Y-14528643D01*
X8523333Y-14538167D01*
X8532857Y-14557214D01*
X8532857Y-14661976D01*
X8923333Y-14452452D02*
X8751905Y-14709595D01*
X9180476Y-14461976D02*
X9199524Y-14461976D01*
X9218571Y-14471500D01*
X9228095Y-14481024D01*
X9237619Y-14500071D01*
X9247143Y-14538167D01*
X9247143Y-14585786D01*
X9237619Y-14623881D01*
X9228095Y-14642928D01*
X9218571Y-14652452D01*
X9199524Y-14661976D01*
X9180476Y-14661976D01*
X9161429Y-14652452D01*
X9151905Y-14642928D01*
X9142381Y-14623881D01*
X9132857Y-14585786D01*
X9132857Y-14538167D01*
X9142381Y-14500071D01*
X9151905Y-14481024D01*
X9161429Y-14471500D01*
X9180476Y-14461976D01*
X9332857Y-14642928D02*
X9342381Y-14652452D01*
X9332857Y-14661976D01*
X9323333Y-14652452D01*
X9332857Y-14642928D01*
X9332857Y-14661976D01*
X9466190Y-14461976D02*
X9485238Y-14461976D01*
X9504286Y-14471500D01*
X9513810Y-14481024D01*
X9523333Y-14500071D01*
X9532857Y-14538167D01*
X9532857Y-14585786D01*
X9523333Y-14623881D01*
X9513810Y-14642928D01*
X9504286Y-14652452D01*
X9485238Y-14661976D01*
X9466190Y-14661976D01*
X9447143Y-14652452D01*
X9437619Y-14642928D01*
X9428095Y-14623881D01*
X9418571Y-14585786D01*
X9418571Y-14538167D01*
X9428095Y-14500071D01*
X9437619Y-14481024D01*
X9447143Y-14471500D01*
X9466190Y-14461976D01*
X9599524Y-14461976D02*
X9723333Y-14461976D01*
X9656667Y-14538167D01*
X9685238Y-14538167D01*
X9704286Y-14547690D01*
X9713810Y-14557214D01*
X9723333Y-14576262D01*
X9723333Y-14623881D01*
X9713810Y-14642928D01*
X9704286Y-14652452D01*
X9685238Y-14661976D01*
X9628095Y-14661976D01*
X9609048Y-14652452D01*
X9599524Y-14642928D01*
X9904286Y-14461976D02*
X9809048Y-14461976D01*
X9799524Y-14557214D01*
X9809048Y-14547690D01*
X9828095Y-14538167D01*
X9875714Y-14538167D01*
X9894762Y-14547690D01*
X9904286Y-14557214D01*
X9913810Y-14576262D01*
X9913810Y-14623881D01*
X9904286Y-14642928D01*
X9894762Y-14652452D01*
X9875714Y-14661976D01*
X9828095Y-14661976D01*
X9809048Y-14652452D01*
X9799524Y-14642928D01*
X10085238Y-14528643D02*
X10085238Y-14661976D01*
X10037619Y-14452452D02*
X9990000Y-14595309D01*
X10113810Y-14595309D01*
X10180476Y-14461976D02*
X10180476Y-14500071D01*
X10256667Y-14461976D02*
X10256667Y-14500071D01*
X10551905Y-14738167D02*
X10542381Y-14728643D01*
X10523333Y-14700071D01*
X10513810Y-14681024D01*
X10504286Y-14652452D01*
X10494762Y-14604833D01*
X10494762Y-14566738D01*
X10504286Y-14519119D01*
X10513810Y-14490548D01*
X10523333Y-14471500D01*
X10542381Y-14442928D01*
X10551905Y-14433405D01*
X10618571Y-14481024D02*
X10628095Y-14471500D01*
X10647143Y-14461976D01*
X10694762Y-14461976D01*
X10713810Y-14471500D01*
X10723333Y-14481024D01*
X10732857Y-14500071D01*
X10732857Y-14519119D01*
X10723333Y-14547690D01*
X10609048Y-14661976D01*
X10732857Y-14661976D01*
X10970952Y-14661976D02*
X10970952Y-14461976D01*
X11056667Y-14661976D02*
X11056667Y-14557214D01*
X11047143Y-14538167D01*
X11028095Y-14528643D01*
X10999524Y-14528643D01*
X10980476Y-14538167D01*
X10970952Y-14547690D01*
X11180476Y-14661976D02*
X11161429Y-14652452D01*
X11151905Y-14642928D01*
X11142381Y-14623881D01*
X11142381Y-14566738D01*
X11151905Y-14547690D01*
X11161429Y-14538167D01*
X11180476Y-14528643D01*
X11209048Y-14528643D01*
X11228095Y-14538167D01*
X11237619Y-14547690D01*
X11247143Y-14566738D01*
X11247143Y-14623881D01*
X11237619Y-14642928D01*
X11228095Y-14652452D01*
X11209048Y-14661976D01*
X11180476Y-14661976D01*
X11361428Y-14661976D02*
X11342381Y-14652452D01*
X11332857Y-14633405D01*
X11332857Y-14461976D01*
X11513809Y-14652452D02*
X11494762Y-14661976D01*
X11456667Y-14661976D01*
X11437619Y-14652452D01*
X11428095Y-14633405D01*
X11428095Y-14557214D01*
X11437619Y-14538167D01*
X11456667Y-14528643D01*
X11494762Y-14528643D01*
X11513809Y-14538167D01*
X11523333Y-14557214D01*
X11523333Y-14576262D01*
X11428095Y-14595309D01*
X11599524Y-14652452D02*
X11618571Y-14661976D01*
X11656667Y-14661976D01*
X11675714Y-14652452D01*
X11685238Y-14633405D01*
X11685238Y-14623881D01*
X11675714Y-14604833D01*
X11656667Y-14595309D01*
X11628095Y-14595309D01*
X11609048Y-14585786D01*
X11599524Y-14566738D01*
X11599524Y-14557214D01*
X11609048Y-14538167D01*
X11628095Y-14528643D01*
X11656667Y-14528643D01*
X11675714Y-14538167D01*
X11751905Y-14738167D02*
X11761428Y-14728643D01*
X11780476Y-14700071D01*
X11790000Y-14681024D01*
X11799524Y-14652452D01*
X11809048Y-14604833D01*
X11809048Y-14566738D01*
X11799524Y-14519119D01*
X11790000Y-14490548D01*
X11780476Y-14471500D01*
X11761428Y-14442928D01*
X11751905Y-14433405D01*
D10*
X6965356Y-14870856D02*
X6965356Y-14800144D01*
X6894644Y-14800144D01*
X6894644Y-14870856D01*
X6965356Y-14870856D01*
D11*
X7342381Y-14925976D02*
X7228095Y-14925976D01*
X7285238Y-14925976D02*
X7285238Y-14725976D01*
X7266190Y-14754548D01*
X7247143Y-14773595D01*
X7228095Y-14783119D01*
X7428095Y-14906928D02*
X7437619Y-14916452D01*
X7428095Y-14925976D01*
X7418571Y-14916452D01*
X7428095Y-14906928D01*
X7428095Y-14925976D01*
X7561428Y-14725976D02*
X7580476Y-14725976D01*
X7599524Y-14735500D01*
X7609048Y-14745024D01*
X7618571Y-14764071D01*
X7628095Y-14802167D01*
X7628095Y-14849786D01*
X7618571Y-14887881D01*
X7609048Y-14906928D01*
X7599524Y-14916452D01*
X7580476Y-14925976D01*
X7561428Y-14925976D01*
X7542381Y-14916452D01*
X7532857Y-14906928D01*
X7523333Y-14887881D01*
X7513809Y-14849786D01*
X7513809Y-14802167D01*
X7523333Y-14764071D01*
X7532857Y-14745024D01*
X7542381Y-14735500D01*
X7561428Y-14725976D01*
X7751905Y-14725976D02*
X7770952Y-14725976D01*
X7790000Y-14735500D01*
X7799524Y-14745024D01*
X7809048Y-14764071D01*
X7818571Y-14802167D01*
X7818571Y-14849786D01*
X7809048Y-14887881D01*
X7799524Y-14906928D01*
X7790000Y-14916452D01*
X7770952Y-14925976D01*
X7751905Y-14925976D01*
X7732857Y-14916452D01*
X7723333Y-14906928D01*
X7713809Y-14887881D01*
X7704286Y-14849786D01*
X7704286Y-14802167D01*
X7713809Y-14764071D01*
X7723333Y-14745024D01*
X7732857Y-14735500D01*
X7751905Y-14725976D01*
X7942381Y-14725976D02*
X7961428Y-14725976D01*
X7980476Y-14735500D01*
X7990000Y-14745024D01*
X7999524Y-14764071D01*
X8009048Y-14802167D01*
X8009048Y-14849786D01*
X7999524Y-14887881D01*
X7990000Y-14906928D01*
X7980476Y-14916452D01*
X7961428Y-14925976D01*
X7942381Y-14925976D01*
X7923333Y-14916452D01*
X7913809Y-14906928D01*
X7904286Y-14887881D01*
X7894762Y-14849786D01*
X7894762Y-14802167D01*
X7904286Y-14764071D01*
X7913809Y-14745024D01*
X7923333Y-14735500D01*
X7942381Y-14725976D01*
X8094762Y-14925976D02*
X8094762Y-14792643D01*
X8094762Y-14811690D02*
X8104286Y-14802167D01*
X8123333Y-14792643D01*
X8151905Y-14792643D01*
X8170952Y-14802167D01*
X8180476Y-14821214D01*
X8180476Y-14925976D01*
X8180476Y-14821214D02*
X8190000Y-14802167D01*
X8209048Y-14792643D01*
X8237619Y-14792643D01*
X8256667Y-14802167D01*
X8266190Y-14821214D01*
X8266190Y-14925976D01*
X8361428Y-14925976D02*
X8361428Y-14792643D01*
X8361428Y-14811690D02*
X8370952Y-14802167D01*
X8390000Y-14792643D01*
X8418571Y-14792643D01*
X8437619Y-14802167D01*
X8447143Y-14821214D01*
X8447143Y-14925976D01*
X8447143Y-14821214D02*
X8456667Y-14802167D01*
X8475714Y-14792643D01*
X8504286Y-14792643D01*
X8523333Y-14802167D01*
X8532857Y-14821214D01*
X8532857Y-14925976D01*
X8923333Y-14716452D02*
X8751905Y-14973595D01*
X9180476Y-14725976D02*
X9199524Y-14725976D01*
X9218571Y-14735500D01*
X9228095Y-14745024D01*
X9237619Y-14764071D01*
X9247143Y-14802167D01*
X9247143Y-14849786D01*
X9237619Y-14887881D01*
X9228095Y-14906928D01*
X9218571Y-14916452D01*
X9199524Y-14925976D01*
X9180476Y-14925976D01*
X9161429Y-14916452D01*
X9151905Y-14906928D01*
X9142381Y-14887881D01*
X9132857Y-14849786D01*
X9132857Y-14802167D01*
X9142381Y-14764071D01*
X9151905Y-14745024D01*
X9161429Y-14735500D01*
X9180476Y-14725976D01*
X9332857Y-14906928D02*
X9342381Y-14916452D01*
X9332857Y-14925976D01*
X9323333Y-14916452D01*
X9332857Y-14906928D01*
X9332857Y-14925976D01*
X9466190Y-14725976D02*
X9485238Y-14725976D01*
X9504286Y-14735500D01*
X9513810Y-14745024D01*
X9523333Y-14764071D01*
X9532857Y-14802167D01*
X9532857Y-14849786D01*
X9523333Y-14887881D01*
X9513810Y-14906928D01*
X9504286Y-14916452D01*
X9485238Y-14925976D01*
X9466190Y-14925976D01*
X9447143Y-14916452D01*
X9437619Y-14906928D01*
X9428095Y-14887881D01*
X9418571Y-14849786D01*
X9418571Y-14802167D01*
X9428095Y-14764071D01*
X9437619Y-14745024D01*
X9447143Y-14735500D01*
X9466190Y-14725976D01*
X9599524Y-14725976D02*
X9723333Y-14725976D01*
X9656667Y-14802167D01*
X9685238Y-14802167D01*
X9704286Y-14811690D01*
X9713810Y-14821214D01*
X9723333Y-14840262D01*
X9723333Y-14887881D01*
X9713810Y-14906928D01*
X9704286Y-14916452D01*
X9685238Y-14925976D01*
X9628095Y-14925976D01*
X9609048Y-14916452D01*
X9599524Y-14906928D01*
X9818571Y-14925976D02*
X9856667Y-14925976D01*
X9875714Y-14916452D01*
X9885238Y-14906928D01*
X9904286Y-14878357D01*
X9913810Y-14840262D01*
X9913810Y-14764071D01*
X9904286Y-14745024D01*
X9894762Y-14735500D01*
X9875714Y-14725976D01*
X9837619Y-14725976D01*
X9818571Y-14735500D01*
X9809048Y-14745024D01*
X9799524Y-14764071D01*
X9799524Y-14811690D01*
X9809048Y-14830738D01*
X9818571Y-14840262D01*
X9837619Y-14849786D01*
X9875714Y-14849786D01*
X9894762Y-14840262D01*
X9904286Y-14830738D01*
X9913810Y-14811690D01*
X10085238Y-14792643D02*
X10085238Y-14925976D01*
X10037619Y-14716452D02*
X9990000Y-14859309D01*
X10113810Y-14859309D01*
X10180476Y-14725976D02*
X10180476Y-14764071D01*
X10256667Y-14725976D02*
X10256667Y-14764071D01*
X10551905Y-15002167D02*
X10542381Y-14992643D01*
X10523333Y-14964071D01*
X10513810Y-14945024D01*
X10504286Y-14916452D01*
X10494762Y-14868833D01*
X10494762Y-14830738D01*
X10504286Y-14783119D01*
X10513810Y-14754548D01*
X10523333Y-14735500D01*
X10542381Y-14706928D01*
X10551905Y-14697405D01*
X10732857Y-14925976D02*
X10618571Y-14925976D01*
X10675714Y-14925976D02*
X10675714Y-14725976D01*
X10656667Y-14754548D01*
X10637619Y-14773595D01*
X10618571Y-14783119D01*
X10923333Y-14925976D02*
X10809048Y-14925976D01*
X10866190Y-14925976D02*
X10866190Y-14725976D01*
X10847143Y-14754548D01*
X10828095Y-14773595D01*
X10809048Y-14783119D01*
X11161429Y-14925976D02*
X11161429Y-14725976D01*
X11247143Y-14925976D02*
X11247143Y-14821214D01*
X11237619Y-14802167D01*
X11218571Y-14792643D01*
X11190000Y-14792643D01*
X11170952Y-14802167D01*
X11161429Y-14811690D01*
X11370952Y-14925976D02*
X11351905Y-14916452D01*
X11342381Y-14906928D01*
X11332857Y-14887881D01*
X11332857Y-14830738D01*
X11342381Y-14811690D01*
X11351905Y-14802167D01*
X11370952Y-14792643D01*
X11399524Y-14792643D01*
X11418571Y-14802167D01*
X11428095Y-14811690D01*
X11437619Y-14830738D01*
X11437619Y-14887881D01*
X11428095Y-14906928D01*
X11418571Y-14916452D01*
X11399524Y-14925976D01*
X11370952Y-14925976D01*
X11551905Y-14925976D02*
X11532857Y-14916452D01*
X11523333Y-14897405D01*
X11523333Y-14725976D01*
X11704286Y-14916452D02*
X11685238Y-14925976D01*
X11647143Y-14925976D01*
X11628095Y-14916452D01*
X11618571Y-14897405D01*
X11618571Y-14821214D01*
X11628095Y-14802167D01*
X11647143Y-14792643D01*
X11685238Y-14792643D01*
X11704286Y-14802167D01*
X11713809Y-14821214D01*
X11713809Y-14840262D01*
X11618571Y-14859309D01*
X11790000Y-14916452D02*
X11809048Y-14925976D01*
X11847143Y-14925976D01*
X11866190Y-14916452D01*
X11875714Y-14897405D01*
X11875714Y-14887881D01*
X11866190Y-14868833D01*
X11847143Y-14859309D01*
X11818571Y-14859309D01*
X11799524Y-14849786D01*
X11790000Y-14830738D01*
X11790000Y-14821214D01*
X11799524Y-14802167D01*
X11818571Y-14792643D01*
X11847143Y-14792643D01*
X11866190Y-14802167D01*
X11942381Y-15002167D02*
X11951905Y-14992643D01*
X11970952Y-14964071D01*
X11980476Y-14945024D01*
X11990000Y-14916452D01*
X11999524Y-14868833D01*
X11999524Y-14830738D01*
X11990000Y-14783119D01*
X11980476Y-14754548D01*
X11970952Y-14735500D01*
X11951905Y-14706928D01*
X11942381Y-14697405D01*
D15*
X6925000Y-15154500D02*
X6980000Y-15099500D01*
X6925000Y-15044500D01*
X6870000Y-15099500D01*
X6925000Y-15154500D01*
D11*
X7342381Y-15189976D02*
X7228095Y-15189976D01*
X7285238Y-15189976D02*
X7285238Y-14989976D01*
X7266190Y-15018548D01*
X7247143Y-15037595D01*
X7228095Y-15047119D01*
X7428095Y-15170928D02*
X7437619Y-15180452D01*
X7428095Y-15189976D01*
X7418571Y-15180452D01*
X7428095Y-15170928D01*
X7428095Y-15189976D01*
X7628095Y-15189976D02*
X7513809Y-15189976D01*
X7570952Y-15189976D02*
X7570952Y-14989976D01*
X7551905Y-15018548D01*
X7532857Y-15037595D01*
X7513809Y-15047119D01*
X7751905Y-14989976D02*
X7770952Y-14989976D01*
X7790000Y-14999500D01*
X7799524Y-15009024D01*
X7809048Y-15028071D01*
X7818571Y-15066167D01*
X7818571Y-15113786D01*
X7809048Y-15151881D01*
X7799524Y-15170928D01*
X7790000Y-15180452D01*
X7770952Y-15189976D01*
X7751905Y-15189976D01*
X7732857Y-15180452D01*
X7723333Y-15170928D01*
X7713809Y-15151881D01*
X7704286Y-15113786D01*
X7704286Y-15066167D01*
X7713809Y-15028071D01*
X7723333Y-15009024D01*
X7732857Y-14999500D01*
X7751905Y-14989976D01*
X7942381Y-14989976D02*
X7961428Y-14989976D01*
X7980476Y-14999500D01*
X7990000Y-15009024D01*
X7999524Y-15028071D01*
X8009048Y-15066167D01*
X8009048Y-15113786D01*
X7999524Y-15151881D01*
X7990000Y-15170928D01*
X7980476Y-15180452D01*
X7961428Y-15189976D01*
X7942381Y-15189976D01*
X7923333Y-15180452D01*
X7913809Y-15170928D01*
X7904286Y-15151881D01*
X7894762Y-15113786D01*
X7894762Y-15066167D01*
X7904286Y-15028071D01*
X7913809Y-15009024D01*
X7923333Y-14999500D01*
X7942381Y-14989976D01*
X8094762Y-15189976D02*
X8094762Y-15056643D01*
X8094762Y-15075690D02*
X8104286Y-15066167D01*
X8123333Y-15056643D01*
X8151905Y-15056643D01*
X8170952Y-15066167D01*
X8180476Y-15085214D01*
X8180476Y-15189976D01*
X8180476Y-15085214D02*
X8190000Y-15066167D01*
X8209048Y-15056643D01*
X8237619Y-15056643D01*
X8256667Y-15066167D01*
X8266190Y-15085214D01*
X8266190Y-15189976D01*
X8361428Y-15189976D02*
X8361428Y-15056643D01*
X8361428Y-15075690D02*
X8370952Y-15066167D01*
X8390000Y-15056643D01*
X8418571Y-15056643D01*
X8437619Y-15066167D01*
X8447143Y-15085214D01*
X8447143Y-15189976D01*
X8447143Y-15085214D02*
X8456667Y-15066167D01*
X8475714Y-15056643D01*
X8504286Y-15056643D01*
X8523333Y-15066167D01*
X8532857Y-15085214D01*
X8532857Y-15189976D01*
X8923333Y-14980452D02*
X8751905Y-15237595D01*
X9180476Y-14989976D02*
X9199524Y-14989976D01*
X9218571Y-14999500D01*
X9228095Y-15009024D01*
X9237619Y-15028071D01*
X9247143Y-15066167D01*
X9247143Y-15113786D01*
X9237619Y-15151881D01*
X9228095Y-15170928D01*
X9218571Y-15180452D01*
X9199524Y-15189976D01*
X9180476Y-15189976D01*
X9161429Y-15180452D01*
X9151905Y-15170928D01*
X9142381Y-15151881D01*
X9132857Y-15113786D01*
X9132857Y-15066167D01*
X9142381Y-15028071D01*
X9151905Y-15009024D01*
X9161429Y-14999500D01*
X9180476Y-14989976D01*
X9332857Y-15170928D02*
X9342381Y-15180452D01*
X9332857Y-15189976D01*
X9323333Y-15180452D01*
X9332857Y-15170928D01*
X9332857Y-15189976D01*
X9466190Y-14989976D02*
X9485238Y-14989976D01*
X9504286Y-14999500D01*
X9513810Y-15009024D01*
X9523333Y-15028071D01*
X9532857Y-15066167D01*
X9532857Y-15113786D01*
X9523333Y-15151881D01*
X9513810Y-15170928D01*
X9504286Y-15180452D01*
X9485238Y-15189976D01*
X9466190Y-15189976D01*
X9447143Y-15180452D01*
X9437619Y-15170928D01*
X9428095Y-15151881D01*
X9418571Y-15113786D01*
X9418571Y-15066167D01*
X9428095Y-15028071D01*
X9437619Y-15009024D01*
X9447143Y-14999500D01*
X9466190Y-14989976D01*
X9704286Y-15056643D02*
X9704286Y-15189976D01*
X9656667Y-14980452D02*
X9609048Y-15123309D01*
X9732857Y-15123309D01*
X9790000Y-14989976D02*
X9913810Y-14989976D01*
X9847143Y-15066167D01*
X9875714Y-15066167D01*
X9894762Y-15075690D01*
X9904286Y-15085214D01*
X9913810Y-15104262D01*
X9913810Y-15151881D01*
X9904286Y-15170928D01*
X9894762Y-15180452D01*
X9875714Y-15189976D01*
X9818571Y-15189976D01*
X9799524Y-15180452D01*
X9790000Y-15170928D01*
X9980476Y-14989976D02*
X10104286Y-14989976D01*
X10037619Y-15066167D01*
X10066190Y-15066167D01*
X10085238Y-15075690D01*
X10094762Y-15085214D01*
X10104286Y-15104262D01*
X10104286Y-15151881D01*
X10094762Y-15170928D01*
X10085238Y-15180452D01*
X10066190Y-15189976D01*
X10009048Y-15189976D01*
X9990000Y-15180452D01*
X9980476Y-15170928D01*
X10180476Y-14989976D02*
X10180476Y-15028071D01*
X10256667Y-14989976D02*
X10256667Y-15028071D01*
X10551905Y-15266167D02*
X10542381Y-15256643D01*
X10523333Y-15228071D01*
X10513810Y-15209024D01*
X10504286Y-15180452D01*
X10494762Y-15132833D01*
X10494762Y-15094738D01*
X10504286Y-15047119D01*
X10513810Y-15018548D01*
X10523333Y-14999500D01*
X10542381Y-14970928D01*
X10551905Y-14961405D01*
X10713810Y-15056643D02*
X10713810Y-15189976D01*
X10666190Y-14980452D02*
X10618571Y-15123309D01*
X10742381Y-15123309D01*
X10970952Y-15189976D02*
X10970952Y-14989976D01*
X11056667Y-15189976D02*
X11056667Y-15085214D01*
X11047143Y-15066167D01*
X11028095Y-15056643D01*
X10999524Y-15056643D01*
X10980476Y-15066167D01*
X10970952Y-15075690D01*
X11180476Y-15189976D02*
X11161429Y-15180452D01*
X11151905Y-15170928D01*
X11142381Y-15151881D01*
X11142381Y-15094738D01*
X11151905Y-15075690D01*
X11161429Y-15066167D01*
X11180476Y-15056643D01*
X11209048Y-15056643D01*
X11228095Y-15066167D01*
X11237619Y-15075690D01*
X11247143Y-15094738D01*
X11247143Y-15151881D01*
X11237619Y-15170928D01*
X11228095Y-15180452D01*
X11209048Y-15189976D01*
X11180476Y-15189976D01*
X11361428Y-15189976D02*
X11342381Y-15180452D01*
X11332857Y-15161405D01*
X11332857Y-14989976D01*
X11513809Y-15180452D02*
X11494762Y-15189976D01*
X11456667Y-15189976D01*
X11437619Y-15180452D01*
X11428095Y-15161405D01*
X11428095Y-15085214D01*
X11437619Y-15066167D01*
X11456667Y-15056643D01*
X11494762Y-15056643D01*
X11513809Y-15066167D01*
X11523333Y-15085214D01*
X11523333Y-15104262D01*
X11428095Y-15123309D01*
X11599524Y-15180452D02*
X11618571Y-15189976D01*
X11656667Y-15189976D01*
X11675714Y-15180452D01*
X11685238Y-15161405D01*
X11685238Y-15151881D01*
X11675714Y-15132833D01*
X11656667Y-15123309D01*
X11628095Y-15123309D01*
X11609048Y-15113786D01*
X11599524Y-15094738D01*
X11599524Y-15085214D01*
X11609048Y-15066167D01*
X11628095Y-15056643D01*
X11656667Y-15056643D01*
X11675714Y-15066167D01*
X11751905Y-15266167D02*
X11761428Y-15256643D01*
X11780476Y-15228071D01*
X11790000Y-15209024D01*
X11799524Y-15180452D01*
X11809048Y-15132833D01*
X11809048Y-15094738D01*
X11799524Y-15047119D01*
X11790000Y-15018548D01*
X11780476Y-14999500D01*
X11761428Y-14970928D01*
X11751905Y-14961405D01*
D16*
X6830000Y-15288500D02*
X6980000Y-15438500D01*
X6980000Y-15288500D02*
X6830000Y-15438500D01*
X6980000Y-15363500D02*
G75*
G03*
X6980000Y-15363500I-75000J0D01*
G01*
D11*
X7342381Y-15453976D02*
X7228095Y-15453976D01*
X7285238Y-15453976D02*
X7285238Y-15253976D01*
X7266190Y-15282548D01*
X7247143Y-15301595D01*
X7228095Y-15311119D01*
X7428095Y-15434928D02*
X7437619Y-15444452D01*
X7428095Y-15453976D01*
X7418571Y-15444452D01*
X7428095Y-15434928D01*
X7428095Y-15453976D01*
X7618571Y-15253976D02*
X7523333Y-15253976D01*
X7513809Y-15349214D01*
X7523333Y-15339690D01*
X7542381Y-15330167D01*
X7590000Y-15330167D01*
X7609048Y-15339690D01*
X7618571Y-15349214D01*
X7628095Y-15368262D01*
X7628095Y-15415881D01*
X7618571Y-15434928D01*
X7609048Y-15444452D01*
X7590000Y-15453976D01*
X7542381Y-15453976D01*
X7523333Y-15444452D01*
X7513809Y-15434928D01*
X7751905Y-15253976D02*
X7770952Y-15253976D01*
X7790000Y-15263500D01*
X7799524Y-15273024D01*
X7809048Y-15292071D01*
X7818571Y-15330167D01*
X7818571Y-15377786D01*
X7809048Y-15415881D01*
X7799524Y-15434928D01*
X7790000Y-15444452D01*
X7770952Y-15453976D01*
X7751905Y-15453976D01*
X7732857Y-15444452D01*
X7723333Y-15434928D01*
X7713809Y-15415881D01*
X7704286Y-15377786D01*
X7704286Y-15330167D01*
X7713809Y-15292071D01*
X7723333Y-15273024D01*
X7732857Y-15263500D01*
X7751905Y-15253976D01*
X7942381Y-15253976D02*
X7961428Y-15253976D01*
X7980476Y-15263500D01*
X7990000Y-15273024D01*
X7999524Y-15292071D01*
X8009048Y-15330167D01*
X8009048Y-15377786D01*
X7999524Y-15415881D01*
X7990000Y-15434928D01*
X7980476Y-15444452D01*
X7961428Y-15453976D01*
X7942381Y-15453976D01*
X7923333Y-15444452D01*
X7913809Y-15434928D01*
X7904286Y-15415881D01*
X7894762Y-15377786D01*
X7894762Y-15330167D01*
X7904286Y-15292071D01*
X7913809Y-15273024D01*
X7923333Y-15263500D01*
X7942381Y-15253976D01*
X8094762Y-15453976D02*
X8094762Y-15320643D01*
X8094762Y-15339690D02*
X8104286Y-15330167D01*
X8123333Y-15320643D01*
X8151905Y-15320643D01*
X8170952Y-15330167D01*
X8180476Y-15349214D01*
X8180476Y-15453976D01*
X8180476Y-15349214D02*
X8190000Y-15330167D01*
X8209048Y-15320643D01*
X8237619Y-15320643D01*
X8256667Y-15330167D01*
X8266190Y-15349214D01*
X8266190Y-15453976D01*
X8361428Y-15453976D02*
X8361428Y-15320643D01*
X8361428Y-15339690D02*
X8370952Y-15330167D01*
X8390000Y-15320643D01*
X8418571Y-15320643D01*
X8437619Y-15330167D01*
X8447143Y-15349214D01*
X8447143Y-15453976D01*
X8447143Y-15349214D02*
X8456667Y-15330167D01*
X8475714Y-15320643D01*
X8504286Y-15320643D01*
X8523333Y-15330167D01*
X8532857Y-15349214D01*
X8532857Y-15453976D01*
X8923333Y-15244452D02*
X8751905Y-15501595D01*
X9180476Y-15253976D02*
X9199524Y-15253976D01*
X9218571Y-15263500D01*
X9228095Y-15273024D01*
X9237619Y-15292071D01*
X9247143Y-15330167D01*
X9247143Y-15377786D01*
X9237619Y-15415881D01*
X9228095Y-15434928D01*
X9218571Y-15444452D01*
X9199524Y-15453976D01*
X9180476Y-15453976D01*
X9161429Y-15444452D01*
X9151905Y-15434928D01*
X9142381Y-15415881D01*
X9132857Y-15377786D01*
X9132857Y-15330167D01*
X9142381Y-15292071D01*
X9151905Y-15273024D01*
X9161429Y-15263500D01*
X9180476Y-15253976D01*
X9332857Y-15434928D02*
X9342381Y-15444452D01*
X9332857Y-15453976D01*
X9323333Y-15444452D01*
X9332857Y-15434928D01*
X9332857Y-15453976D01*
X9466190Y-15253976D02*
X9485238Y-15253976D01*
X9504286Y-15263500D01*
X9513810Y-15273024D01*
X9523333Y-15292071D01*
X9532857Y-15330167D01*
X9532857Y-15377786D01*
X9523333Y-15415881D01*
X9513810Y-15434928D01*
X9504286Y-15444452D01*
X9485238Y-15453976D01*
X9466190Y-15453976D01*
X9447143Y-15444452D01*
X9437619Y-15434928D01*
X9428095Y-15415881D01*
X9418571Y-15377786D01*
X9418571Y-15330167D01*
X9428095Y-15292071D01*
X9437619Y-15273024D01*
X9447143Y-15263500D01*
X9466190Y-15253976D01*
X9713810Y-15253976D02*
X9618571Y-15253976D01*
X9609048Y-15349214D01*
X9618571Y-15339690D01*
X9637619Y-15330167D01*
X9685238Y-15330167D01*
X9704286Y-15339690D01*
X9713810Y-15349214D01*
X9723333Y-15368262D01*
X9723333Y-15415881D01*
X9713810Y-15434928D01*
X9704286Y-15444452D01*
X9685238Y-15453976D01*
X9637619Y-15453976D01*
X9618571Y-15444452D01*
X9609048Y-15434928D01*
X9818571Y-15453976D02*
X9856667Y-15453976D01*
X9875714Y-15444452D01*
X9885238Y-15434928D01*
X9904286Y-15406357D01*
X9913810Y-15368262D01*
X9913810Y-15292071D01*
X9904286Y-15273024D01*
X9894762Y-15263500D01*
X9875714Y-15253976D01*
X9837619Y-15253976D01*
X9818571Y-15263500D01*
X9809048Y-15273024D01*
X9799524Y-15292071D01*
X9799524Y-15339690D01*
X9809048Y-15358738D01*
X9818571Y-15368262D01*
X9837619Y-15377786D01*
X9875714Y-15377786D01*
X9894762Y-15368262D01*
X9904286Y-15358738D01*
X9913810Y-15339690D01*
X10104286Y-15453976D02*
X9990000Y-15453976D01*
X10047143Y-15453976D02*
X10047143Y-15253976D01*
X10028095Y-15282548D01*
X10009048Y-15301595D01*
X9990000Y-15311119D01*
X10180476Y-15253976D02*
X10180476Y-15292071D01*
X10256667Y-15253976D02*
X10256667Y-15292071D01*
X10551905Y-15530167D02*
X10542381Y-15520643D01*
X10523333Y-15492071D01*
X10513810Y-15473024D01*
X10504286Y-15444452D01*
X10494762Y-15396833D01*
X10494762Y-15358738D01*
X10504286Y-15311119D01*
X10513810Y-15282548D01*
X10523333Y-15263500D01*
X10542381Y-15234928D01*
X10551905Y-15225405D01*
X10618571Y-15273024D02*
X10628095Y-15263500D01*
X10647143Y-15253976D01*
X10694762Y-15253976D01*
X10713810Y-15263500D01*
X10723333Y-15273024D01*
X10732857Y-15292071D01*
X10732857Y-15311119D01*
X10723333Y-15339690D01*
X10609048Y-15453976D01*
X10732857Y-15453976D01*
X10970952Y-15453976D02*
X10970952Y-15253976D01*
X11056667Y-15453976D02*
X11056667Y-15349214D01*
X11047143Y-15330167D01*
X11028095Y-15320643D01*
X10999524Y-15320643D01*
X10980476Y-15330167D01*
X10970952Y-15339690D01*
X11180476Y-15453976D02*
X11161429Y-15444452D01*
X11151905Y-15434928D01*
X11142381Y-15415881D01*
X11142381Y-15358738D01*
X11151905Y-15339690D01*
X11161429Y-15330167D01*
X11180476Y-15320643D01*
X11209048Y-15320643D01*
X11228095Y-15330167D01*
X11237619Y-15339690D01*
X11247143Y-15358738D01*
X11247143Y-15415881D01*
X11237619Y-15434928D01*
X11228095Y-15444452D01*
X11209048Y-15453976D01*
X11180476Y-15453976D01*
X11361428Y-15453976D02*
X11342381Y-15444452D01*
X11332857Y-15425405D01*
X11332857Y-15253976D01*
X11513809Y-15444452D02*
X11494762Y-15453976D01*
X11456667Y-15453976D01*
X11437619Y-15444452D01*
X11428095Y-15425405D01*
X11428095Y-15349214D01*
X11437619Y-15330167D01*
X11456667Y-15320643D01*
X11494762Y-15320643D01*
X11513809Y-15330167D01*
X11523333Y-15349214D01*
X11523333Y-15368262D01*
X11428095Y-15387309D01*
X11599524Y-15444452D02*
X11618571Y-15453976D01*
X11656667Y-15453976D01*
X11675714Y-15444452D01*
X11685238Y-15425405D01*
X11685238Y-15415881D01*
X11675714Y-15396833D01*
X11656667Y-15387309D01*
X11628095Y-15387309D01*
X11609048Y-15377786D01*
X11599524Y-15358738D01*
X11599524Y-15349214D01*
X11609048Y-15330167D01*
X11628095Y-15320643D01*
X11656667Y-15320643D01*
X11675714Y-15330167D01*
X11751905Y-15530167D02*
X11761428Y-15520643D01*
X11780476Y-15492071D01*
X11790000Y-15473024D01*
X11799524Y-15444452D01*
X11809048Y-15396833D01*
X11809048Y-15358738D01*
X11799524Y-15311119D01*
X11790000Y-15282548D01*
X11780476Y-15263500D01*
X11761428Y-15234928D01*
X11751905Y-15225405D01*
M02*
