G04 #@! TF.GenerationSoftware,KiCad,Pcbnew,6.0.8-1.fc36*
G04 #@! TF.CreationDate,2022-10-16T22:13:40-05:00*
G04 #@! TF.ProjectId,Pomodoro,506f6d6f-646f-4726-9f2e-6b696361645f,rev?*
G04 #@! TF.SameCoordinates,Original*
G04 #@! TF.FileFunction,Legend,Top*
G04 #@! TF.FilePolarity,Positive*
%FSLAX46Y46*%
G04 Gerber Fmt 4.6, Leading zero omitted, Abs format (unit mm)*
G04 Created by KiCad (PCBNEW 6.0.8-1.fc36) date 2022-10-16 22:13:40*
%MOMM*%
%LPD*%
G01*
G04 APERTURE LIST*
%ADD10C,0.150000*%
%ADD11C,0.120000*%
G04 APERTURE END LIST*
D10*
X111268571Y-127880952D02*
X111316190Y-127738095D01*
X111363809Y-127690476D01*
X111459047Y-127642857D01*
X111601904Y-127642857D01*
X111697142Y-127690476D01*
X111744761Y-127738095D01*
X111792380Y-127833333D01*
X111792380Y-128214285D01*
X110792380Y-128214285D01*
X110792380Y-127880952D01*
X110840000Y-127785714D01*
X110887619Y-127738095D01*
X110982857Y-127690476D01*
X111078095Y-127690476D01*
X111173333Y-127738095D01*
X111220952Y-127785714D01*
X111268571Y-127880952D01*
X111268571Y-128214285D01*
X110792380Y-127309523D02*
X110792380Y-126642857D01*
X111792380Y-127309523D01*
X111792380Y-126642857D01*
X111792380Y-125738095D02*
X111792380Y-126309523D01*
X111792380Y-126023809D02*
X110792380Y-126023809D01*
X110935238Y-126119047D01*
X111030476Y-126214285D01*
X111078095Y-126309523D01*
X106751428Y-123570952D02*
X106751428Y-122809047D01*
X107132380Y-123190000D02*
X106370476Y-123190000D01*
X112057142Y-118256666D02*
X112104761Y-118304285D01*
X112152380Y-118447142D01*
X112152380Y-118542380D01*
X112104761Y-118685238D01*
X112009523Y-118780476D01*
X111914285Y-118828095D01*
X111723809Y-118875714D01*
X111580952Y-118875714D01*
X111390476Y-118828095D01*
X111295238Y-118780476D01*
X111200000Y-118685238D01*
X111152380Y-118542380D01*
X111152380Y-118447142D01*
X111200000Y-118304285D01*
X111247619Y-118256666D01*
X112152380Y-117304285D02*
X112152380Y-117875714D01*
X112152380Y-117590000D02*
X111152380Y-117590000D01*
X111295238Y-117685238D01*
X111390476Y-117780476D01*
X111438095Y-117875714D01*
X104742380Y-111223095D02*
X103742380Y-111223095D01*
X103742380Y-110985000D01*
X103790000Y-110842142D01*
X103885238Y-110746904D01*
X103980476Y-110699285D01*
X104170952Y-110651666D01*
X104313809Y-110651666D01*
X104504285Y-110699285D01*
X104599523Y-110746904D01*
X104694761Y-110842142D01*
X104742380Y-110985000D01*
X104742380Y-111223095D01*
X104742380Y-109699285D02*
X104742380Y-110270714D01*
X104742380Y-109985000D02*
X103742380Y-109985000D01*
X103885238Y-110080238D01*
X103980476Y-110175476D01*
X104028095Y-110270714D01*
X77654166Y-108917380D02*
X77654166Y-109631666D01*
X77606547Y-109774523D01*
X77511309Y-109869761D01*
X77368452Y-109917380D01*
X77273214Y-109917380D01*
X78654166Y-109917380D02*
X78082738Y-109917380D01*
X78368452Y-109917380D02*
X78368452Y-108917380D01*
X78273214Y-109060238D01*
X78177976Y-109155476D01*
X78082738Y-109203095D01*
X85526666Y-100442380D02*
X85526666Y-101156666D01*
X85479047Y-101299523D01*
X85383809Y-101394761D01*
X85240952Y-101442380D01*
X85145714Y-101442380D01*
X86002857Y-101442380D02*
X86002857Y-100442380D01*
X86383809Y-100442380D01*
X86479047Y-100490000D01*
X86526666Y-100537619D01*
X86574285Y-100632857D01*
X86574285Y-100775714D01*
X86526666Y-100870952D01*
X86479047Y-100918571D01*
X86383809Y-100966190D01*
X86002857Y-100966190D01*
X87526666Y-101442380D02*
X86955238Y-101442380D01*
X87240952Y-101442380D02*
X87240952Y-100442380D01*
X87145714Y-100585238D01*
X87050476Y-100680476D01*
X86955238Y-100728095D01*
X98258333Y-120482380D02*
X97925000Y-120006190D01*
X97686904Y-120482380D02*
X97686904Y-119482380D01*
X98067857Y-119482380D01*
X98163095Y-119530000D01*
X98210714Y-119577619D01*
X98258333Y-119672857D01*
X98258333Y-119815714D01*
X98210714Y-119910952D01*
X98163095Y-119958571D01*
X98067857Y-120006190D01*
X97686904Y-120006190D01*
X99210714Y-120482380D02*
X98639285Y-120482380D01*
X98925000Y-120482380D02*
X98925000Y-119482380D01*
X98829761Y-119625238D01*
X98734523Y-119720476D01*
X98639285Y-119768095D01*
X81113333Y-109037380D02*
X80780000Y-108561190D01*
X80541904Y-109037380D02*
X80541904Y-108037380D01*
X80922857Y-108037380D01*
X81018095Y-108085000D01*
X81065714Y-108132619D01*
X81113333Y-108227857D01*
X81113333Y-108370714D01*
X81065714Y-108465952D01*
X81018095Y-108513571D01*
X80922857Y-108561190D01*
X80541904Y-108561190D01*
X81446666Y-108037380D02*
X82065714Y-108037380D01*
X81732380Y-108418333D01*
X81875238Y-108418333D01*
X81970476Y-108465952D01*
X82018095Y-108513571D01*
X82065714Y-108608809D01*
X82065714Y-108846904D01*
X82018095Y-108942142D01*
X81970476Y-108989761D01*
X81875238Y-109037380D01*
X81589523Y-109037380D01*
X81494285Y-108989761D01*
X81446666Y-108942142D01*
X81851666Y-129944761D02*
X81994523Y-129992380D01*
X82232619Y-129992380D01*
X82327857Y-129944761D01*
X82375476Y-129897142D01*
X82423095Y-129801904D01*
X82423095Y-129706666D01*
X82375476Y-129611428D01*
X82327857Y-129563809D01*
X82232619Y-129516190D01*
X82042142Y-129468571D01*
X81946904Y-129420952D01*
X81899285Y-129373333D01*
X81851666Y-129278095D01*
X81851666Y-129182857D01*
X81899285Y-129087619D01*
X81946904Y-129040000D01*
X82042142Y-128992380D01*
X82280238Y-128992380D01*
X82423095Y-129040000D01*
X82756428Y-128992380D02*
X82994523Y-129992380D01*
X83185000Y-129278095D01*
X83375476Y-129992380D01*
X83613571Y-128992380D01*
X84518333Y-129992380D02*
X83946904Y-129992380D01*
X84232619Y-129992380D02*
X84232619Y-128992380D01*
X84137380Y-129135238D01*
X84042142Y-129230476D01*
X83946904Y-129278095D01*
X88148095Y-110162380D02*
X88148095Y-110971904D01*
X88195714Y-111067142D01*
X88243333Y-111114761D01*
X88338571Y-111162380D01*
X88529047Y-111162380D01*
X88624285Y-111114761D01*
X88671904Y-111067142D01*
X88719523Y-110971904D01*
X88719523Y-110162380D01*
X89719523Y-111162380D02*
X89148095Y-111162380D01*
X89433809Y-111162380D02*
X89433809Y-110162380D01*
X89338571Y-110305238D01*
X89243333Y-110400476D01*
X89148095Y-110448095D01*
X97623333Y-114117380D02*
X97290000Y-113641190D01*
X97051904Y-114117380D02*
X97051904Y-113117380D01*
X97432857Y-113117380D01*
X97528095Y-113165000D01*
X97575714Y-113212619D01*
X97623333Y-113307857D01*
X97623333Y-113450714D01*
X97575714Y-113545952D01*
X97528095Y-113593571D01*
X97432857Y-113641190D01*
X97051904Y-113641190D01*
X98004285Y-113212619D02*
X98051904Y-113165000D01*
X98147142Y-113117380D01*
X98385238Y-113117380D01*
X98480476Y-113165000D01*
X98528095Y-113212619D01*
X98575714Y-113307857D01*
X98575714Y-113403095D01*
X98528095Y-113545952D01*
X97956666Y-114117380D01*
X98575714Y-114117380D01*
D11*
X110240000Y-127000000D02*
G75*
G03*
X110240000Y-127000000I-6100000J0D01*
G01*
X110364000Y-119011000D02*
X108990000Y-119011000D01*
X110500000Y-118490000D02*
X108990000Y-118490000D01*
X106910000Y-119051000D02*
X105552000Y-119051000D01*
X106910000Y-119131000D02*
X105585000Y-119131000D01*
X106910000Y-119771000D02*
X105979000Y-119771000D01*
X109776000Y-119931000D02*
X108990000Y-119931000D01*
X106910000Y-119211000D02*
X105621000Y-119211000D01*
X106910000Y-120331000D02*
X106631000Y-120331000D01*
X109921000Y-119771000D02*
X108990000Y-119771000D01*
X109851000Y-119851000D02*
X108990000Y-119851000D01*
X108865000Y-120531000D02*
X107035000Y-120531000D01*
X110072000Y-119571000D02*
X108990000Y-119571000D01*
X109675000Y-115535225D02*
X109175000Y-115535225D01*
X110451000Y-118730000D02*
X108990000Y-118730000D01*
X110279000Y-119211000D02*
X108990000Y-119211000D01*
X109425000Y-115285225D02*
X109425000Y-115785225D01*
X110430000Y-118811000D02*
X108990000Y-118811000D01*
X106910000Y-120251000D02*
X106507000Y-120251000D01*
X106910000Y-119851000D02*
X106049000Y-119851000D01*
X109735000Y-119971000D02*
X108990000Y-119971000D01*
X110405000Y-118891000D02*
X108990000Y-118891000D01*
X106910000Y-119171000D02*
X105602000Y-119171000D01*
X110015000Y-119651000D02*
X108990000Y-119651000D01*
X110197000Y-119371000D02*
X108990000Y-119371000D01*
X110441000Y-118770000D02*
X108990000Y-118770000D01*
X110486000Y-118570000D02*
X108990000Y-118570000D01*
X106910000Y-119331000D02*
X105682000Y-119331000D01*
X106910000Y-118450000D02*
X105394000Y-118450000D01*
X110150000Y-119451000D02*
X108990000Y-119451000D01*
X106910000Y-118490000D02*
X105400000Y-118490000D01*
X106910000Y-119651000D02*
X105885000Y-119651000D01*
X106910000Y-119691000D02*
X105915000Y-119691000D01*
X110218000Y-119331000D02*
X108990000Y-119331000D01*
X106910000Y-118851000D02*
X105482000Y-118851000D01*
X106910000Y-120171000D02*
X106396000Y-120171000D01*
X109269000Y-120331000D02*
X108990000Y-120331000D01*
X106910000Y-119531000D02*
X105801000Y-119531000D01*
X110523000Y-118290000D02*
X105377000Y-118290000D01*
X110240000Y-119291000D02*
X108990000Y-119291000D01*
X106910000Y-119251000D02*
X105640000Y-119251000D01*
X109048000Y-120451000D02*
X106852000Y-120451000D01*
X109887000Y-119811000D02*
X108990000Y-119811000D01*
X110511000Y-118410000D02*
X108990000Y-118410000D01*
X106910000Y-119371000D02*
X105703000Y-119371000D01*
X106910000Y-119571000D02*
X105828000Y-119571000D01*
X106910000Y-119811000D02*
X106013000Y-119811000D01*
X109814000Y-119891000D02*
X108990000Y-119891000D01*
X109693000Y-120011000D02*
X108990000Y-120011000D01*
X106910000Y-120051000D02*
X106251000Y-120051000D01*
X106910000Y-118570000D02*
X105414000Y-118570000D01*
X106910000Y-120211000D02*
X106450000Y-120211000D01*
X110045000Y-119611000D02*
X108990000Y-119611000D01*
X110125000Y-119491000D02*
X108990000Y-119491000D01*
X109333000Y-120291000D02*
X108990000Y-120291000D01*
X110378000Y-118971000D02*
X108990000Y-118971000D01*
X110528000Y-118210000D02*
X105372000Y-118210000D01*
X106910000Y-119291000D02*
X105660000Y-119291000D01*
X109603000Y-120091000D02*
X108990000Y-120091000D01*
X106910000Y-119971000D02*
X106165000Y-119971000D01*
X106910000Y-120371000D02*
X106699000Y-120371000D01*
X110461000Y-118690000D02*
X108990000Y-118690000D01*
X106910000Y-119731000D02*
X105946000Y-119731000D01*
X109954000Y-119731000D02*
X108990000Y-119731000D01*
X110519000Y-118330000D02*
X108990000Y-118330000D01*
X106910000Y-119891000D02*
X106086000Y-119891000D01*
X106910000Y-118370000D02*
X105385000Y-118370000D01*
X110493000Y-118530000D02*
X108990000Y-118530000D01*
X106910000Y-119611000D02*
X105855000Y-119611000D01*
X106910000Y-120091000D02*
X106297000Y-120091000D01*
X106910000Y-118530000D02*
X105407000Y-118530000D01*
X110260000Y-119251000D02*
X108990000Y-119251000D01*
X106910000Y-120011000D02*
X106207000Y-120011000D01*
X106910000Y-118650000D02*
X105430000Y-118650000D01*
X109393000Y-120251000D02*
X108990000Y-120251000D01*
X110315000Y-119131000D02*
X108990000Y-119131000D01*
X110392000Y-118931000D02*
X108990000Y-118931000D01*
X106910000Y-119931000D02*
X106124000Y-119931000D01*
X106910000Y-118410000D02*
X105389000Y-118410000D01*
X106910000Y-119491000D02*
X105775000Y-119491000D01*
X106910000Y-119091000D02*
X105568000Y-119091000D01*
X106910000Y-120131000D02*
X106345000Y-120131000D01*
X106910000Y-120291000D02*
X106567000Y-120291000D01*
X108961000Y-120491000D02*
X106939000Y-120491000D01*
X110515000Y-118370000D02*
X108990000Y-118370000D01*
X106910000Y-119411000D02*
X105726000Y-119411000D01*
X108468000Y-120651000D02*
X107432000Y-120651000D01*
X106910000Y-118811000D02*
X105470000Y-118811000D01*
X110174000Y-119411000D02*
X108990000Y-119411000D01*
X110418000Y-118851000D02*
X108990000Y-118851000D01*
X110506000Y-118450000D02*
X108990000Y-118450000D01*
X109201000Y-120371000D02*
X108990000Y-120371000D01*
X106910000Y-118931000D02*
X105508000Y-118931000D01*
X106910000Y-118770000D02*
X105459000Y-118770000D01*
X106910000Y-118730000D02*
X105449000Y-118730000D01*
X110470000Y-118650000D02*
X108990000Y-118650000D01*
X108627000Y-120611000D02*
X107273000Y-120611000D01*
X106910000Y-118610000D02*
X105422000Y-118610000D01*
X110332000Y-119091000D02*
X108990000Y-119091000D01*
X110099000Y-119531000D02*
X108990000Y-119531000D01*
X108234000Y-120691000D02*
X107666000Y-120691000D01*
X106910000Y-118971000D02*
X105522000Y-118971000D01*
X106910000Y-119451000D02*
X105750000Y-119451000D01*
X110529000Y-118170000D02*
X105371000Y-118170000D01*
X106910000Y-118330000D02*
X105381000Y-118330000D01*
X109985000Y-119691000D02*
X108990000Y-119691000D01*
X109450000Y-120211000D02*
X108990000Y-120211000D01*
X109128000Y-120411000D02*
X106772000Y-120411000D01*
X106910000Y-118891000D02*
X105495000Y-118891000D01*
X110530000Y-118130000D02*
X105370000Y-118130000D01*
X106910000Y-118690000D02*
X105439000Y-118690000D01*
X110348000Y-119051000D02*
X108990000Y-119051000D01*
X110526000Y-118250000D02*
X105374000Y-118250000D01*
X109555000Y-120131000D02*
X108990000Y-120131000D01*
X110298000Y-119171000D02*
X108990000Y-119171000D01*
X106910000Y-119011000D02*
X105536000Y-119011000D01*
X110530000Y-118090000D02*
X105370000Y-118090000D01*
X109649000Y-120051000D02*
X108990000Y-120051000D01*
X110478000Y-118610000D02*
X108990000Y-118610000D01*
X108755000Y-120571000D02*
X107145000Y-120571000D01*
X109504000Y-120171000D02*
X108990000Y-120171000D01*
X110570000Y-118090000D02*
G75*
G03*
X110570000Y-118090000I-2620000J0D01*
G01*
X101875000Y-107925000D02*
X98785000Y-107925000D01*
X98785170Y-107925000D02*
G75*
G03*
X100330462Y-113475000I1544830J-2560000D01*
G01*
X100329538Y-113475000D02*
G75*
G03*
X101874830Y-107925000I462J2990000D01*
G01*
X102830000Y-110485000D02*
G75*
G03*
X102830000Y-110485000I-2500000J0D01*
G01*
X74737500Y-116055000D02*
X74737500Y-111655000D01*
X82547500Y-110355000D02*
X82547500Y-125855000D01*
X74737500Y-120155000D02*
X73427500Y-120155000D01*
X74737500Y-124555000D02*
X74737500Y-120155000D01*
X73427500Y-116055000D02*
X74737500Y-116055000D01*
X73037500Y-115565000D02*
X72037500Y-115065000D01*
X72037500Y-115065000D02*
X72037500Y-116065000D01*
X82547500Y-125855000D02*
X73427500Y-125855000D01*
X74737500Y-111655000D02*
X81237500Y-111655000D01*
X81237500Y-111655000D02*
X81237500Y-124555000D01*
X72037500Y-116065000D02*
X73037500Y-115565000D01*
X73427500Y-110355000D02*
X82547500Y-110355000D01*
X74737500Y-120155000D02*
X74737500Y-120155000D01*
X81237500Y-124555000D02*
X74737500Y-124555000D01*
X73427500Y-125855000D02*
X73427500Y-110355000D01*
X86360000Y-104860000D02*
X81220000Y-104860000D01*
X81220000Y-102200000D02*
X81220000Y-104860000D01*
X88960000Y-104860000D02*
X87630000Y-104860000D01*
X88960000Y-103530000D02*
X88960000Y-104860000D01*
X86360000Y-102200000D02*
X86360000Y-104860000D01*
X86360000Y-102200000D02*
X81220000Y-102200000D01*
X97775000Y-117190000D02*
X97775000Y-119030000D01*
X101615000Y-119030000D02*
X101615000Y-117190000D01*
X102565000Y-118110000D02*
X101615000Y-118110000D01*
X97775000Y-119030000D02*
X101615000Y-119030000D01*
X101615000Y-117190000D02*
X97775000Y-117190000D01*
X96825000Y-118110000D02*
X97775000Y-118110000D01*
X88915000Y-109505000D02*
X88915000Y-107665000D01*
X88915000Y-107665000D02*
X85075000Y-107665000D01*
X89865000Y-108585000D02*
X88915000Y-108585000D01*
X85075000Y-109505000D02*
X88915000Y-109505000D01*
X85075000Y-107665000D02*
X85075000Y-109505000D01*
X84125000Y-108585000D02*
X85075000Y-108585000D01*
X87210000Y-131230000D02*
X91710000Y-131230000D01*
X85960000Y-127230000D02*
X85960000Y-128730000D01*
X91710000Y-124730000D02*
X87210000Y-124730000D01*
X92960000Y-128730000D02*
X92960000Y-127230000D01*
X83770000Y-111650000D02*
X83770000Y-122050000D01*
X87910000Y-111710000D02*
X86260000Y-111710000D01*
X94050000Y-122050000D02*
X94050000Y-111650000D01*
X94050000Y-111650000D02*
X83770000Y-111650000D01*
X91560000Y-121990000D02*
X91560000Y-111710000D01*
X86260000Y-111710000D02*
X86260000Y-121990000D01*
X83770000Y-122050000D02*
X94050000Y-122050000D01*
X86260000Y-121990000D02*
X91560000Y-121990000D01*
X91560000Y-111710000D02*
X89910000Y-111710000D01*
X87910000Y-111710000D02*
G75*
G03*
X89910000Y-111710000I1000000J0D01*
G01*
X101615000Y-116490000D02*
X101615000Y-114650000D01*
X97775000Y-116490000D02*
X101615000Y-116490000D01*
X96825000Y-115570000D02*
X97775000Y-115570000D01*
X101615000Y-114650000D02*
X97775000Y-114650000D01*
X102565000Y-115570000D02*
X101615000Y-115570000D01*
X97775000Y-114650000D02*
X97775000Y-116490000D01*
M02*
