G04 #@! TF.GenerationSoftware,KiCad,Pcbnew,6.0.8-1.fc36*
G04 #@! TF.CreationDate,2022-10-16T22:13:39-05:00*
G04 #@! TF.ProjectId,Pomodoro,506f6d6f-646f-4726-9f2e-6b696361645f,rev?*
G04 #@! TF.SameCoordinates,Original*
G04 #@! TF.FileFunction,Copper,L1,Top*
G04 #@! TF.FilePolarity,Positive*
%FSLAX46Y46*%
G04 Gerber Fmt 4.6, Leading zero omitted, Abs format (unit mm)*
G04 Created by KiCad (PCBNEW 6.0.8-1.fc36) date 2022-10-16 22:13:39*
%MOMM*%
%LPD*%
G01*
G04 APERTURE LIST*
G04 Aperture macros list*
%AMRoundRect*
0 Rectangle with rounded corners*
0 $1 Rounding radius*
0 $2 $3 $4 $5 $6 $7 $8 $9 X,Y pos of 4 corners*
0 Add a 4 corners polygon primitive as box body*
4,1,4,$2,$3,$4,$5,$6,$7,$8,$9,$2,$3,0*
0 Add four circle primitives for the rounded corners*
1,1,$1+$1,$2,$3*
1,1,$1+$1,$4,$5*
1,1,$1+$1,$6,$7*
1,1,$1+$1,$8,$9*
0 Add four rect primitives between the rounded corners*
20,1,$1+$1,$2,$3,$4,$5,0*
20,1,$1+$1,$4,$5,$6,$7,0*
20,1,$1+$1,$6,$7,$8,$9,0*
20,1,$1+$1,$8,$9,$2,$3,0*%
G04 Aperture macros list end*
G04 #@! TA.AperFunction,ComponentPad*
%ADD10R,2.000000X2.000000*%
G04 #@! TD*
G04 #@! TA.AperFunction,ComponentPad*
%ADD11C,2.000000*%
G04 #@! TD*
G04 #@! TA.AperFunction,ComponentPad*
%ADD12R,1.600000X1.600000*%
G04 #@! TD*
G04 #@! TA.AperFunction,ComponentPad*
%ADD13C,1.600000*%
G04 #@! TD*
G04 #@! TA.AperFunction,ComponentPad*
%ADD14R,1.800000X1.800000*%
G04 #@! TD*
G04 #@! TA.AperFunction,ComponentPad*
%ADD15C,1.800000*%
G04 #@! TD*
G04 #@! TA.AperFunction,ComponentPad*
%ADD16RoundRect,0.250000X-0.600000X-0.600000X0.600000X-0.600000X0.600000X0.600000X-0.600000X0.600000X0*%
G04 #@! TD*
G04 #@! TA.AperFunction,ComponentPad*
%ADD17C,1.700000*%
G04 #@! TD*
G04 #@! TA.AperFunction,ComponentPad*
%ADD18R,1.700000X1.700000*%
G04 #@! TD*
G04 #@! TA.AperFunction,ComponentPad*
%ADD19O,1.700000X1.700000*%
G04 #@! TD*
G04 #@! TA.AperFunction,ComponentPad*
%ADD20C,1.400000*%
G04 #@! TD*
G04 #@! TA.AperFunction,ComponentPad*
%ADD21O,1.400000X1.400000*%
G04 #@! TD*
G04 #@! TA.AperFunction,ComponentPad*
%ADD22O,1.600000X1.600000*%
G04 #@! TD*
G04 #@! TA.AperFunction,ComponentPad*
%ADD23R,3.000000X3.000000*%
G04 #@! TD*
G04 #@! TA.AperFunction,ComponentPad*
%ADD24C,3.000000*%
G04 #@! TD*
G04 #@! TA.AperFunction,Conductor*
%ADD25C,0.250000*%
G04 #@! TD*
G04 APERTURE END LIST*
D10*
X104140000Y-123200000D03*
D11*
X104140000Y-130800000D03*
D12*
X107950000Y-116840000D03*
D13*
X107950000Y-119340000D03*
D14*
X100330000Y-109215000D03*
D15*
X100330000Y-111755000D03*
D16*
X76717500Y-115565000D03*
D17*
X79257500Y-115565000D03*
X76717500Y-118105000D03*
X79257500Y-118105000D03*
X76717500Y-120645000D03*
X79257500Y-120645000D03*
D18*
X87630000Y-103530000D03*
D19*
X85090000Y-103530000D03*
X82550000Y-103530000D03*
D20*
X103505000Y-118110000D03*
D21*
X95885000Y-118110000D03*
D20*
X83185000Y-108585000D03*
D21*
X90805000Y-108585000D03*
D11*
X92710000Y-125730000D03*
X86210000Y-125730000D03*
X86210000Y-130230000D03*
X92710000Y-130230000D03*
D12*
X85100000Y-113040000D03*
D22*
X85100000Y-115580000D03*
X85100000Y-118120000D03*
X85100000Y-120660000D03*
X92720000Y-120660000D03*
X92720000Y-118120000D03*
X92720000Y-115580000D03*
X92720000Y-113040000D03*
D20*
X95885000Y-115570000D03*
D21*
X103505000Y-115570000D03*
D23*
X95885000Y-102628920D03*
D24*
X95885000Y-123118920D03*
D25*
X92710000Y-108585000D02*
X88265000Y-108585000D01*
X107950000Y-116840000D02*
X106744888Y-115634888D01*
X105410000Y-113665000D02*
X106744888Y-114999888D01*
X88265000Y-108585000D02*
X85090000Y-105410000D01*
X92710000Y-108585000D02*
X92710000Y-113030000D01*
X95250000Y-113665000D02*
X105410000Y-113665000D01*
X92720000Y-113040000D02*
X94625000Y-113040000D01*
X92710000Y-113030000D02*
X92720000Y-113040000D01*
X94625000Y-113040000D02*
X95250000Y-113665000D01*
X85090000Y-103530000D02*
X85090000Y-105410000D01*
X106744888Y-114999888D02*
X106744888Y-115634888D01*
X95885000Y-127055000D02*
X95885000Y-123118920D01*
X109244888Y-114324888D02*
X104135000Y-109215000D01*
X92710000Y-130230000D02*
X86210000Y-130230000D01*
X85100000Y-123180000D02*
X83185000Y-125095000D01*
X79257500Y-120645000D02*
X85085000Y-120645000D01*
X104140000Y-128905000D02*
X109244888Y-123800112D01*
X104140000Y-130800000D02*
X104140000Y-128905000D01*
X107910000Y-119340000D02*
X109220000Y-120650000D01*
X92710000Y-130230000D02*
X95885000Y-127055000D01*
X85085000Y-120645000D02*
X85100000Y-120660000D01*
X109244888Y-123800112D02*
X109244888Y-116840000D01*
X104135000Y-109215000D02*
X100330000Y-109215000D01*
X104140000Y-130800000D02*
X99630000Y-130800000D01*
X109244888Y-116840000D02*
X109244888Y-114324888D01*
X99630000Y-130800000D02*
X95885000Y-127055000D01*
X85100000Y-120660000D02*
X85100000Y-123180000D01*
X83185000Y-127205000D02*
X86210000Y-130230000D01*
X83185000Y-125095000D02*
X83185000Y-127205000D01*
X85100000Y-113040000D02*
X85100000Y-110500000D01*
X85100000Y-110500000D02*
X83185000Y-108585000D01*
X79257500Y-108702500D02*
X82550000Y-105410000D01*
X79257500Y-115565000D02*
X79257500Y-108702500D01*
X82550000Y-105410000D02*
X82550000Y-103530000D01*
X95885000Y-115570000D02*
X92730000Y-115570000D01*
X92730000Y-115570000D02*
X92720000Y-115580000D01*
X92730000Y-118110000D02*
X92720000Y-118120000D01*
X95885000Y-118110000D02*
X92730000Y-118110000D01*
X80687500Y-119535000D02*
X91346041Y-119535000D01*
X91346041Y-119535000D02*
X92285000Y-120473959D01*
X92285000Y-120473959D02*
X92285000Y-120660000D01*
X86210000Y-125730000D02*
X92710000Y-125730000D01*
X92710000Y-125730000D02*
X92710000Y-120670000D01*
X79257500Y-118105000D02*
X80687500Y-119535000D01*
X92710000Y-120670000D02*
X92720000Y-120660000D01*
X87630000Y-105410000D02*
X93103920Y-105410000D01*
X87630000Y-103530000D02*
X87630000Y-105410000D01*
X93103920Y-105410000D02*
X95885000Y-102628920D01*
X100965000Y-116205000D02*
X100965000Y-120025000D01*
X101600000Y-115570000D02*
X100965000Y-116205000D01*
X100965000Y-120025000D02*
X104140000Y-123200000D01*
X103505000Y-115570000D02*
X101600000Y-115570000D01*
G04 #@! TA.AperFunction,Conductor*
G36*
X113733621Y-99588502D02*
G01*
X113780114Y-99642158D01*
X113791500Y-99694500D01*
X113791500Y-133350500D01*
X113771498Y-133418621D01*
X113717842Y-133465114D01*
X113665500Y-133476500D01*
X70484500Y-133476500D01*
X70416379Y-133456498D01*
X70369886Y-133402842D01*
X70358500Y-133350500D01*
X70358500Y-132032670D01*
X103272160Y-132032670D01*
X103277887Y-132040320D01*
X103449042Y-132145205D01*
X103457837Y-132149687D01*
X103667988Y-132236734D01*
X103677373Y-132239783D01*
X103898554Y-132292885D01*
X103908301Y-132294428D01*
X104135070Y-132312275D01*
X104144930Y-132312275D01*
X104371699Y-132294428D01*
X104381446Y-132292885D01*
X104602627Y-132239783D01*
X104612012Y-132236734D01*
X104822163Y-132149687D01*
X104830958Y-132145205D01*
X104998445Y-132042568D01*
X105007907Y-132032110D01*
X105004124Y-132023334D01*
X104152812Y-131172022D01*
X104138868Y-131164408D01*
X104137035Y-131164539D01*
X104130420Y-131168790D01*
X103278920Y-132020290D01*
X103272160Y-132032670D01*
X70358500Y-132032670D01*
X70358500Y-131462670D01*
X85342160Y-131462670D01*
X85347887Y-131470320D01*
X85519042Y-131575205D01*
X85527837Y-131579687D01*
X85737988Y-131666734D01*
X85747373Y-131669783D01*
X85968554Y-131722885D01*
X85978301Y-131724428D01*
X86205070Y-131742275D01*
X86214930Y-131742275D01*
X86441699Y-131724428D01*
X86451446Y-131722885D01*
X86672627Y-131669783D01*
X86682012Y-131666734D01*
X86892163Y-131579687D01*
X86900958Y-131575205D01*
X87068445Y-131472568D01*
X87077400Y-131462670D01*
X91842160Y-131462670D01*
X91847887Y-131470320D01*
X92019042Y-131575205D01*
X92027837Y-131579687D01*
X92237988Y-131666734D01*
X92247373Y-131669783D01*
X92468554Y-131722885D01*
X92478301Y-131724428D01*
X92705070Y-131742275D01*
X92714930Y-131742275D01*
X92941699Y-131724428D01*
X92951446Y-131722885D01*
X93172627Y-131669783D01*
X93182012Y-131666734D01*
X93392163Y-131579687D01*
X93400958Y-131575205D01*
X93568445Y-131472568D01*
X93577907Y-131462110D01*
X93574124Y-131453334D01*
X92722812Y-130602022D01*
X92708868Y-130594408D01*
X92707035Y-130594539D01*
X92700420Y-130598790D01*
X91848920Y-131450290D01*
X91842160Y-131462670D01*
X87077400Y-131462670D01*
X87077907Y-131462110D01*
X87074124Y-131453334D01*
X86222812Y-130602022D01*
X86208868Y-130594408D01*
X86207035Y-130594539D01*
X86200420Y-130598790D01*
X85348920Y-131450290D01*
X85342160Y-131462670D01*
X70358500Y-131462670D01*
X70358500Y-130234930D01*
X84697725Y-130234930D01*
X84715572Y-130461699D01*
X84717115Y-130471446D01*
X84770217Y-130692627D01*
X84773266Y-130702012D01*
X84860313Y-130912163D01*
X84864795Y-130920958D01*
X84967432Y-131088445D01*
X84977890Y-131097907D01*
X84986666Y-131094124D01*
X85837978Y-130242812D01*
X85844356Y-130231132D01*
X86574408Y-130231132D01*
X86574539Y-130232965D01*
X86578790Y-130239580D01*
X87430290Y-131091080D01*
X87442670Y-131097840D01*
X87450320Y-131092113D01*
X87555205Y-130920958D01*
X87559687Y-130912163D01*
X87646734Y-130702012D01*
X87649783Y-130692627D01*
X87702885Y-130471446D01*
X87704428Y-130461699D01*
X87722275Y-130234930D01*
X91197725Y-130234930D01*
X91215572Y-130461699D01*
X91217115Y-130471446D01*
X91270217Y-130692627D01*
X91273266Y-130702012D01*
X91360313Y-130912163D01*
X91364795Y-130920958D01*
X91467432Y-131088445D01*
X91477890Y-131097907D01*
X91486666Y-131094124D01*
X92337978Y-130242812D01*
X92344356Y-130231132D01*
X93074408Y-130231132D01*
X93074539Y-130232965D01*
X93078790Y-130239580D01*
X93930290Y-131091080D01*
X93942670Y-131097840D01*
X93950320Y-131092113D01*
X94055205Y-130920958D01*
X94059687Y-130912163D01*
X94104104Y-130804930D01*
X102627725Y-130804930D01*
X102645572Y-131031699D01*
X102647115Y-131041446D01*
X102700217Y-131262627D01*
X102703266Y-131272012D01*
X102790313Y-131482163D01*
X102794795Y-131490958D01*
X102897432Y-131658445D01*
X102907890Y-131667907D01*
X102916666Y-131664124D01*
X103767978Y-130812812D01*
X103774356Y-130801132D01*
X104504408Y-130801132D01*
X104504539Y-130802965D01*
X104508790Y-130809580D01*
X105360290Y-131661080D01*
X105372670Y-131667840D01*
X105380320Y-131662113D01*
X105485205Y-131490958D01*
X105489687Y-131482163D01*
X105576734Y-131272012D01*
X105579783Y-131262627D01*
X105632885Y-131041446D01*
X105634428Y-131031699D01*
X105652275Y-130804930D01*
X105652275Y-130795070D01*
X105634428Y-130568301D01*
X105632885Y-130558554D01*
X105579783Y-130337373D01*
X105576734Y-130327988D01*
X105489687Y-130117837D01*
X105485205Y-130109042D01*
X105382568Y-129941555D01*
X105372110Y-129932093D01*
X105363334Y-129935876D01*
X104512022Y-130787188D01*
X104504408Y-130801132D01*
X103774356Y-130801132D01*
X103775592Y-130798868D01*
X103775461Y-130797035D01*
X103771210Y-130790420D01*
X102919710Y-129938920D01*
X102907330Y-129932160D01*
X102899680Y-129937887D01*
X102794795Y-130109042D01*
X102790313Y-130117837D01*
X102703266Y-130327988D01*
X102700217Y-130337373D01*
X102647115Y-130558554D01*
X102645572Y-130568301D01*
X102627725Y-130795070D01*
X102627725Y-130804930D01*
X94104104Y-130804930D01*
X94146734Y-130702012D01*
X94149783Y-130692627D01*
X94202885Y-130471446D01*
X94204428Y-130461699D01*
X94222275Y-130234930D01*
X94222275Y-130225070D01*
X94204428Y-129998301D01*
X94202885Y-129988554D01*
X94149783Y-129767373D01*
X94146734Y-129757988D01*
X94067993Y-129567890D01*
X103272093Y-129567890D01*
X103275876Y-129576666D01*
X104127188Y-130427978D01*
X104141132Y-130435592D01*
X104142965Y-130435461D01*
X104149580Y-130431210D01*
X105001080Y-129579710D01*
X105007840Y-129567330D01*
X105002113Y-129559680D01*
X104830958Y-129454795D01*
X104822163Y-129450313D01*
X104612012Y-129363266D01*
X104602627Y-129360217D01*
X104381446Y-129307115D01*
X104371699Y-129305572D01*
X104144930Y-129287725D01*
X104135070Y-129287725D01*
X103908301Y-129305572D01*
X103898554Y-129307115D01*
X103677373Y-129360217D01*
X103667988Y-129363266D01*
X103457837Y-129450313D01*
X103449042Y-129454795D01*
X103281555Y-129557432D01*
X103272093Y-129567890D01*
X94067993Y-129567890D01*
X94059687Y-129547837D01*
X94055205Y-129539042D01*
X93952568Y-129371555D01*
X93942110Y-129362093D01*
X93933334Y-129365876D01*
X93082022Y-130217188D01*
X93074408Y-130231132D01*
X92344356Y-130231132D01*
X92345592Y-130228868D01*
X92345461Y-130227035D01*
X92341210Y-130220420D01*
X91489710Y-129368920D01*
X91477330Y-129362160D01*
X91469680Y-129367887D01*
X91364795Y-129539042D01*
X91360313Y-129547837D01*
X91273266Y-129757988D01*
X91270217Y-129767373D01*
X91217115Y-129988554D01*
X91215572Y-129998301D01*
X91197725Y-130225070D01*
X91197725Y-130234930D01*
X87722275Y-130234930D01*
X87722275Y-130225070D01*
X87704428Y-129998301D01*
X87702885Y-129988554D01*
X87649783Y-129767373D01*
X87646734Y-129757988D01*
X87559687Y-129547837D01*
X87555205Y-129539042D01*
X87452568Y-129371555D01*
X87442110Y-129362093D01*
X87433334Y-129365876D01*
X86582022Y-130217188D01*
X86574408Y-130231132D01*
X85844356Y-130231132D01*
X85845592Y-130228868D01*
X85845461Y-130227035D01*
X85841210Y-130220420D01*
X84989710Y-129368920D01*
X84977330Y-129362160D01*
X84969680Y-129367887D01*
X84864795Y-129539042D01*
X84860313Y-129547837D01*
X84773266Y-129757988D01*
X84770217Y-129767373D01*
X84717115Y-129988554D01*
X84715572Y-129998301D01*
X84697725Y-130225070D01*
X84697725Y-130234930D01*
X70358500Y-130234930D01*
X70358500Y-128997890D01*
X85342093Y-128997890D01*
X85345876Y-129006666D01*
X86197188Y-129857978D01*
X86211132Y-129865592D01*
X86212965Y-129865461D01*
X86219580Y-129861210D01*
X87071080Y-129009710D01*
X87077534Y-128997890D01*
X91842093Y-128997890D01*
X91845876Y-129006666D01*
X92697188Y-129857978D01*
X92711132Y-129865592D01*
X92712965Y-129865461D01*
X92719580Y-129861210D01*
X93571080Y-129009710D01*
X93577840Y-128997330D01*
X93572113Y-128989680D01*
X93400958Y-128884795D01*
X93392163Y-128880313D01*
X93182012Y-128793266D01*
X93172627Y-128790217D01*
X92951446Y-128737115D01*
X92941699Y-128735572D01*
X92714930Y-128717725D01*
X92705070Y-128717725D01*
X92478301Y-128735572D01*
X92468554Y-128737115D01*
X92247373Y-128790217D01*
X92237988Y-128793266D01*
X92027837Y-128880313D01*
X92019042Y-128884795D01*
X91851555Y-128987432D01*
X91842093Y-128997890D01*
X87077534Y-128997890D01*
X87077840Y-128997330D01*
X87072113Y-128989680D01*
X86900958Y-128884795D01*
X86892163Y-128880313D01*
X86682012Y-128793266D01*
X86672627Y-128790217D01*
X86451446Y-128737115D01*
X86441699Y-128735572D01*
X86214930Y-128717725D01*
X86205070Y-128717725D01*
X85978301Y-128735572D01*
X85968554Y-128737115D01*
X85747373Y-128790217D01*
X85737988Y-128793266D01*
X85527837Y-128880313D01*
X85519042Y-128884795D01*
X85351555Y-128987432D01*
X85342093Y-128997890D01*
X70358500Y-128997890D01*
X70358500Y-120611695D01*
X75354751Y-120611695D01*
X75355048Y-120616848D01*
X75355048Y-120616851D01*
X75357410Y-120657812D01*
X75367610Y-120834715D01*
X75368747Y-120839761D01*
X75368748Y-120839767D01*
X75389421Y-120931497D01*
X75416722Y-121052639D01*
X75456819Y-121151387D01*
X75487499Y-121226942D01*
X75500766Y-121259616D01*
X75617487Y-121450088D01*
X75763750Y-121618938D01*
X75935626Y-121761632D01*
X76128500Y-121874338D01*
X76133325Y-121876180D01*
X76133326Y-121876181D01*
X76173416Y-121891490D01*
X76337192Y-121954030D01*
X76342260Y-121955061D01*
X76342263Y-121955062D01*
X76447104Y-121976392D01*
X76556097Y-121998567D01*
X76561272Y-121998757D01*
X76561274Y-121998757D01*
X76774173Y-122006564D01*
X76774177Y-122006564D01*
X76779337Y-122006753D01*
X76784457Y-122006097D01*
X76784459Y-122006097D01*
X76995788Y-121979025D01*
X76995789Y-121979025D01*
X77000916Y-121978368D01*
X77005866Y-121976883D01*
X77209929Y-121915661D01*
X77209934Y-121915659D01*
X77214884Y-121914174D01*
X77415494Y-121815896D01*
X77480044Y-121769853D01*
X78497477Y-121769853D01*
X78502758Y-121776907D01*
X78664256Y-121871279D01*
X78673542Y-121875729D01*
X78872501Y-121951703D01*
X78882399Y-121954579D01*
X79091095Y-121997038D01*
X79101323Y-121998257D01*
X79314150Y-122006062D01*
X79324436Y-122005595D01*
X79535685Y-121978534D01*
X79545762Y-121976392D01*
X79749755Y-121915191D01*
X79759342Y-121911433D01*
X79950598Y-121817738D01*
X79959444Y-121812465D01*
X80006747Y-121778723D01*
X80015148Y-121768023D01*
X80008160Y-121754870D01*
X79270312Y-121017022D01*
X79256368Y-121009408D01*
X79254535Y-121009539D01*
X79247920Y-121013790D01*
X78504237Y-121757473D01*
X78497477Y-121769853D01*
X77480044Y-121769853D01*
X77597360Y-121686173D01*
X77612087Y-121671498D01*
X77751935Y-121532137D01*
X77755596Y-121528489D01*
X77772978Y-121504300D01*
X77885953Y-121347077D01*
X77887140Y-121347930D01*
X77934460Y-121304362D01*
X78004397Y-121292145D01*
X78069838Y-121319678D01*
X78097666Y-121351512D01*
X78123959Y-121394419D01*
X78134416Y-121403880D01*
X78143194Y-121400096D01*
X78885478Y-120657812D01*
X78893092Y-120643868D01*
X78892961Y-120642035D01*
X78888710Y-120635420D01*
X78147349Y-119894059D01*
X78135813Y-119887759D01*
X78123531Y-119897382D01*
X78090999Y-119945072D01*
X78036087Y-119990075D01*
X77965563Y-119998246D01*
X77901816Y-119966992D01*
X77881118Y-119942508D01*
X77800322Y-119817617D01*
X77800320Y-119817614D01*
X77797514Y-119813277D01*
X77647170Y-119648051D01*
X77643119Y-119644852D01*
X77643115Y-119644848D01*
X77475914Y-119512800D01*
X77475910Y-119512798D01*
X77471859Y-119509598D01*
X77430553Y-119486796D01*
X77380584Y-119436364D01*
X77365812Y-119366921D01*
X77390928Y-119300516D01*
X77418280Y-119273909D01*
X77462103Y-119242650D01*
X77597360Y-119146173D01*
X77626153Y-119117481D01*
X77751935Y-118992137D01*
X77755596Y-118988489D01*
X77764864Y-118975592D01*
X77885953Y-118807077D01*
X77887276Y-118808028D01*
X77934145Y-118764857D01*
X78004080Y-118752625D01*
X78069526Y-118780144D01*
X78097375Y-118811994D01*
X78157487Y-118910088D01*
X78303750Y-119078938D01*
X78475626Y-119221632D01*
X78520122Y-119247633D01*
X78549455Y-119264774D01*
X78598179Y-119316412D01*
X78611250Y-119386195D01*
X78584519Y-119451967D01*
X78544062Y-119485327D01*
X78535960Y-119489544D01*
X78527234Y-119495039D01*
X78507177Y-119510099D01*
X78498723Y-119521427D01*
X78505468Y-119533758D01*
X80367974Y-121396264D01*
X80379984Y-121402823D01*
X80391723Y-121393855D01*
X80422504Y-121351019D01*
X80427815Y-121342180D01*
X80522170Y-121151267D01*
X80525969Y-121141672D01*
X80587876Y-120937915D01*
X80590055Y-120927834D01*
X80590228Y-120926522D01*
X83817273Y-120926522D01*
X83864764Y-121103761D01*
X83868510Y-121114053D01*
X83960586Y-121311511D01*
X83966069Y-121321007D01*
X84091028Y-121499467D01*
X84098084Y-121507875D01*
X84252125Y-121661916D01*
X84260533Y-121668972D01*
X84438993Y-121793931D01*
X84448489Y-121799414D01*
X84645947Y-121891490D01*
X84656239Y-121895236D01*
X84828503Y-121941394D01*
X84842599Y-121941058D01*
X84846000Y-121933116D01*
X84846000Y-121927967D01*
X85354000Y-121927967D01*
X85357973Y-121941498D01*
X85366522Y-121942727D01*
X85543761Y-121895236D01*
X85554053Y-121891490D01*
X85751511Y-121799414D01*
X85761007Y-121793931D01*
X85939467Y-121668972D01*
X85947875Y-121661916D01*
X86101916Y-121507875D01*
X86108972Y-121499467D01*
X86233931Y-121321007D01*
X86239414Y-121311511D01*
X86331490Y-121114053D01*
X86335236Y-121103761D01*
X86381394Y-120931497D01*
X86381058Y-120917401D01*
X86373116Y-120914000D01*
X85372115Y-120914000D01*
X85356876Y-120918475D01*
X85355671Y-120919865D01*
X85354000Y-120927548D01*
X85354000Y-121927967D01*
X84846000Y-121927967D01*
X84846000Y-120932115D01*
X84841525Y-120916876D01*
X84840135Y-120915671D01*
X84832452Y-120914000D01*
X83832033Y-120914000D01*
X83818502Y-120917973D01*
X83817273Y-120926522D01*
X80590228Y-120926522D01*
X80618090Y-120714887D01*
X80618609Y-120708212D01*
X80620072Y-120648364D01*
X80619878Y-120641646D01*
X80602281Y-120427604D01*
X80600596Y-120417424D01*
X80577979Y-120327382D01*
X80580783Y-120256441D01*
X80621496Y-120198277D01*
X80688327Y-120171245D01*
X80711455Y-120169059D01*
X80723311Y-120168500D01*
X83713349Y-120168500D01*
X83781470Y-120188502D01*
X83827963Y-120242158D01*
X83838067Y-120312432D01*
X83835056Y-120327111D01*
X83818606Y-120388503D01*
X83818942Y-120402599D01*
X83826884Y-120406000D01*
X86367967Y-120406000D01*
X86381498Y-120402027D01*
X86382727Y-120393478D01*
X86364944Y-120327111D01*
X86366634Y-120256134D01*
X86406428Y-120197339D01*
X86471693Y-120169391D01*
X86486651Y-120168500D01*
X91031447Y-120168500D01*
X91099568Y-120188502D01*
X91120542Y-120205405D01*
X91378522Y-120463385D01*
X91412548Y-120525697D01*
X91414948Y-120563462D01*
X91408108Y-120641646D01*
X91406502Y-120660000D01*
X91426457Y-120888087D01*
X91427881Y-120893400D01*
X91427881Y-120893402D01*
X91469198Y-121047596D01*
X91485716Y-121109243D01*
X91488039Y-121114224D01*
X91488039Y-121114225D01*
X91580151Y-121311762D01*
X91580154Y-121311767D01*
X91582477Y-121316749D01*
X91636467Y-121393855D01*
X91697512Y-121481035D01*
X91713802Y-121504300D01*
X91875700Y-121666198D01*
X91880208Y-121669355D01*
X91880211Y-121669357D01*
X92022771Y-121769179D01*
X92067099Y-121824636D01*
X92076500Y-121872392D01*
X92076500Y-124278434D01*
X92056498Y-124346555D01*
X92016335Y-124385867D01*
X91824798Y-124503241D01*
X91824792Y-124503245D01*
X91820584Y-124505824D01*
X91640031Y-124660031D01*
X91485824Y-124840584D01*
X91483245Y-124844792D01*
X91483241Y-124844798D01*
X91365867Y-125036335D01*
X91313219Y-125083966D01*
X91258434Y-125096500D01*
X87661566Y-125096500D01*
X87593445Y-125076498D01*
X87554133Y-125036335D01*
X87436759Y-124844798D01*
X87436755Y-124844792D01*
X87434176Y-124840584D01*
X87279969Y-124660031D01*
X87099416Y-124505824D01*
X87095208Y-124503245D01*
X87095202Y-124503241D01*
X86901183Y-124384346D01*
X86896963Y-124381760D01*
X86892393Y-124379867D01*
X86892389Y-124379865D01*
X86682167Y-124292789D01*
X86682165Y-124292788D01*
X86677594Y-124290895D01*
X86597391Y-124271640D01*
X86451524Y-124236620D01*
X86451518Y-124236619D01*
X86446711Y-124235465D01*
X86210000Y-124216835D01*
X85973289Y-124235465D01*
X85968482Y-124236619D01*
X85968476Y-124236620D01*
X85822609Y-124271640D01*
X85742406Y-124290895D01*
X85737835Y-124292788D01*
X85737833Y-124292789D01*
X85527611Y-124379865D01*
X85527607Y-124379867D01*
X85523037Y-124381760D01*
X85518817Y-124384346D01*
X85324798Y-124503241D01*
X85324792Y-124503245D01*
X85320584Y-124505824D01*
X85140031Y-124660031D01*
X84985824Y-124840584D01*
X84983245Y-124844792D01*
X84983241Y-124844798D01*
X84871236Y-125027573D01*
X84861760Y-125043037D01*
X84859867Y-125047607D01*
X84859865Y-125047611D01*
X84839615Y-125096500D01*
X84770895Y-125262406D01*
X84715465Y-125493289D01*
X84696835Y-125730000D01*
X84715465Y-125966711D01*
X84770895Y-126197594D01*
X84772788Y-126202165D01*
X84772789Y-126202167D01*
X84844807Y-126376034D01*
X84861760Y-126416963D01*
X84864346Y-126421183D01*
X84983241Y-126615202D01*
X84983245Y-126615208D01*
X84985824Y-126619416D01*
X85140031Y-126799969D01*
X85320584Y-126954176D01*
X85324792Y-126956755D01*
X85324798Y-126956759D01*
X85518817Y-127075654D01*
X85523037Y-127078240D01*
X85527607Y-127080133D01*
X85527611Y-127080135D01*
X85737833Y-127167211D01*
X85742406Y-127169105D01*
X85822609Y-127188360D01*
X85968476Y-127223380D01*
X85968482Y-127223381D01*
X85973289Y-127224535D01*
X86210000Y-127243165D01*
X86446711Y-127224535D01*
X86451518Y-127223381D01*
X86451524Y-127223380D01*
X86597391Y-127188360D01*
X86677594Y-127169105D01*
X86682167Y-127167211D01*
X86892389Y-127080135D01*
X86892393Y-127080133D01*
X86896963Y-127078240D01*
X86901183Y-127075654D01*
X87095202Y-126956759D01*
X87095208Y-126956755D01*
X87099416Y-126954176D01*
X87279969Y-126799969D01*
X87434176Y-126619416D01*
X87436755Y-126615208D01*
X87436759Y-126615202D01*
X87554133Y-126423665D01*
X87606781Y-126376034D01*
X87661566Y-126363500D01*
X91258434Y-126363500D01*
X91326555Y-126383502D01*
X91365867Y-126423665D01*
X91483241Y-126615202D01*
X91483245Y-126615208D01*
X91485824Y-126619416D01*
X91640031Y-126799969D01*
X91820584Y-126954176D01*
X91824792Y-126956755D01*
X91824798Y-126956759D01*
X92018817Y-127075654D01*
X92023037Y-127078240D01*
X92027607Y-127080133D01*
X92027611Y-127080135D01*
X92237833Y-127167211D01*
X92242406Y-127169105D01*
X92322609Y-127188360D01*
X92468476Y-127223380D01*
X92468482Y-127223381D01*
X92473289Y-127224535D01*
X92710000Y-127243165D01*
X92946711Y-127224535D01*
X92951518Y-127223381D01*
X92951524Y-127223380D01*
X93097391Y-127188360D01*
X93177594Y-127169105D01*
X93182167Y-127167211D01*
X93392389Y-127080135D01*
X93392393Y-127080133D01*
X93396963Y-127078240D01*
X93401183Y-127075654D01*
X93595202Y-126956759D01*
X93595208Y-126956755D01*
X93599416Y-126954176D01*
X93779969Y-126799969D01*
X93934176Y-126619416D01*
X93936755Y-126615208D01*
X93936759Y-126615202D01*
X94055654Y-126421183D01*
X94058240Y-126416963D01*
X94075194Y-126376034D01*
X94147211Y-126202167D01*
X94147212Y-126202165D01*
X94149105Y-126197594D01*
X94204535Y-125966711D01*
X94223165Y-125730000D01*
X94204535Y-125493289D01*
X94149105Y-125262406D01*
X94080385Y-125096500D01*
X94060135Y-125047611D01*
X94060133Y-125047607D01*
X94058240Y-125043037D01*
X94048764Y-125027573D01*
X93936759Y-124844798D01*
X93936755Y-124844792D01*
X93934176Y-124840584D01*
X93821429Y-124708574D01*
X94660618Y-124708574D01*
X94667673Y-124718547D01*
X94698679Y-124744471D01*
X94705598Y-124749499D01*
X94930272Y-124890435D01*
X94937807Y-124894476D01*
X95179520Y-125003614D01*
X95187551Y-125006600D01*
X95441832Y-125081922D01*
X95450184Y-125083789D01*
X95712340Y-125123904D01*
X95720874Y-125124620D01*
X95986045Y-125128787D01*
X95994596Y-125128338D01*
X96257883Y-125096477D01*
X96266284Y-125094875D01*
X96522824Y-125027573D01*
X96530926Y-125024846D01*
X96775949Y-124923354D01*
X96783617Y-124919548D01*
X97012598Y-124785742D01*
X97019679Y-124780929D01*
X97099655Y-124718221D01*
X97108125Y-124706362D01*
X97101608Y-124694738D01*
X95897812Y-123490942D01*
X95883868Y-123483328D01*
X95882035Y-123483459D01*
X95875420Y-123487710D01*
X94667910Y-124695220D01*
X94660618Y-124708574D01*
X93821429Y-124708574D01*
X93779969Y-124660031D01*
X93599416Y-124505824D01*
X93595208Y-124503245D01*
X93595202Y-124503241D01*
X93403665Y-124385867D01*
X93356034Y-124333219D01*
X93343500Y-124278434D01*
X93343500Y-123102124D01*
X93872665Y-123102124D01*
X93887932Y-123366889D01*
X93889005Y-123375390D01*
X93940065Y-123635642D01*
X93942276Y-123643894D01*
X94028184Y-123894814D01*
X94031499Y-123902699D01*
X94150664Y-124139633D01*
X94155020Y-124146999D01*
X94284347Y-124335170D01*
X94294601Y-124343514D01*
X94308342Y-124336368D01*
X95512978Y-123131732D01*
X95519356Y-123120052D01*
X96249408Y-123120052D01*
X96249539Y-123121885D01*
X96253790Y-123128500D01*
X97460730Y-124335440D01*
X97472939Y-124342107D01*
X97484439Y-124333417D01*
X97581831Y-124200833D01*
X97586418Y-124193605D01*
X97712962Y-123960541D01*
X97716530Y-123952747D01*
X97810271Y-123704670D01*
X97812748Y-123696464D01*
X97871954Y-123437958D01*
X97873294Y-123429497D01*
X97897031Y-123163536D01*
X97897277Y-123158597D01*
X97897666Y-123121405D01*
X97897523Y-123116439D01*
X97879362Y-122850043D01*
X97878201Y-122841569D01*
X97824419Y-122581864D01*
X97822120Y-122573629D01*
X97733588Y-122323625D01*
X97730191Y-122315774D01*
X97608550Y-122080098D01*
X97604122Y-122072786D01*
X97485031Y-121903337D01*
X97474509Y-121894957D01*
X97461121Y-121902009D01*
X96257022Y-123106108D01*
X96249408Y-123120052D01*
X95519356Y-123120052D01*
X95520592Y-123117788D01*
X95520461Y-123115955D01*
X95516210Y-123109340D01*
X94308814Y-121901944D01*
X94296804Y-121895386D01*
X94285064Y-121904354D01*
X94176935Y-122054831D01*
X94172418Y-122062116D01*
X94048325Y-122296487D01*
X94044839Y-122304315D01*
X93953700Y-122553366D01*
X93951311Y-122561590D01*
X93894812Y-122820715D01*
X93893563Y-122829170D01*
X93872754Y-123093573D01*
X93872665Y-123102124D01*
X93343500Y-123102124D01*
X93343500Y-121886396D01*
X93363502Y-121818275D01*
X93397229Y-121783183D01*
X93559789Y-121669357D01*
X93559792Y-121669355D01*
X93564300Y-121666198D01*
X93699078Y-121531420D01*
X94661584Y-121531420D01*
X94667980Y-121542690D01*
X95872188Y-122746898D01*
X95886132Y-122754512D01*
X95887965Y-122754381D01*
X95894580Y-122750130D01*
X97101604Y-121543106D01*
X97108795Y-121529937D01*
X97101473Y-121519700D01*
X97054233Y-121481035D01*
X97047261Y-121476080D01*
X96821122Y-121337502D01*
X96813552Y-121333544D01*
X96570704Y-121226942D01*
X96562644Y-121224040D01*
X96307592Y-121151387D01*
X96299214Y-121149605D01*
X96036656Y-121112238D01*
X96028111Y-121111611D01*
X95762908Y-121110222D01*
X95754374Y-121110759D01*
X95491433Y-121145376D01*
X95483035Y-121147069D01*
X95227238Y-121217047D01*
X95219143Y-121219866D01*
X94975199Y-121323917D01*
X94967577Y-121327801D01*
X94740013Y-121463995D01*
X94732981Y-121468882D01*
X94670053Y-121519297D01*
X94661584Y-121531420D01*
X93699078Y-121531420D01*
X93726198Y-121504300D01*
X93742489Y-121481035D01*
X93803533Y-121393855D01*
X93857523Y-121316749D01*
X93859846Y-121311767D01*
X93859849Y-121311762D01*
X93951961Y-121114225D01*
X93951961Y-121114224D01*
X93954284Y-121109243D01*
X93970803Y-121047596D01*
X94012119Y-120893402D01*
X94012119Y-120893400D01*
X94013543Y-120888087D01*
X94033498Y-120660000D01*
X94013543Y-120431913D01*
X93985461Y-120327111D01*
X93955707Y-120216067D01*
X93955706Y-120216065D01*
X93954284Y-120210757D01*
X93948027Y-120197339D01*
X93859849Y-120008238D01*
X93859846Y-120008233D01*
X93857523Y-120003251D01*
X93726198Y-119815700D01*
X93564300Y-119653802D01*
X93559792Y-119650645D01*
X93559789Y-119650643D01*
X93481611Y-119595902D01*
X93376749Y-119522477D01*
X93371767Y-119520154D01*
X93371762Y-119520151D01*
X93337543Y-119504195D01*
X93284258Y-119457278D01*
X93264797Y-119389001D01*
X93285339Y-119321041D01*
X93337543Y-119275805D01*
X93371762Y-119259849D01*
X93371767Y-119259846D01*
X93376749Y-119257523D01*
X93515185Y-119160589D01*
X93559789Y-119129357D01*
X93559792Y-119129355D01*
X93564300Y-119126198D01*
X93726198Y-118964300D01*
X93742300Y-118941305D01*
X93843183Y-118797229D01*
X93898640Y-118752901D01*
X93946396Y-118743500D01*
X94787685Y-118743500D01*
X94855806Y-118763502D01*
X94890897Y-118797229D01*
X94955699Y-118889776D01*
X95105224Y-119039301D01*
X95278442Y-119160589D01*
X95283420Y-119162910D01*
X95283423Y-119162912D01*
X95402261Y-119218327D01*
X95470090Y-119249956D01*
X95475398Y-119251378D01*
X95475400Y-119251379D01*
X95669030Y-119303262D01*
X95669032Y-119303262D01*
X95674345Y-119304686D01*
X95885000Y-119323116D01*
X96095655Y-119304686D01*
X96100968Y-119303262D01*
X96100970Y-119303262D01*
X96294600Y-119251379D01*
X96294602Y-119251378D01*
X96299910Y-119249956D01*
X96367739Y-119218327D01*
X96486577Y-119162912D01*
X96486580Y-119162910D01*
X96491558Y-119160589D01*
X96664776Y-119039301D01*
X96814301Y-118889776D01*
X96935589Y-118716558D01*
X96953106Y-118678994D01*
X97022633Y-118529892D01*
X97022634Y-118529891D01*
X97024956Y-118524910D01*
X97049158Y-118434589D01*
X97078262Y-118325970D01*
X97078262Y-118325968D01*
X97079686Y-118320655D01*
X97098116Y-118110000D01*
X97079686Y-117899345D01*
X97076299Y-117886705D01*
X97026379Y-117700400D01*
X97026378Y-117700398D01*
X97024956Y-117695090D01*
X97022633Y-117690108D01*
X96937912Y-117508423D01*
X96937910Y-117508420D01*
X96935589Y-117503442D01*
X96814301Y-117330224D01*
X96664776Y-117180699D01*
X96491558Y-117059411D01*
X96486580Y-117057090D01*
X96486577Y-117057088D01*
X96304892Y-116972367D01*
X96304891Y-116972366D01*
X96299910Y-116970044D01*
X96294602Y-116968622D01*
X96294600Y-116968621D01*
X96268796Y-116961707D01*
X96208173Y-116924755D01*
X96177152Y-116860894D01*
X96185580Y-116790400D01*
X96230783Y-116735653D01*
X96268796Y-116718293D01*
X96294600Y-116711379D01*
X96294602Y-116711378D01*
X96299910Y-116709956D01*
X96442462Y-116643483D01*
X96486577Y-116622912D01*
X96486580Y-116622910D01*
X96491558Y-116620589D01*
X96664776Y-116499301D01*
X96814301Y-116349776D01*
X96935589Y-116176558D01*
X96945576Y-116155142D01*
X97022633Y-115989892D01*
X97022634Y-115989891D01*
X97024956Y-115984910D01*
X97026911Y-115977616D01*
X97078262Y-115785970D01*
X97078262Y-115785968D01*
X97079686Y-115780655D01*
X97098116Y-115570000D01*
X97079686Y-115359345D01*
X97076399Y-115347076D01*
X97026379Y-115160400D01*
X97026378Y-115160398D01*
X97024956Y-115155090D01*
X97017263Y-115138593D01*
X96937912Y-114968423D01*
X96937910Y-114968420D01*
X96935589Y-114963442D01*
X96814301Y-114790224D01*
X96664776Y-114640699D01*
X96503413Y-114527712D01*
X96459086Y-114472256D01*
X96451777Y-114401637D01*
X96483808Y-114338276D01*
X96545009Y-114302291D01*
X96575685Y-114298500D01*
X102814315Y-114298500D01*
X102882436Y-114318502D01*
X102928929Y-114372158D01*
X102939033Y-114442432D01*
X102909539Y-114507012D01*
X102886588Y-114527711D01*
X102725224Y-114640699D01*
X102575699Y-114790224D01*
X102510898Y-114882770D01*
X102455441Y-114927099D01*
X102407685Y-114936500D01*
X101678768Y-114936500D01*
X101667585Y-114935973D01*
X101660092Y-114934298D01*
X101652166Y-114934547D01*
X101652165Y-114934547D01*
X101592002Y-114936438D01*
X101588044Y-114936500D01*
X101560144Y-114936500D01*
X101556154Y-114937004D01*
X101544320Y-114937936D01*
X101500111Y-114939326D01*
X101492495Y-114941539D01*
X101492493Y-114941539D01*
X101480652Y-114944979D01*
X101461293Y-114948988D01*
X101459983Y-114949154D01*
X101441203Y-114951526D01*
X101433837Y-114954442D01*
X101433831Y-114954444D01*
X101400098Y-114967800D01*
X101388868Y-114971645D01*
X101354017Y-114981770D01*
X101346407Y-114983981D01*
X101339584Y-114988016D01*
X101328966Y-114994295D01*
X101311213Y-115002992D01*
X101303568Y-115006019D01*
X101292383Y-115010448D01*
X101285968Y-115015109D01*
X101256612Y-115036437D01*
X101246695Y-115042951D01*
X101208638Y-115065458D01*
X101194317Y-115079779D01*
X101179284Y-115092619D01*
X101162893Y-115104528D01*
X101145316Y-115125775D01*
X101134712Y-115138593D01*
X101126722Y-115147374D01*
X100572742Y-115701353D01*
X100564463Y-115708887D01*
X100557982Y-115713000D01*
X100530388Y-115742385D01*
X100511357Y-115762651D01*
X100508602Y-115765493D01*
X100488865Y-115785230D01*
X100486385Y-115788427D01*
X100478682Y-115797447D01*
X100448414Y-115829679D01*
X100444595Y-115836625D01*
X100444593Y-115836628D01*
X100438652Y-115847434D01*
X100427801Y-115863953D01*
X100415386Y-115879959D01*
X100412241Y-115887228D01*
X100412238Y-115887232D01*
X100397826Y-115920537D01*
X100392609Y-115931187D01*
X100371305Y-115969940D01*
X100369334Y-115977615D01*
X100369334Y-115977616D01*
X100366267Y-115989562D01*
X100359863Y-116008266D01*
X100351819Y-116026855D01*
X100350580Y-116034678D01*
X100350577Y-116034688D01*
X100344901Y-116070524D01*
X100342495Y-116082144D01*
X100331500Y-116124970D01*
X100331500Y-116145224D01*
X100329949Y-116164934D01*
X100326780Y-116184943D01*
X100327526Y-116192835D01*
X100330941Y-116228961D01*
X100331500Y-116240819D01*
X100331500Y-119946233D01*
X100330973Y-119957416D01*
X100329298Y-119964909D01*
X100329547Y-119972835D01*
X100329547Y-119972836D01*
X100331438Y-120032986D01*
X100331500Y-120036945D01*
X100331500Y-120064856D01*
X100331997Y-120068790D01*
X100331997Y-120068791D01*
X100332005Y-120068856D01*
X100332938Y-120080693D01*
X100334327Y-120124889D01*
X100337613Y-120136199D01*
X100339978Y-120144339D01*
X100343987Y-120163700D01*
X100346526Y-120183797D01*
X100349445Y-120191168D01*
X100349445Y-120191170D01*
X100362804Y-120224912D01*
X100366649Y-120236142D01*
X100378982Y-120278593D01*
X100383015Y-120285412D01*
X100383017Y-120285417D01*
X100389293Y-120296028D01*
X100397988Y-120313776D01*
X100405448Y-120332617D01*
X100410110Y-120339033D01*
X100410110Y-120339034D01*
X100431436Y-120368387D01*
X100437952Y-120378307D01*
X100454330Y-120406000D01*
X100460458Y-120416362D01*
X100474779Y-120430683D01*
X100487619Y-120445716D01*
X100499528Y-120462107D01*
X100505634Y-120467158D01*
X100533605Y-120490298D01*
X100542384Y-120498288D01*
X102594595Y-122550500D01*
X102628621Y-122612812D01*
X102631500Y-122639595D01*
X102631500Y-124248134D01*
X102638255Y-124310316D01*
X102689385Y-124446705D01*
X102776739Y-124563261D01*
X102893295Y-124650615D01*
X103029684Y-124701745D01*
X103091866Y-124708500D01*
X105188134Y-124708500D01*
X105250316Y-124701745D01*
X105386705Y-124650615D01*
X105503261Y-124563261D01*
X105590615Y-124446705D01*
X105641745Y-124310316D01*
X105648500Y-124248134D01*
X105648500Y-122151866D01*
X105641745Y-122089684D01*
X105590615Y-121953295D01*
X105503261Y-121836739D01*
X105386705Y-121749385D01*
X105250316Y-121698255D01*
X105188134Y-121691500D01*
X103579594Y-121691500D01*
X103511473Y-121671498D01*
X103490499Y-121654595D01*
X102261967Y-120426062D01*
X107228493Y-120426062D01*
X107237789Y-120438077D01*
X107288994Y-120473931D01*
X107298489Y-120479414D01*
X107495947Y-120571490D01*
X107506239Y-120575236D01*
X107716688Y-120631625D01*
X107727481Y-120633528D01*
X107944525Y-120652517D01*
X107955475Y-120652517D01*
X108172519Y-120633528D01*
X108183312Y-120631625D01*
X108393761Y-120575236D01*
X108404053Y-120571490D01*
X108601511Y-120479414D01*
X108611006Y-120473931D01*
X108663048Y-120437491D01*
X108671424Y-120427012D01*
X108664356Y-120413566D01*
X107962812Y-119712022D01*
X107948868Y-119704408D01*
X107947035Y-119704539D01*
X107940420Y-119708790D01*
X107234923Y-120414287D01*
X107228493Y-120426062D01*
X102261967Y-120426062D01*
X101635405Y-119799500D01*
X101601379Y-119737188D01*
X101598500Y-119710405D01*
X101598500Y-119345475D01*
X106637483Y-119345475D01*
X106656472Y-119562519D01*
X106658375Y-119573312D01*
X106714764Y-119783761D01*
X106718510Y-119794053D01*
X106810586Y-119991511D01*
X106816069Y-120001006D01*
X106852509Y-120053048D01*
X106862988Y-120061424D01*
X106876434Y-120054356D01*
X107577978Y-119352812D01*
X107584356Y-119341132D01*
X108314408Y-119341132D01*
X108314539Y-119342965D01*
X108318790Y-119349580D01*
X109024287Y-120055077D01*
X109036062Y-120061507D01*
X109048077Y-120052211D01*
X109083931Y-120001006D01*
X109089414Y-119991511D01*
X109181490Y-119794053D01*
X109185236Y-119783761D01*
X109241625Y-119573312D01*
X109243528Y-119562519D01*
X109262517Y-119345475D01*
X109262517Y-119334525D01*
X109243528Y-119117481D01*
X109241625Y-119106688D01*
X109185236Y-118896239D01*
X109181490Y-118885947D01*
X109089414Y-118688489D01*
X109083931Y-118678994D01*
X109047491Y-118626952D01*
X109037012Y-118618576D01*
X109023566Y-118625644D01*
X108322022Y-119327188D01*
X108314408Y-119341132D01*
X107584356Y-119341132D01*
X107585592Y-119338868D01*
X107585461Y-119337035D01*
X107581210Y-119330420D01*
X106875713Y-118624923D01*
X106863938Y-118618493D01*
X106851923Y-118627789D01*
X106816069Y-118678994D01*
X106810586Y-118688489D01*
X106718510Y-118885947D01*
X106714764Y-118896239D01*
X106658375Y-119106688D01*
X106656472Y-119117481D01*
X106637483Y-119334525D01*
X106637483Y-119345475D01*
X101598500Y-119345475D01*
X101598500Y-116519594D01*
X101618502Y-116451473D01*
X101635405Y-116430499D01*
X101825499Y-116240405D01*
X101887811Y-116206379D01*
X101914594Y-116203500D01*
X102407685Y-116203500D01*
X102475806Y-116223502D01*
X102510897Y-116257229D01*
X102575699Y-116349776D01*
X102725224Y-116499301D01*
X102898442Y-116620589D01*
X102903420Y-116622910D01*
X102903423Y-116622912D01*
X102947538Y-116643483D01*
X103090090Y-116709956D01*
X103095398Y-116711378D01*
X103095400Y-116711379D01*
X103121204Y-116718293D01*
X103181827Y-116755245D01*
X103212848Y-116819106D01*
X103204420Y-116889600D01*
X103159217Y-116944347D01*
X103121204Y-116961707D01*
X103095400Y-116968621D01*
X103095398Y-116968622D01*
X103090090Y-116970044D01*
X103085109Y-116972366D01*
X103085108Y-116972367D01*
X102903423Y-117057088D01*
X102903420Y-117057090D01*
X102898442Y-117059411D01*
X102725224Y-117180699D01*
X102575699Y-117330224D01*
X102454411Y-117503442D01*
X102452090Y-117508420D01*
X102452088Y-117508423D01*
X102367367Y-117690108D01*
X102365044Y-117695090D01*
X102363622Y-117700398D01*
X102363621Y-117700400D01*
X102313701Y-117886705D01*
X102310314Y-117899345D01*
X102291884Y-118110000D01*
X102310314Y-118320655D01*
X102311738Y-118325968D01*
X102311738Y-118325970D01*
X102340843Y-118434589D01*
X102365044Y-118524910D01*
X102367366Y-118529891D01*
X102367367Y-118529892D01*
X102436895Y-118678994D01*
X102454411Y-118716558D01*
X102575699Y-118889776D01*
X102725224Y-119039301D01*
X102898442Y-119160589D01*
X102903420Y-119162910D01*
X102903423Y-119162912D01*
X103022261Y-119218327D01*
X103090090Y-119249956D01*
X103095398Y-119251378D01*
X103095400Y-119251379D01*
X103289030Y-119303262D01*
X103289032Y-119303262D01*
X103294345Y-119304686D01*
X103505000Y-119323116D01*
X103715655Y-119304686D01*
X103720968Y-119303262D01*
X103720970Y-119303262D01*
X103914600Y-119251379D01*
X103914602Y-119251378D01*
X103919910Y-119249956D01*
X103987739Y-119218327D01*
X104106577Y-119162912D01*
X104106580Y-119162910D01*
X104111558Y-119160589D01*
X104284776Y-119039301D01*
X104434301Y-118889776D01*
X104555589Y-118716558D01*
X104573106Y-118678994D01*
X104642633Y-118529892D01*
X104642634Y-118529891D01*
X104644956Y-118524910D01*
X104669158Y-118434589D01*
X104698262Y-118325970D01*
X104698262Y-118325968D01*
X104699686Y-118320655D01*
X104718116Y-118110000D01*
X104699686Y-117899345D01*
X104696299Y-117886705D01*
X104646379Y-117700400D01*
X104646378Y-117700398D01*
X104644956Y-117695090D01*
X104642633Y-117690108D01*
X104557912Y-117508423D01*
X104557910Y-117508420D01*
X104555589Y-117503442D01*
X104434301Y-117330224D01*
X104284776Y-117180699D01*
X104111558Y-117059411D01*
X104106580Y-117057090D01*
X104106577Y-117057088D01*
X103924892Y-116972367D01*
X103924891Y-116972366D01*
X103919910Y-116970044D01*
X103914602Y-116968622D01*
X103914600Y-116968621D01*
X103888796Y-116961707D01*
X103828173Y-116924755D01*
X103797152Y-116860894D01*
X103805580Y-116790400D01*
X103850783Y-116735653D01*
X103888796Y-116718293D01*
X103914600Y-116711379D01*
X103914602Y-116711378D01*
X103919910Y-116709956D01*
X104062462Y-116643483D01*
X104106577Y-116622912D01*
X104106580Y-116622910D01*
X104111558Y-116620589D01*
X104284776Y-116499301D01*
X104434301Y-116349776D01*
X104555589Y-116176558D01*
X104565576Y-116155142D01*
X104642633Y-115989892D01*
X104642634Y-115989891D01*
X104644956Y-115984910D01*
X104646911Y-115977616D01*
X104698262Y-115785970D01*
X104698262Y-115785968D01*
X104699686Y-115780655D01*
X104718116Y-115570000D01*
X104699686Y-115359345D01*
X104696399Y-115347076D01*
X104646379Y-115160400D01*
X104646378Y-115160398D01*
X104644956Y-115155090D01*
X104637263Y-115138593D01*
X104557912Y-114968423D01*
X104557910Y-114968420D01*
X104555589Y-114963442D01*
X104434301Y-114790224D01*
X104284776Y-114640699D01*
X104123413Y-114527712D01*
X104079086Y-114472256D01*
X104071777Y-114401637D01*
X104103808Y-114338276D01*
X104165009Y-114302291D01*
X104195685Y-114298500D01*
X105095406Y-114298500D01*
X105163527Y-114318502D01*
X105184501Y-114335405D01*
X106074483Y-115225387D01*
X106108509Y-115287699D01*
X106111388Y-115314482D01*
X106111388Y-115556121D01*
X106110861Y-115567304D01*
X106109186Y-115574797D01*
X106109435Y-115582723D01*
X106109435Y-115582724D01*
X106111326Y-115642874D01*
X106111388Y-115646833D01*
X106111388Y-115674744D01*
X106111885Y-115678678D01*
X106111885Y-115678679D01*
X106111893Y-115678744D01*
X106112826Y-115690581D01*
X106114215Y-115734777D01*
X106119866Y-115754227D01*
X106123875Y-115773588D01*
X106124992Y-115782426D01*
X106126414Y-115793685D01*
X106129333Y-115801056D01*
X106129333Y-115801058D01*
X106142692Y-115834800D01*
X106146537Y-115846030D01*
X106156394Y-115879959D01*
X106158870Y-115888481D01*
X106162903Y-115895300D01*
X106162905Y-115895305D01*
X106169181Y-115905916D01*
X106177876Y-115923664D01*
X106185336Y-115942505D01*
X106189998Y-115948921D01*
X106189998Y-115948922D01*
X106211324Y-115978275D01*
X106217840Y-115988195D01*
X106240346Y-116026250D01*
X106254667Y-116040571D01*
X106267507Y-116055604D01*
X106279416Y-116071995D01*
X106285522Y-116077046D01*
X106313493Y-116100186D01*
X106322272Y-116108176D01*
X106604595Y-116390499D01*
X106638621Y-116452811D01*
X106641500Y-116479594D01*
X106641500Y-117688134D01*
X106648255Y-117750316D01*
X106699385Y-117886705D01*
X106786739Y-118003261D01*
X106903295Y-118090615D01*
X107039684Y-118141745D01*
X107083252Y-118146478D01*
X107098486Y-118148133D01*
X107098489Y-118148133D01*
X107101866Y-118148500D01*
X107105185Y-118148500D01*
X107172110Y-118172153D01*
X107207804Y-118218156D01*
X107209734Y-118217141D01*
X107215442Y-118228000D01*
X107215632Y-118228245D01*
X107215653Y-118228403D01*
X107235644Y-118266434D01*
X107937188Y-118967978D01*
X107951132Y-118975592D01*
X107952965Y-118975461D01*
X107959580Y-118971210D01*
X108665077Y-118265713D01*
X108687871Y-118223971D01*
X108690047Y-118213971D01*
X108740253Y-118163773D01*
X108793814Y-118148549D01*
X108794719Y-118148500D01*
X108798134Y-118148500D01*
X108801530Y-118148131D01*
X108801532Y-118148131D01*
X108813879Y-118146790D01*
X108860316Y-118141745D01*
X108996705Y-118090615D01*
X109113261Y-118003261D01*
X109200615Y-117886705D01*
X109251745Y-117750316D01*
X109258500Y-117688134D01*
X109258500Y-115991866D01*
X109251745Y-115929684D01*
X109200615Y-115793295D01*
X109113261Y-115676739D01*
X108996705Y-115589385D01*
X108860316Y-115538255D01*
X108798134Y-115531500D01*
X107589595Y-115531500D01*
X107521474Y-115511498D01*
X107500500Y-115494595D01*
X107415293Y-115409388D01*
X107381267Y-115347076D01*
X107378388Y-115320293D01*
X107378388Y-115078656D01*
X107378915Y-115067473D01*
X107380590Y-115059980D01*
X107378942Y-115007528D01*
X107378450Y-114991890D01*
X107378388Y-114987932D01*
X107378388Y-114960032D01*
X107377884Y-114956041D01*
X107376951Y-114944199D01*
X107376868Y-114941539D01*
X107375562Y-114899999D01*
X107373350Y-114892385D01*
X107373349Y-114892380D01*
X107369911Y-114880547D01*
X107365900Y-114861183D01*
X107364355Y-114848952D01*
X107363362Y-114841091D01*
X107360445Y-114833724D01*
X107360444Y-114833719D01*
X107347086Y-114799980D01*
X107343242Y-114788753D01*
X107333118Y-114753910D01*
X107330906Y-114746295D01*
X107320595Y-114728860D01*
X107311900Y-114711112D01*
X107304440Y-114692271D01*
X107292997Y-114676520D01*
X107278452Y-114656501D01*
X107271936Y-114646581D01*
X107253468Y-114615353D01*
X107253466Y-114615350D01*
X107249430Y-114608526D01*
X107235109Y-114594205D01*
X107222268Y-114579171D01*
X107210360Y-114562781D01*
X107176283Y-114534590D01*
X107167504Y-114526600D01*
X105913652Y-113272747D01*
X105906112Y-113264461D01*
X105902000Y-113257982D01*
X105852348Y-113211356D01*
X105849507Y-113208602D01*
X105829770Y-113188865D01*
X105826573Y-113186385D01*
X105817551Y-113178680D01*
X105791100Y-113153841D01*
X105785321Y-113148414D01*
X105778375Y-113144595D01*
X105778372Y-113144593D01*
X105767566Y-113138652D01*
X105751047Y-113127801D01*
X105750583Y-113127441D01*
X105735041Y-113115386D01*
X105727772Y-113112241D01*
X105727768Y-113112238D01*
X105694463Y-113097826D01*
X105683813Y-113092609D01*
X105645060Y-113071305D01*
X105625437Y-113066267D01*
X105606734Y-113059863D01*
X105595420Y-113054967D01*
X105595419Y-113054967D01*
X105588145Y-113051819D01*
X105580322Y-113050580D01*
X105580312Y-113050577D01*
X105544476Y-113044901D01*
X105532856Y-113042495D01*
X105497711Y-113033472D01*
X105497710Y-113033472D01*
X105490030Y-113031500D01*
X105469776Y-113031500D01*
X105450065Y-113029949D01*
X105437886Y-113028020D01*
X105430057Y-113026780D01*
X105422165Y-113027526D01*
X105386039Y-113030941D01*
X105374181Y-113031500D01*
X101349492Y-113031500D01*
X101281371Y-113011498D01*
X101234878Y-112957842D01*
X101224774Y-112887568D01*
X101254268Y-112822988D01*
X101260552Y-112816249D01*
X101402642Y-112674653D01*
X101406303Y-112671005D01*
X101541458Y-112482917D01*
X101546446Y-112472826D01*
X101641784Y-112279922D01*
X101641785Y-112279920D01*
X101644078Y-112275280D01*
X101711408Y-112053671D01*
X101741640Y-111824041D01*
X101743327Y-111755000D01*
X101731036Y-111605500D01*
X101724773Y-111529318D01*
X101724772Y-111529312D01*
X101724349Y-111524167D01*
X101667925Y-111299533D01*
X101665866Y-111294797D01*
X101577630Y-111091868D01*
X101577628Y-111091865D01*
X101575570Y-111087131D01*
X101449764Y-110892665D01*
X101359486Y-110793450D01*
X101328434Y-110729605D01*
X101336829Y-110659106D01*
X101382005Y-110604338D01*
X101408449Y-110590669D01*
X101468054Y-110568324D01*
X101483649Y-110559786D01*
X101585724Y-110483285D01*
X101598285Y-110470724D01*
X101674786Y-110368649D01*
X101683324Y-110353054D01*
X101728478Y-110232606D01*
X101732105Y-110217351D01*
X101737631Y-110166486D01*
X101738000Y-110159672D01*
X101738000Y-109487115D01*
X101733525Y-109471876D01*
X101732135Y-109470671D01*
X101724452Y-109469000D01*
X98940116Y-109469000D01*
X98924877Y-109473475D01*
X98923672Y-109474865D01*
X98922001Y-109482548D01*
X98922001Y-110159669D01*
X98922371Y-110166490D01*
X98927895Y-110217352D01*
X98931521Y-110232604D01*
X98976676Y-110353054D01*
X98985214Y-110368649D01*
X99061715Y-110470724D01*
X99074276Y-110483285D01*
X99176351Y-110559786D01*
X99191946Y-110568324D01*
X99251540Y-110590665D01*
X99308304Y-110633307D01*
X99333004Y-110699868D01*
X99317796Y-110769217D01*
X99298404Y-110795698D01*
X99231639Y-110865564D01*
X99228725Y-110869836D01*
X99228724Y-110869837D01*
X99213152Y-110892665D01*
X99101119Y-111056899D01*
X99003602Y-111266981D01*
X98941707Y-111490169D01*
X98917095Y-111720469D01*
X98917392Y-111725622D01*
X98917392Y-111725625D01*
X98923067Y-111824041D01*
X98930427Y-111951697D01*
X98931564Y-111956743D01*
X98931565Y-111956749D01*
X98963741Y-112099523D01*
X98981346Y-112177642D01*
X98983288Y-112182424D01*
X98983289Y-112182428D01*
X99066540Y-112387450D01*
X99068484Y-112392237D01*
X99136238Y-112502801D01*
X99185753Y-112583602D01*
X99189501Y-112589719D01*
X99341147Y-112764784D01*
X99393871Y-112808556D01*
X99433506Y-112867458D01*
X99435004Y-112938439D01*
X99397890Y-112998962D01*
X99333946Y-113029811D01*
X99313386Y-113031500D01*
X95564595Y-113031500D01*
X95496474Y-113011498D01*
X95475500Y-112994595D01*
X95128652Y-112647747D01*
X95121112Y-112639461D01*
X95117000Y-112632982D01*
X95067348Y-112586356D01*
X95064507Y-112583602D01*
X95044770Y-112563865D01*
X95041573Y-112561385D01*
X95032551Y-112553680D01*
X95006100Y-112528841D01*
X95000321Y-112523414D01*
X94993375Y-112519595D01*
X94993372Y-112519593D01*
X94982566Y-112513652D01*
X94966047Y-112502801D01*
X94965583Y-112502441D01*
X94950041Y-112490386D01*
X94942772Y-112487241D01*
X94942768Y-112487238D01*
X94909463Y-112472826D01*
X94898813Y-112467609D01*
X94860060Y-112446305D01*
X94840437Y-112441267D01*
X94821734Y-112434863D01*
X94810420Y-112429967D01*
X94810419Y-112429967D01*
X94803145Y-112426819D01*
X94795322Y-112425580D01*
X94795312Y-112425577D01*
X94759476Y-112419901D01*
X94747856Y-112417495D01*
X94712711Y-112408472D01*
X94712710Y-112408472D01*
X94705030Y-112406500D01*
X94684776Y-112406500D01*
X94665065Y-112404949D01*
X94652886Y-112403020D01*
X94645057Y-112401780D01*
X94637165Y-112402526D01*
X94601039Y-112405941D01*
X94589181Y-112406500D01*
X93939394Y-112406500D01*
X93871273Y-112386498D01*
X93836181Y-112352771D01*
X93729357Y-112200211D01*
X93729355Y-112200208D01*
X93726198Y-112195700D01*
X93564300Y-112033802D01*
X93559792Y-112030645D01*
X93559789Y-112030643D01*
X93397229Y-111916817D01*
X93352901Y-111861360D01*
X93343500Y-111813604D01*
X93343500Y-108942885D01*
X98922000Y-108942885D01*
X98926475Y-108958124D01*
X98927865Y-108959329D01*
X98935548Y-108961000D01*
X100057885Y-108961000D01*
X100073124Y-108956525D01*
X100074329Y-108955135D01*
X100076000Y-108947452D01*
X100076000Y-108942885D01*
X100584000Y-108942885D01*
X100588475Y-108958124D01*
X100589865Y-108959329D01*
X100597548Y-108961000D01*
X101719884Y-108961000D01*
X101735123Y-108956525D01*
X101736328Y-108955135D01*
X101737999Y-108947452D01*
X101737999Y-108270331D01*
X101737629Y-108263510D01*
X101732105Y-108212648D01*
X101728479Y-108197396D01*
X101683324Y-108076946D01*
X101674786Y-108061351D01*
X101598285Y-107959276D01*
X101585724Y-107946715D01*
X101483649Y-107870214D01*
X101468054Y-107861676D01*
X101347606Y-107816522D01*
X101332351Y-107812895D01*
X101281486Y-107807369D01*
X101274672Y-107807000D01*
X100602115Y-107807000D01*
X100586876Y-107811475D01*
X100585671Y-107812865D01*
X100584000Y-107820548D01*
X100584000Y-108942885D01*
X100076000Y-108942885D01*
X100076000Y-107825116D01*
X100071525Y-107809877D01*
X100070135Y-107808672D01*
X100062452Y-107807001D01*
X99385331Y-107807001D01*
X99378510Y-107807371D01*
X99327648Y-107812895D01*
X99312396Y-107816521D01*
X99191946Y-107861676D01*
X99176351Y-107870214D01*
X99074276Y-107946715D01*
X99061715Y-107959276D01*
X98985214Y-108061351D01*
X98976676Y-108076946D01*
X98931522Y-108197394D01*
X98927895Y-108212649D01*
X98922369Y-108263514D01*
X98922000Y-108270328D01*
X98922000Y-108942885D01*
X93343500Y-108942885D01*
X93343500Y-108656793D01*
X93345732Y-108633184D01*
X93345790Y-108632881D01*
X93345790Y-108632877D01*
X93347275Y-108625094D01*
X93343749Y-108569049D01*
X93343500Y-108561138D01*
X93343500Y-108545144D01*
X93341494Y-108529270D01*
X93340751Y-108521402D01*
X93339768Y-108505766D01*
X93338591Y-108487062D01*
X93337723Y-108473263D01*
X93337723Y-108473262D01*
X93337225Y-108465350D01*
X93334679Y-108457513D01*
X93329506Y-108434369D01*
X93329468Y-108434065D01*
X93329467Y-108434060D01*
X93328474Y-108426203D01*
X93325558Y-108418838D01*
X93325557Y-108418834D01*
X93307801Y-108373989D01*
X93305129Y-108366570D01*
X93287764Y-108313125D01*
X93283514Y-108306428D01*
X93283350Y-108306169D01*
X93272585Y-108285042D01*
X93272471Y-108284754D01*
X93272468Y-108284749D01*
X93269552Y-108277383D01*
X93264896Y-108270975D01*
X93264893Y-108270969D01*
X93236542Y-108231948D01*
X93232092Y-108225401D01*
X93226302Y-108216277D01*
X93202000Y-108177982D01*
X93195993Y-108172341D01*
X93180312Y-108154554D01*
X93180134Y-108154309D01*
X93180132Y-108154307D01*
X93175472Y-108147893D01*
X93169362Y-108142838D01*
X93132204Y-108112097D01*
X93126270Y-108106866D01*
X93091102Y-108073842D01*
X93091099Y-108073840D01*
X93085321Y-108068414D01*
X93078097Y-108064442D01*
X93058494Y-108051119D01*
X93058254Y-108050920D01*
X93058247Y-108050916D01*
X93052144Y-108045867D01*
X93001324Y-108021953D01*
X92994292Y-108018371D01*
X92945060Y-107991305D01*
X92937385Y-107989335D01*
X92937379Y-107989332D01*
X92937081Y-107989256D01*
X92914772Y-107981224D01*
X92914497Y-107981094D01*
X92914489Y-107981091D01*
X92907318Y-107977717D01*
X92852151Y-107967194D01*
X92844442Y-107965471D01*
X92810449Y-107956743D01*
X92797707Y-107953471D01*
X92797706Y-107953471D01*
X92790030Y-107951500D01*
X92781793Y-107951500D01*
X92758184Y-107949268D01*
X92757881Y-107949210D01*
X92757877Y-107949210D01*
X92750094Y-107947725D01*
X92694049Y-107951251D01*
X92686138Y-107951500D01*
X91902315Y-107951500D01*
X91834194Y-107931498D01*
X91799102Y-107897770D01*
X91737460Y-107809736D01*
X91734301Y-107805224D01*
X91584776Y-107655699D01*
X91411558Y-107534411D01*
X91406580Y-107532090D01*
X91406577Y-107532088D01*
X91224892Y-107447367D01*
X91224891Y-107447366D01*
X91219910Y-107445044D01*
X91214602Y-107443622D01*
X91214600Y-107443621D01*
X91020970Y-107391738D01*
X91020968Y-107391738D01*
X91015655Y-107390314D01*
X90805000Y-107371884D01*
X90594345Y-107390314D01*
X90589032Y-107391738D01*
X90589030Y-107391738D01*
X90395400Y-107443621D01*
X90395398Y-107443622D01*
X90390090Y-107445044D01*
X90385109Y-107447366D01*
X90385108Y-107447367D01*
X90203423Y-107532088D01*
X90203420Y-107532090D01*
X90198442Y-107534411D01*
X90025224Y-107655699D01*
X89875699Y-107805224D01*
X89872540Y-107809736D01*
X89810898Y-107897770D01*
X89755441Y-107942099D01*
X89707685Y-107951500D01*
X88579594Y-107951500D01*
X88511473Y-107931498D01*
X88490499Y-107914595D01*
X85760405Y-105184500D01*
X85726379Y-105122188D01*
X85723500Y-105095405D01*
X85723500Y-104810427D01*
X85743502Y-104742306D01*
X85784618Y-104702550D01*
X85787994Y-104700896D01*
X85969860Y-104571173D01*
X86078091Y-104463319D01*
X86140462Y-104429404D01*
X86211268Y-104434592D01*
X86268030Y-104477238D01*
X86285012Y-104508341D01*
X86329385Y-104626705D01*
X86416739Y-104743261D01*
X86533295Y-104830615D01*
X86669684Y-104881745D01*
X86731866Y-104888500D01*
X86870500Y-104888500D01*
X86938621Y-104908502D01*
X86985114Y-104962158D01*
X86996500Y-105014500D01*
X86996500Y-105338207D01*
X86994268Y-105361816D01*
X86992725Y-105369906D01*
X86993223Y-105377817D01*
X86996251Y-105425951D01*
X86996500Y-105433862D01*
X86996500Y-105449856D01*
X86998506Y-105465730D01*
X86999248Y-105473590D01*
X87002775Y-105529650D01*
X87005225Y-105537191D01*
X87005321Y-105537487D01*
X87010494Y-105560631D01*
X87010532Y-105560935D01*
X87010533Y-105560940D01*
X87011526Y-105568797D01*
X87014442Y-105576162D01*
X87014443Y-105576166D01*
X87032199Y-105621011D01*
X87034871Y-105628430D01*
X87052236Y-105681875D01*
X87056486Y-105688571D01*
X87056486Y-105688572D01*
X87056650Y-105688831D01*
X87067415Y-105709958D01*
X87067529Y-105710246D01*
X87067532Y-105710251D01*
X87070448Y-105717617D01*
X87075104Y-105724025D01*
X87075107Y-105724031D01*
X87103458Y-105763052D01*
X87107901Y-105769589D01*
X87138000Y-105817018D01*
X87143778Y-105822444D01*
X87143779Y-105822445D01*
X87144007Y-105822659D01*
X87159688Y-105840446D01*
X87164528Y-105847107D01*
X87170637Y-105852161D01*
X87170638Y-105852162D01*
X87207796Y-105882903D01*
X87213730Y-105888134D01*
X87248898Y-105921158D01*
X87248901Y-105921160D01*
X87254679Y-105926586D01*
X87261903Y-105930558D01*
X87281506Y-105943881D01*
X87281746Y-105944080D01*
X87281753Y-105944084D01*
X87287856Y-105949133D01*
X87321342Y-105964890D01*
X87338676Y-105973047D01*
X87345708Y-105976629D01*
X87394940Y-106003695D01*
X87402615Y-106005665D01*
X87402621Y-106005668D01*
X87402919Y-106005744D01*
X87425228Y-106013776D01*
X87425503Y-106013906D01*
X87425511Y-106013909D01*
X87432682Y-106017283D01*
X87487849Y-106027806D01*
X87495558Y-106029529D01*
X87529551Y-106038257D01*
X87542293Y-106041529D01*
X87542294Y-106041529D01*
X87549970Y-106043500D01*
X87558207Y-106043500D01*
X87581816Y-106045732D01*
X87582119Y-106045790D01*
X87582123Y-106045790D01*
X87589906Y-106047275D01*
X87645951Y-106043749D01*
X87653862Y-106043500D01*
X93025153Y-106043500D01*
X93036336Y-106044027D01*
X93043829Y-106045702D01*
X93051755Y-106045453D01*
X93051756Y-106045453D01*
X93111906Y-106043562D01*
X93115865Y-106043500D01*
X93143776Y-106043500D01*
X93147711Y-106043003D01*
X93147776Y-106042995D01*
X93159613Y-106042062D01*
X93191871Y-106041048D01*
X93195890Y-106040922D01*
X93203809Y-106040673D01*
X93223263Y-106035021D01*
X93242620Y-106031013D01*
X93254850Y-106029468D01*
X93254851Y-106029468D01*
X93262717Y-106028474D01*
X93270088Y-106025555D01*
X93270090Y-106025555D01*
X93303832Y-106012196D01*
X93315062Y-106008351D01*
X93349903Y-105998229D01*
X93349904Y-105998229D01*
X93357513Y-105996018D01*
X93364332Y-105991985D01*
X93364337Y-105991983D01*
X93374948Y-105985707D01*
X93392696Y-105977012D01*
X93411537Y-105969552D01*
X93447307Y-105943564D01*
X93457227Y-105937048D01*
X93488455Y-105918580D01*
X93488458Y-105918578D01*
X93495282Y-105914542D01*
X93509603Y-105900221D01*
X93524637Y-105887380D01*
X93534614Y-105880131D01*
X93541027Y-105875472D01*
X93569218Y-105841395D01*
X93577208Y-105832616D01*
X94735499Y-104674325D01*
X94797811Y-104640299D01*
X94824594Y-104637420D01*
X97433134Y-104637420D01*
X97495316Y-104630665D01*
X97631705Y-104579535D01*
X97748261Y-104492181D01*
X97835615Y-104375625D01*
X97886745Y-104239236D01*
X97893500Y-104177054D01*
X97893500Y-101080786D01*
X97886745Y-101018604D01*
X97835615Y-100882215D01*
X97748261Y-100765659D01*
X97631705Y-100678305D01*
X97495316Y-100627175D01*
X97433134Y-100620420D01*
X94336866Y-100620420D01*
X94274684Y-100627175D01*
X94138295Y-100678305D01*
X94021739Y-100765659D01*
X93934385Y-100882215D01*
X93883255Y-101018604D01*
X93876500Y-101080786D01*
X93876500Y-103689325D01*
X93856498Y-103757446D01*
X93839595Y-103778420D01*
X92878420Y-104739595D01*
X92816108Y-104773621D01*
X92789325Y-104776500D01*
X89056258Y-104776500D01*
X88988137Y-104756498D01*
X88941644Y-104702842D01*
X88931540Y-104632568D01*
X88938276Y-104606271D01*
X88978971Y-104497718D01*
X88978973Y-104497712D01*
X88981745Y-104490316D01*
X88988500Y-104428134D01*
X88988500Y-102631866D01*
X88981745Y-102569684D01*
X88930615Y-102433295D01*
X88843261Y-102316739D01*
X88726705Y-102229385D01*
X88590316Y-102178255D01*
X88528134Y-102171500D01*
X86731866Y-102171500D01*
X86669684Y-102178255D01*
X86533295Y-102229385D01*
X86416739Y-102316739D01*
X86329385Y-102433295D01*
X86326233Y-102441703D01*
X86284919Y-102551907D01*
X86242277Y-102608671D01*
X86175716Y-102633371D01*
X86106367Y-102618163D01*
X86073743Y-102592476D01*
X86023151Y-102536875D01*
X86023142Y-102536866D01*
X86019670Y-102533051D01*
X86015619Y-102529852D01*
X86015615Y-102529848D01*
X85848414Y-102397800D01*
X85848410Y-102397798D01*
X85844359Y-102394598D01*
X85648789Y-102286638D01*
X85643920Y-102284914D01*
X85643916Y-102284912D01*
X85443087Y-102213795D01*
X85443083Y-102213794D01*
X85438212Y-102212069D01*
X85433119Y-102211162D01*
X85433116Y-102211161D01*
X85223373Y-102173800D01*
X85223367Y-102173799D01*
X85218284Y-102172894D01*
X85144452Y-102171992D01*
X85000081Y-102170228D01*
X85000079Y-102170228D01*
X84994911Y-102170165D01*
X84774091Y-102203955D01*
X84561756Y-102273357D01*
X84363607Y-102376507D01*
X84359474Y-102379610D01*
X84359471Y-102379612D01*
X84189100Y-102507530D01*
X84184965Y-102510635D01*
X84145525Y-102551907D01*
X84091280Y-102608671D01*
X84030629Y-102672138D01*
X83923201Y-102829621D01*
X83868293Y-102874621D01*
X83797768Y-102882792D01*
X83734021Y-102851538D01*
X83713324Y-102827054D01*
X83632822Y-102702617D01*
X83632820Y-102702614D01*
X83630014Y-102698277D01*
X83479670Y-102533051D01*
X83475619Y-102529852D01*
X83475615Y-102529848D01*
X83308414Y-102397800D01*
X83308410Y-102397798D01*
X83304359Y-102394598D01*
X83108789Y-102286638D01*
X83103920Y-102284914D01*
X83103916Y-102284912D01*
X82903087Y-102213795D01*
X82903083Y-102213794D01*
X82898212Y-102212069D01*
X82893119Y-102211162D01*
X82893116Y-102211161D01*
X82683373Y-102173800D01*
X82683367Y-102173799D01*
X82678284Y-102172894D01*
X82604452Y-102171992D01*
X82460081Y-102170228D01*
X82460079Y-102170228D01*
X82454911Y-102170165D01*
X82234091Y-102203955D01*
X82021756Y-102273357D01*
X81823607Y-102376507D01*
X81819474Y-102379610D01*
X81819471Y-102379612D01*
X81649100Y-102507530D01*
X81644965Y-102510635D01*
X81605525Y-102551907D01*
X81551280Y-102608671D01*
X81490629Y-102672138D01*
X81364743Y-102856680D01*
X81270688Y-103059305D01*
X81210989Y-103274570D01*
X81187251Y-103496695D01*
X81200110Y-103719715D01*
X81201247Y-103724761D01*
X81201248Y-103724767D01*
X81208613Y-103757446D01*
X81249222Y-103937639D01*
X81333266Y-104144616D01*
X81370685Y-104205678D01*
X81447291Y-104330688D01*
X81449987Y-104335088D01*
X81596250Y-104503938D01*
X81768126Y-104646632D01*
X81854070Y-104696853D01*
X81902794Y-104748491D01*
X81916500Y-104805641D01*
X81916500Y-105095406D01*
X81896498Y-105163527D01*
X81879595Y-105184501D01*
X78865247Y-108198848D01*
X78856961Y-108206388D01*
X78850482Y-108210500D01*
X78845057Y-108216277D01*
X78803857Y-108260151D01*
X78801102Y-108262993D01*
X78781365Y-108282730D01*
X78778885Y-108285927D01*
X78771182Y-108294947D01*
X78740914Y-108327179D01*
X78737095Y-108334125D01*
X78737093Y-108334128D01*
X78731152Y-108344934D01*
X78720301Y-108361453D01*
X78707886Y-108377459D01*
X78704741Y-108384728D01*
X78704738Y-108384732D01*
X78690326Y-108418037D01*
X78685109Y-108428687D01*
X78663805Y-108467440D01*
X78661834Y-108475115D01*
X78661834Y-108475116D01*
X78658767Y-108487062D01*
X78652363Y-108505766D01*
X78644319Y-108524355D01*
X78643080Y-108532178D01*
X78643077Y-108532188D01*
X78637401Y-108568024D01*
X78634995Y-108579644D01*
X78625972Y-108614789D01*
X78624000Y-108622470D01*
X78624000Y-108642724D01*
X78622449Y-108662434D01*
X78619280Y-108682443D01*
X78620026Y-108690335D01*
X78623441Y-108726461D01*
X78624000Y-108738319D01*
X78624000Y-114286692D01*
X78603998Y-114354813D01*
X78556183Y-114398453D01*
X78531107Y-114411507D01*
X78526974Y-114414610D01*
X78526971Y-114414612D01*
X78356600Y-114542530D01*
X78352465Y-114545635D01*
X78257898Y-114644594D01*
X78218527Y-114685793D01*
X78157003Y-114721223D01*
X78086090Y-114717766D01*
X78028304Y-114676520D01*
X78013333Y-114652194D01*
X78011365Y-114647994D01*
X78009050Y-114641054D01*
X77915978Y-114490652D01*
X77790803Y-114365695D01*
X77762729Y-114348390D01*
X77646468Y-114276725D01*
X77646466Y-114276724D01*
X77640238Y-114272885D01*
X77544231Y-114241041D01*
X77478889Y-114219368D01*
X77478887Y-114219368D01*
X77472361Y-114217203D01*
X77465525Y-114216503D01*
X77465522Y-114216502D01*
X77422469Y-114212091D01*
X77367900Y-114206500D01*
X76067100Y-114206500D01*
X76063854Y-114206837D01*
X76063850Y-114206837D01*
X75968192Y-114216762D01*
X75968188Y-114216763D01*
X75961334Y-114217474D01*
X75954798Y-114219655D01*
X75954796Y-114219655D01*
X75849227Y-114254876D01*
X75793554Y-114273450D01*
X75643152Y-114366522D01*
X75518195Y-114491697D01*
X75514355Y-114497927D01*
X75514354Y-114497928D01*
X75429966Y-114634831D01*
X75425385Y-114642262D01*
X75410926Y-114685854D01*
X75373073Y-114799980D01*
X75369703Y-114810139D01*
X75359000Y-114914600D01*
X75359000Y-116215400D01*
X75359337Y-116218646D01*
X75359337Y-116218650D01*
X75364798Y-116271277D01*
X75369974Y-116321166D01*
X75372155Y-116327702D01*
X75372155Y-116327704D01*
X75413894Y-116452811D01*
X75425950Y-116488946D01*
X75519022Y-116639348D01*
X75644197Y-116764305D01*
X75650427Y-116768145D01*
X75650428Y-116768146D01*
X75781599Y-116849001D01*
X75794762Y-116857115D01*
X75801709Y-116859419D01*
X75803776Y-116860383D01*
X75857061Y-116907299D01*
X75876523Y-116975576D01*
X75855982Y-117043536D01*
X75826181Y-117075337D01*
X75812465Y-117085635D01*
X75658129Y-117247138D01*
X75532243Y-117431680D01*
X75438188Y-117634305D01*
X75378489Y-117849570D01*
X75354751Y-118071695D01*
X75355048Y-118076848D01*
X75355048Y-118076851D01*
X75365938Y-118265713D01*
X75367610Y-118294715D01*
X75368747Y-118299761D01*
X75368748Y-118299767D01*
X75378403Y-118342607D01*
X75416722Y-118512639D01*
X75500766Y-118719616D01*
X75545394Y-118792442D01*
X75614791Y-118905688D01*
X75617487Y-118910088D01*
X75763750Y-119078938D01*
X75935626Y-119221632D01*
X75980122Y-119247633D01*
X76008945Y-119264476D01*
X76057669Y-119316114D01*
X76070740Y-119385897D01*
X76044009Y-119451669D01*
X76003555Y-119485027D01*
X75991107Y-119491507D01*
X75986974Y-119494610D01*
X75986971Y-119494612D01*
X75816600Y-119622530D01*
X75812465Y-119625635D01*
X75808893Y-119629373D01*
X75737063Y-119704539D01*
X75658129Y-119787138D01*
X75532243Y-119971680D01*
X75501948Y-120036945D01*
X75440883Y-120168500D01*
X75438188Y-120174305D01*
X75378489Y-120389570D01*
X75354751Y-120611695D01*
X70358500Y-120611695D01*
X70358500Y-99694500D01*
X70378502Y-99626379D01*
X70432158Y-99579886D01*
X70484500Y-99568500D01*
X113665500Y-99568500D01*
X113733621Y-99588502D01*
G37*
G04 #@! TD.AperFunction*
M02*
